<?xml version="1.0" encoding="utf-8"?>
<!-- Generator: Adobe Illustrator 23.0.0, SVG Export Plug-In . SVG Version: 6.00 Build 0)  -->
<svg version="1.1" xmlns="http://www.w3.org/2000/svg" xmlns:xlink="http://www.w3.org/1999/xlink" x="0px" y="0px"
	 viewBox="0 0 500 374" style="enable-background:new 0 0 500 374;" xml:space="preserve">
<style type="text/css">
	._x005B_По_x0020_умолчанию_x005D_{fill:#FFFFFF;stroke:#000000;stroke-miterlimit:10;}
	._x005B_Por_x0020_defecto_x005D_{fill:#FFFFFF;stroke:#222221;stroke-miterlimit:10;}
	.Sombra_x0020_paralela{fill:none;}
	.Esquinas_x0020_redondeadas_x0020_2_x0020_pt_x002E_{fill:#FFFFFF;stroke:#222221;stroke-miterlimit:10;}
	.Reflejo_x0020_vivo_x0020_X{fill:none;}
	.Bisel_x0020_suave{fill:url(#SVGID_1_);}
	.Atardecer{fill:#FFFFFF;}
	.Follaje_GS{fill:#F8DB06;}
	.Pompadour_GS{fill-rule:evenodd;clip-rule:evenodd;fill:#75ABDF;}
	.st0{fill:#0367BF;}
	.st1{font-family:'Candara';}
	.st2{font-size:82.7272px;}
	.st3{fill:#C1D6F2;}
	.st4{clip-path:url(#SVGID_3_);fill:#EBA76C;}
	.st5{clip-path:url(#SVGID_3_);fill:#C4DFF8;}
	.st6{clip-path:url(#SVGID_3_);}
	.st7{fill:#EBA76C;}
	.st8{fill:#9EBEE6;}
	.st9{clip-path:url(#SVGID_3_);fill:none;stroke:#C1D6F2;stroke-width:6.8384;stroke-miterlimit:10;}
	.st10{fill:none;stroke:#2065BF;stroke-width:13.6769;stroke-miterlimit:10;}
	.st11{fill:#57A9F2;}
	.st12{fill:#3A7FD8;}
	.st13{fill:#BADCF2;}
	.st14{fill:#2065BF;}
	.st15{fill:#E17D27;}
	.st16{fill:#3C69BA;}
	.st17{fill:#6D9AD8;}
	.st18{fill:#F2A71D;}
	.st19{fill:#D86F13;}
	.st20{fill:#5885C7;}
	.st21{fill:#D29026;}
	.st22{fill:#1E3358;}
	.st23{fill:#6190D5;}
	.st24{fill:#4F4E4E;}
	.st25{fill:#C4DFF8;}
</style>
<linearGradient id="SVGID_1_" gradientUnits="userSpaceOnUse" x1="-47.6401" y1="-216" x2="-46.933" y2="-215.2929">
	<stop  offset="0" style="stop-color:#E4E4E9"/>
	<stop  offset="0.1768" style="stop-color:#E0E0E5"/>
	<stop  offset="0.3581" style="stop-color:#D4D4D9"/>
	<stop  offset="0.5415" style="stop-color:#C0C0C4"/>
	<stop  offset="0.7263" style="stop-color:#A3A4A7"/>
	<stop  offset="0.9105" style="stop-color:#7F8183"/>
	<stop  offset="1" style="stop-color:#6B6D6E"/>
</linearGradient>
<g id="BACKGROUND">
</g>
<g id="OBJECTS">
	<g>
		<text transform="matrix(1 0 0 1 183.1685 79.3198)" class="st0 st1 st2">404</text>
		<g>
			<g>
				<path class="st3" d="M95.5,131.1H87v8.5h-7.4v-8.5h-8.5v-7.4h8.5v-8.5H87v8.5h8.5V131.1z"/>
			</g>
			<g>
				<path class="st3" d="M241.1,135.1h-8.5v8.5h-7.4v-8.5h-8.5v-7.4h8.5v-8.5h7.4v8.5h8.5V135.1z"/>
			</g>
			<g>
				<path class="st3" d="M392.9,97.1h-8.5v8.5H377v-8.5h-8.5v-7.4h8.5v-8.5h7.4v8.5h8.5V97.1z"/>
			</g>
			<g>
				<path class="st3" d="M95.5,269.8H87v8.5h-7.4v-8.5h-8.5v-7.4h8.5v-8.5H87v8.5h8.5V269.8z"/>
			</g>
			<g>
				<path class="st3" d="M416.4,254.8c0-1.9-1.2-3.1-3.9-3.1c-2.9,0-4.7,2-5.7,4.5l-7.3-4.2c2.3-5.5,7.5-8.5,13.4-8.5
					c6,0,12.1,3.7,12.1,10.6c0,7.9-8.5,10.3-8.5,14h-8.5C407.9,261.9,416.4,259.5,416.4,254.8z M407.1,277c0-2.8,2.3-5,5-5
					c2.8,0,5,2.3,5,5c0,2.8-2.3,5-5,5C409.4,282.1,407.1,279.8,407.1,277z"/>
			</g>
			<g>
				<path class="st3" d="M132.4,80.2c0-1.9-1.2-3.1-3.9-3.1c-2.9,0-4.7,2-5.7,4.5l-7.3-4.2c2.3-5.5,7.5-8.5,13.4-8.5
					c6,0,12.1,3.7,12.1,10.6c0,7.9-8.5,10.3-8.5,14h-8.5C123.9,87.2,132.4,84.8,132.4,80.2z M123.1,102.4c0-2.8,2.3-5,5-5
					c2.8,0,5,2.3,5,5c0,2.8-2.3,5-5,5C125.4,107.4,123.1,105.1,123.1,102.4z"/>
			</g>
			<g>
				<path class="st3" d="M433,67.5c0-1.9-1.2-3.1-3.9-3.1c-2.9,0-4.7,2-5.7,4.5l-7.3-4.2c2.3-5.5,7.5-8.5,13.4-8.5
					c6,0,12.1,3.7,12.1,10.6c0,7.9-8.5,10.3-8.5,14h-8.5C424.6,74.5,433,72.2,433,67.5z M423.8,89.7c0-2.8,2.3-5,5-5
					c2.8,0,5,2.3,5,5c0,2.8-2.3,5-5,5C426,94.7,423.8,92.4,423.8,89.7z"/>
			</g>
			<g>
				<path class="st3" d="M441.5,132.7l-0.7,4.2h5.6l-0.9,5.8h-5.7l-1.3,7.9h-6l1.3-7.9h-4.9l-1.3,7.9h-6l1.3-7.9h-5.6l1-5.8h5.6
					l0.7-4.2h-5.7l1-5.8h5.7l1.3-7.9h6l-1.3,7.9h4.9l1.3-7.9h6l-1.3,7.9h5.6l-1,5.8H441.5z M435.5,132.7h-4.9l-0.7,4.2h4.9
					L435.5,132.7z"/>
			</g>
			<g>
				<path class="st3" d="M287.7,110.7l-0.7,4.2h5.6l-0.9,5.8H286l-1.3,7.9h-6l1.3-7.9h-4.9l-1.3,7.9h-6l1.3-7.9h-5.6l1-5.8h5.6
					l0.7-4.2h-5.7l1-5.8h5.7l1.3-7.9h6l-1.3,7.9h4.9l1.3-7.9h6l-1.3,7.9h5.6l-1,5.8H287.7z M281.7,110.7h-4.9l-0.7,4.2h4.9
					L281.7,110.7z"/>
			</g>
			<g>
				<path class="st3" d="M73.5,316l-0.7,4.2h5.6l-0.9,5.8h-5.7l-1.3,7.9h-6l1.3-7.9h-4.9l-1.3,7.9h-6l1.3-7.9h-5.6l1-5.8h5.6
					l0.7-4.2h-5.7l1-5.8h5.7l1.3-7.9h6l-1.3,7.9h4.9l1.3-7.9h6l-1.3,7.9h5.6l-1,5.8H73.5z M67.5,316h-4.9l-0.7,4.2h4.9L67.5,316z"/>
			</g>
			<g>
				<path class="st3" d="M452.9,316l-0.7,4.2h5.6l-0.9,5.8h-5.7l-1.3,7.9h-6l1.3-7.9h-4.9l-1.3,7.9h-6l1.3-7.9h-5.6l1-5.8h5.6
					l0.7-4.2h-5.7l1-5.8h5.7l1.3-7.9h6l-1.3,7.9h4.9l1.3-7.9h6l-1.3,7.9h5.6l-1,5.8H452.9z M446.8,316H442l-0.7,4.2h4.9L446.8,316z"
					/>
			</g>
		</g>
		<g>
			<defs>
				<rect id="SVGID_2_" x="0" y="-45.1" width="500" height="500"/>
			</defs>
			<clipPath id="SVGID_3_">
				<use xlink:href="#SVGID_2_"  style="overflow:visible;"/>
			</clipPath>
			<path class="st4" d="M348.5,282.5c-0.6,0.9-2.3,0.8-3.2,0.6c-1.1-0.2-2-0.9-2.9-1.6c-2.6-2-5.3-4.1-7.7-6.4
				c-1.2-1.2-2.7-2.1-3.7-3.4c-0.2-0.3-0.1-1.5-0.1-1.8c0-0.6,0.7-0.5,1.2-0.5c2.7,0.2,5.2,1.7,7.4,3.2c0.9,0.6,1.6,1.3,2.4,1.8
				c1.3,0.9,2.6,1.7,3.8,2.8c0.9,0.8,1.8,1.9,2.4,3c0.3,0.5,0.7,1.3,0.6,1.9C348.6,282.5,348.4,282.7,348.5,282.5z"/>
			<path class="st4" d="M331.7,272.8c-0.6-0.5-0.8-1.3-1-2.1c-0.6-2.4-0.7-4.9-0.9-7.4c-0.2-2,0.1-4.1-0.3-6.2
				c-0.4-1.9-1.3-3.8-1.4-5.7c-0.1-1.1-0.1-2.8,0.5-4c0.2-0.5,0.9-0.5,1.2-0.2c0.2,0.2,0.3,0.4,0.4,0.6c0.2,0.4,0.2,1.2,0.4,1.7
				c0.3,1,0.8,2,1,3c0.2-0.4,0.1-1.2,0.1-2c0-0.2,0.3-0.3,0.4-0.1c0.3,0.9,0.6,2.1,0.7,2.9c0.1,1-0.4,2.3-0.3,3.2
				c0.2,1.7,0.9,3,1.3,4.7c0.7,2.8,2,5.8,1.7,8.7c-0.1,0.7,0.1,2-0.5,2.5C334.4,273,332.4,273.3,331.7,272.8z"/>
			<path class="st5" d="M351.7,278.2c-0.6-0.5-1.6-0.5-2.4-0.7c-1-0.3-2.1-0.8-3-1.3c-0.5-0.3-0.9-0.6-1.5-0.9
				c-0.5-0.2-1.1-0.4-1.5-0.7c-0.4-0.3-0.7-0.7-1.2-0.4c-0.4,0.3-0.8,0.8-1.2,1.1c-0.7,0.6-1.4,1.3-1.8,2.2
				c-0.3,0.6-0.3,1.3-0.6,1.9c0.6,0.3,1,0.8,1.5,1.2c0.7,0.4,1.5,0.8,2.1,1.4c0.5,0.5,0.9,1,1.3,1.6c0.7,0.9,0.5,1.7,0.5,2.8
				c-0.1,1.8-0.6,3.6-0.6,5.3c0.3-0.2,0.6-0.5,0.9-0.7c0.5-0.3,1.1-0.5,1.5-0.9c0.9-0.8,0.9-2.3,1.2-3.4c0.4-1.9,1.1-3.7,2.4-5.2
				c0.6-0.6,1.1-1.2,1.5-2C351.2,278.9,351.4,278.5,351.7,278.2C351.6,278.3,351.5,278.5,351.7,278.2z"/>
			<g class="st6">
				<path class="st7" d="M134.7,245.4c0-0.2,0.1-0.5,0.1-0.7c0.3-1.9,0.5-3.9,1.3-5.7c0.3-0.8,0.7-1.6,1-2.5c0.3-0.8,0.3-1.8,0-2.6
					c-0.6,0.8-0.9,1.7-1.1,2.6c0-2.1,0.1-4.2,0.4-6.2c-0.2-0.1-0.4,0-0.5,0.1c-0.8,0.4-1.6,1-2.2,1.7c-0.3,0.3-0.6,0.7-0.7,1.1
					c-0.2,0.5-0.2,0.9-0.1,1.4c0.1,1.3,0.7,2.9,0.2,4.1c-0.2,0.6-0.2,1-0.7,2c-0.8,1.5-1.6,3-2.3,4.6c-0.9,1.7-2.9,5.8-2,7.8
					c0.5,1.1,1.2,1.7,2.5,1.5c1.2-0.2,1.9-1.3,2.4-2.4C133.6,250.5,134.5,247.2,134.7,245.4z"/>
				<path class="st7" d="M129.1,274.2c0.3-0.6,0.5-1.2,0.6-1.8c1.5-6,2.7-12.2,2.3-18.5c0-0.7-0.1-1.4-0.4-2
					c-0.3-0.6-0.9-1.2-1.6-1.3c-0.7-0.1-1.4,0.2-1.9,0.8c-0.4,0.5-0.7,1.2-0.9,1.8c-1.8,5.4-2.9,11.1-3,16.9c0,1.4,0.1,2.8,0.9,4
					c0.5,0.7,1.3,1.4,2.2,1.5C128.1,275.4,128.8,274.8,129.1,274.2z"/>
				<path class="st8" d="M130.3,273.3c0.4-0.7,0.6-1.5,0.9-2.2c0.2-0.6,0.4-1.2,0.5-1.8c0.2-0.5,0.3-1.1,0.4-1.7
					c0.1-0.6,0.2-1.1,0.3-1.7c0.1-1,0.2-1.9,0.3-2.9c-3.3-1.2-6.9-1.4-10.3-0.3c-0.1,1.5-0.1,3.1,0,4.6c0.1,1.5,0.3,3,1,4.4
					c0.6,1.3,1.8,2.7,3.1,3.4C128.1,275.9,129.7,274.5,130.3,273.3z"/>
			</g>
			<path class="st9" d="M-101.5,357.2c21.2-2.3,98.2,9.6,120.4,9.1c53.7-1.2,99.7-15.6,99.7-15.6"/>
			<g class="st6">
				<path class="st10" d="M67.5,196.6c-46.8,0-78.8-29.7-124-33.1c-45.1-3.4-114.3,49.1-176,57.1C-294.2,228.6-381,168-441,168"/>
				<path class="st11" d="M161.4,198.4l3.2-59.5c0,0-16.9,0-27.2,0c-16.3,0-23.6,29.6-39.8,38.2c-13.5,7.2-25.3,7.3-32.1,7.3
					c-6.9,0-7.4,12.6-7.4,12.6s0.5,12.6,7.4,12.6c6.9,0,18.7,0.2,32.1,7.3c16.2,8.6,23.6,38.2,39.8,38.2c10.3,0,27.2,0,27.2,0
					l-3.5-56.8L161.4,198.4z"/>
				<path class="st12" d="M196.3,197.1c0-20.4-2.9-38.7-7.5-51.5v-18.4h-15.6c-12.8,0-23.1,31.3-23.1,69.8
					c0,38.6,10.4,69.8,23.1,69.8h15.6v-18.4C193.4,235.8,196.3,217.4,196.3,197.1z"/>
				<ellipse class="st13" cx="187.7" cy="197.1" rx="23.1" ry="69.8"/>
				<g>
					<path class="st14" d="M190.7,171.1c0,5-1.3,9.1-3,9.1c-1.7,0-3-4.1-3-9.1c0-5,1.3-9.1,3-9.1
						C189.4,162.1,190.7,166.1,190.7,171.1z"/>
					<rect x="187.7" y="162.1" class="st14" width="49.5" height="18.1"/>
					<circle class="st14" cx="238.7" cy="171.1" r="9.1"/>
				</g>
				<g>
					<path class="st14" d="M190.7,223c0,5-1.3,9.1-3,9.1c-1.7,0-3-4.1-3-9.1c0-5,1.3-9.1,3-9.1C189.4,213.9,190.7,218,190.7,223z"/>
					<rect x="187.7" y="213.9" class="st14" width="49.5" height="18.1"/>
					<circle class="st14" cx="238.7" cy="223" r="9.1"/>
				</g>
			</g>
			<path class="st9" d="M385.9,357.2c21.2-2.3,78.1,9.1,100.4,9.1c49,0.1,124.2-22.4,124.2-22.4"/>
			<g class="st6">
				<path class="st10" d="M429.7,196.6c46.8,0,91.8,29.8,136.9,26.4c45.1-3.4,125.1-43.8,186.8-35.8c61.7,8,115.7,34.1,184.7-19.2"
					/>
				<path class="st11" d="M431.8,184.5c-6.9,0-18.7-0.2-32.1-7.3c-16.2-8.6-23.6-38.2-39.8-38.2c-10.3,0-27.2,0-27.2,0l3.7,56.6
					l-0.4,0l-3.2,59.6c0,0,16.9,0,27.2,0c16.3,0,23.6-29.6,39.8-38.2c13.5-7.2,25.3-7.3,32.1-7.3c6.9,0,7.4-12.6,7.4-12.6
					S438.7,184.5,431.8,184.5z"/>
				<path class="st12" d="M300.9,197.1c0-20.4,2.9-38.7,7.5-51.5v-18.4H324c12.8,0,23.1,31.3,23.1,69.8c0,38.6-10.4,69.8-23.1,69.8
					h-15.6v-18.4C303.8,235.8,300.9,217.4,300.9,197.1z"/>
				<ellipse class="st11" cx="309.5" cy="197.1" rx="23.1" ry="69.8"/>
				<g>
					<path class="st14" d="M306.5,171.1c0,5,1.3,9.1,3,9.1c1.7,0,3-4.1,3-9.1c0-5-1.3-9.1-3-9.1
						C307.8,162.1,306.5,166.1,306.5,171.1z"/>
				</g>
				<g>
					<path class="st14" d="M306.5,223c0,5,1.3,9.1,3,9.1c1.7,0,3-4.1,3-9.1c0-5-1.3-9.1-3-9.1C307.8,213.9,306.5,218,306.5,223z"/>
				</g>
			</g>
			<g class="st6">
				<path class="st3" d="M182.9,351.1c0,2.7-17.9,4.8-39.9,4.8c-22,0-39.9-2.2-39.9-4.8c0-2.7,17.9-4.8,39.9-4.8
					C165,346.2,182.9,348.4,182.9,351.1z"/>
				<path class="st7" d="M163.7,251.3c0.2-0.2,0.4-0.3,0.5-0.5c1.4-1.3,2.9-2.6,4.1-4.2c0.5-0.7,0.9-1.5,1.5-2.2
					c0.6-0.7,1.3-1.3,2.2-1.4c-0.3,0.9-0.9,1.7-1.6,2.4c1.7-1.1,3.4-2.4,5-3.8c0.2,0.1,0.2,0.3,0.3,0.5c0.1,0.9,0.1,1.9-0.1,2.8
					c-0.1,0.4-0.3,0.9-0.5,1.2c-0.3,0.4-0.7,0.7-1.1,0.9c-1.1,0.7-2.7,1-3.5,2.1c-0.4,0.5-0.7,0.7-1.3,1.7c-0.8,1.5-1.7,3-2.5,4.5
					c-0.9,1.7-3.2,5.6-5.4,6c-1.2,0.2-2.1-0.1-2.6-1.2c-0.5-1.1,0-2.2,0.6-3.3C160.1,255,162.4,252.5,163.7,251.3z"/>
				<path class="st7" d="M162.2,260.5c0,0.1-0.1,0.2-0.1,0.3c-0.3,0.6-0.8,1.1-1.3,1.5c-3,2.6-6.2,4.9-9.6,6.8
					c-1.6,0.9-3.2,1.7-4.9,2.4c-1.2,0.5-2.6,1-4,0.7c-0.8-0.2-1.8-0.7-2.2-1.5c-0.4-0.7,0-1.6,0.4-2.2c0.4-0.5,0.9-0.9,1.4-1.3
					c5-3.7,10.3-7.1,16.3-9.1c0.6-0.2,1.3-0.4,2-0.4c0.7,0,1.5,0.4,1.8,1C162.4,259.3,162.4,259.9,162.2,260.5z"/>
				<path class="st7" d="M140.8,260.6c-0.3,0.7-0.8,1.4-1.5,1.6c-0.2,0-0.9,0-1.6-0.1c-0.2,0-0.3,0-0.5-0.1
					c-0.7-0.1-1.3-0.3-1.5-0.4c-0.5-0.3-1.3-1.7-1.3-1.9c0,0,0-0.1-0.1-0.2c-0.1-0.1-0.1-0.3-0.2-0.4c-0.3-0.4-0.6-1-0.6-1.3
					c0-2.4,1-3,1.9-4.1c0.9-1.2,2.2-2,3.5-2.4c0.7-0.3,1.6-0.5,2.4-0.2c0.7,0.2,0.6,0.7,0.6,1.3C142,255.2,142,258,140.8,260.6z"/>
				<path class="st7" d="M138.7,266c-1.7,1.8-4.4,2.7-6.9,2.1c-0.7-0.2-1.4-0.4-2.1-0.5c1-0.6,1.5-1.8,1.7-3
					c0.3-1.3,0.2-2.7-0.1-3.9c-0.1-0.3-0.7-1.4-0.4-1.6c0.2-0.2,1.5,0.4,1.9,0.4c0.4,0,0.8-0.1,1.2-0.3c0.1,0,0.1-0.1,0.2-0.1l0,0
					c0.4-0.2,0.8-0.4,1.3-0.5c0.1,0,0.2-0.1,0.3,0c0.1,0,0.1,0.1,0.2,0.1c0.6,0.5,1.1,1,1.7,1.5c-0.2,0.6-0.3,1.1-0.4,1.7
					c0,0,0,0.1,0,0.1c-0.1,0.5-0.1,1.1-0.1,1.7c0,0.2,0,0.3,0,0.5c0,0.2,0.1,0.4,0.1,0.6C137.4,265.4,138,265.9,138.7,266z"/>
				<path class="st15" d="M137.2,262c-0.1,0.5-0.1,1.1-0.1,1.7c0,0.2,0,0.3,0,0.5c-0.2-0.1-0.3-0.3-0.4-0.4
					c-0.3-0.2-0.5-0.5-0.7-0.7c-0.7-0.8-1.1-1.7-1.5-2.7c-0.1-0.3-0.2-0.5-0.3-0.8c0-0.2,0-0.3,0-0.5c0,0,0,0,0,0l0,0
					c0.6,0.7,1.1,1.4,1.8,2c0.4,0.3,0.8,0.6,1.2,0.8c0,0,0.1,0,0.1,0.1c0.1,0.1,0.2,0.1,0.4,0.2C137.5,262.1,137.3,262.1,137.2,262z
					"/>
				<path class="st16" d="M135.3,261.4c0.5-0.4,0.9-0.8,1.3-1.3c0.8-1.2,1.1-2.6,1.8-3.9c0.5-0.8,1.1-1.5,1.9-2
					c0.6-0.4,1.4-0.7,1.9-1.2c0.9-0.8,1.3-2,1.3-3.1c0-1.2-0.4-2.3-0.8-3.4c-0.4,0.5-1.1,0.7-1.8,0.7c-1.8,0.2-3.7,0.1-5.5,0.3
					c-1.8,0.2-3.7,0.7-4.9,2.1c-1.3,1.5-1.5,3.6-1.5,5.5c0,1,0,2,0.2,2.9c0.3,1.2,0.8,2.4,1.6,3.4
					C132.1,263.1,133.9,262.6,135.3,261.4z"/>
				<path class="st7" d="M138.8,255.8c-0.1-0.2-0.3-0.5-0.6-0.6c-0.3-0.1-0.6-0.1-0.8,0.1c-0.2,0.2-0.2,0.4-0.2,0.6
					c0,0.2,0.1,0.4,0.2,0.6c0.3,0.7,0.6,1.4,1.1,2c0.1,0.1,0.2,0.2,0.3,0.2c0.1,0,0.1-0.1,0.2-0.2c0-0.2,0.2-0.5,0.3-0.7
					c0.1-0.3,0.1-0.5,0.1-0.8c0,0,0,0.1,0,0C139.1,256.8,139,256.2,138.8,255.8z"/>
				<path class="st17" d="M128.2,349.4c-0.1,0.5-0.1,1.1,0,1.5c0.3,1,1.5,1.5,2.5,1.4c1-0.1,2-0.6,2.9-1.2c1.5-0.9,2.9-1.8,4.2-3
					c0.5-0.4,0.9-0.9,1.2-1.5c0.3-0.6,0.3-1.3,0-1.9c-0.5-0.9-1.7-1.1-2.7-0.8c-1,0.2-1.8,0.8-2.7,1.3c-1.2,0.6-2,1-3.2,1.5
					C128.9,347.4,128.4,347.9,128.2,349.4z"/>
				<path class="st18" d="M126.6,301.2c-0.3,3.2,0.3,6.5,0.8,9.7c0.5,3.4,0.9,6.8,1.1,10.2c0.1,1,0.2,2.1,0,3.1
					c-0.2,1.7-0.8,3.3-1.2,5c-0.6,2.8-0.3,5.7,0,8.6c0.2,1.9,0.4,3.8,0.6,5.7c0.2,1.8,0.4,3.6,0.9,5.3c1.6,0.6,2.5-0.1,3.1-0.6
					c0.3-5,1.1-9.9,2.4-14.8c0.4-1.5,0.9-3,1.1-4.6c0.3-1.7,0.3-3.5,0.5-5.3c0.4-6.7,1.9-13.4,1.3-20.1c-0.2-2.6-0.8-5.2-1.3-7.7
					c0-0.2-0.1-0.5-0.3-0.6c-0.2-0.2-0.5-0.2-0.7-0.3c-1.4-0.2-2.8-0.4-4.1-0.6c-0.8-0.1-1.9-0.5-2.6,0.2c-0.7,0.7-0.8,2.3-1,3.1
					C126.9,298.7,126.7,299.9,126.6,301.2z"/>
				<path class="st17" d="M141.9,352.2c-0.1,0.5-0.2,1.1,0,1.6c0.3,1.1,1.5,1.7,2.7,1.6c1.1,0,2.2-0.6,3.2-1.1
					c1.6-0.8,3.1-1.7,4.6-2.6c0.9-0.6,1.7-1.2,2.2-2.1c0.4-0.9,0.3-2.2-0.6-2.7c-1-0.6-2.1,0-3.2,0.4c-1.1,0.4-2.3,0.7-3.5,0.9
					c-1.2,0.2-3.2,0.2-4.3,0.8C142,349.5,142.1,351.2,141.9,352.2z"/>
				<path class="st18" d="M134.6,307.2c0.7,1,1.5,1.9,2.1,3c0.9,1.4,1.4,3,1.9,4.6c1.4,4.4,2.8,8.8,2.9,13.4
					c0.1,3.2-0.6,6.4-0.6,9.6c-0.1,2.1,0.1,4.3,0.3,6.4c0.2,2.2,0.4,4.4,0.6,6.5c1.8,0.2,3.6-0.2,5.2-1.1
					c-0.3-5.4,0.3-10.8,1.2-16.1c0.4-2.6,1-5.1,1.2-7.7c0.4-4.8-0.2-9.6-0.8-14.3c-0.7-5.9-1.5-11.9-3.5-17.4
					c0.1,0.4-9.9,1.3-10.8,1.4c-3.2,0.3-2.3,4.2-1.8,6.5C132.8,303.8,133.5,305.6,134.6,307.2z"/>
				<path class="st19" d="M132.3,320.8c0.3,1.1,0.7,2.2,0.8,3.3c0.2,1.3,0.1,2.6,0,3.9c-0.1,1.5-0.3,2.9-0.4,4.4
					c-0.3,3.8-0.6,7.6-1.2,11.4c-0.2,1.5,0.3,2.7,0.4,4.4c1.5-4.8,2.2-9.3,3.1-14.2c1-5.6,1.3-11.2,1.6-16.9
					c0.1-1.6,0.2-3.3,0.3-4.9c0-0.8,0.1-1.7-0.3-2.4c-0.4-0.7-1.2-1.1-1.9-1.6c-1.8-1.1-3-2.8-4.5-4.1c-0.6,0.8,0,2.7,0,3.6
					c0.1,1.5,0.3,2.9,0.4,4.4C130.9,315.1,131.5,318,132.3,320.8z"/>
				<path class="st8" d="M145.6,284.1c0.1-1,0.3-2,0.3-3c0-1.8-0.5-3.6-1.1-5.3c-0.7-2.3-1.4-4.7-2.1-7c-0.3-0.9-0.5-1.7-1-2.5
					c-1.1,0.2-2.3,0.1-3.4-0.2l0.2,0.1c-1.5,1.3-3.6,2-5.6,1.9c0,0,0,0,0,0c-0.2-0.1-0.6-0.1-0.9-0.2c-0.2-0.1-0.5-0.3-0.7-0.4
					c-0.3-0.2-0.7-0.7-0.6-1.1c-0.6,0.5-1.1,0.6-1.9,0.7c-0.6,0-1.2,0.1-1.7,0.5c-0.8,0.7-1.2,1.7-1.3,2.6c0,0,0,0.1,0,0.1
					c-0.2,0.9-0.2,1.8-0.1,2.7c0.2,1.9,0.4,3.7,0.8,5.5c0.3,1.1,0.7,2.2,0.9,3.4c0.8,4.6-1.1,9.4-0.2,14c0.6,0,1,0.4,1.5,0.7
					c1.5,1.2,3.5,1.6,5.4,1.6s3.8-0.2,5.7-0.3c2.2-0.1,4.6,0.1,6.3-1.3C145.5,292.4,145.2,288.2,145.6,284.1z"/>
				<path class="st20" d="M141.4,267.8c-0.6-0.4-1.4,0-1.8,0.6c-0.4,0.6-0.5,1.3-0.5,2c-0.1,4.2,1.2,8.3,1.5,12.4
					c0.1,0.9,0.1,1.8-0.1,2.6c-0.2,0.8-0.7,1.6-0.9,2.4c-0.5,1.6-0.4,3.3-0.1,5c0.3,1.7,0.8,3.3,0.9,5c2.1-0.1,4.1-0.5,6.1-1.3
					c0.1,0,0.3-0.1,0.3-0.2c0.1-0.1,0-0.3,0-0.4c-0.8-3.9-0.7-8-0.5-12c0.1-1,0.1-2,0.1-3c-0.1-0.9-0.3-1.9-0.5-2.8
					c-0.5-2.2-1.1-4.5-2.5-6.2c-0.5-0.6-1.2-1.2-1.7-1.8C141.2,269.4,141,268.4,141.4,267.8c0.1,0.2,0.3,0.5,0.5,0.8"/>
				<path class="st8" d="M138.9,268.2c0.5-0.7,1.1-1.2,1.6-1.8c0.5-0.4,0.9-0.9,1.4-1.3c0.4-0.4,0.8-0.8,1.3-1.1
					c0.4-0.3,0.9-0.7,1.4-1c0.8-0.5,1.6-1.1,2.4-1.6c2.5,2.4,4.3,5.6,4.8,9.1c-1.3,0.8-2.7,1.4-4.1,2c-1.4,0.6-2.8,1-4.3,1
					c-1.5,0-3.2-0.4-4.4-1.3C137.7,271.4,138.1,269.3,138.9,268.2z"/>
				<path class="st20" d="M137.3,264.2C137.4,264.3,137.3,264.3,137.3,264.2C137.3,264.2,137.3,264.2,137.3,264.2z"/>
			</g>
			<g class="st6">
				<path class="st3" d="M395.1,357.2c0,2.7-17.9,4.8-39.9,4.8c-22,0-39.9-2.2-39.9-4.8c0-2.7,17.9-4.8,39.9-4.8
					C377.3,352.4,395.1,354.5,395.1,357.2z"/>
				<path class="st21" d="M345,277.6c0.4,0.2,0.9,0.2,1.4,0.2c0.9,0,1.8-0.1,2.7-0.3c1.5-0.4,2.6-1.3,3.9-2c0.4-0.2,0.8-0.5,1.1-0.7
					c0.2-0.1,0.5-0.2,0.6-0.3c-0.3-0.2-0.7,0-1.1-0.2c-1-0.5-1.6-1.5-1.9-2.5c-0.1-0.4-0.2-0.8-0.4-1.2c-0.1-0.3-0.1-0.6-0.2-0.8
					c0-0.1,0-0.3-0.1-0.5c0-0.5,0-1.1,0.1-1.5c0-0.1,0.1-0.1,0.1-0.2c-0.2,0-0.4-0.2-0.6-0.2c-0.3,0-0.6,0.4-0.8,0.5
					c-0.5,0.4-1,0.9-1.7,1.1c-0.9,0.2-1.9,0.5-2.9,0.4c0.3,0.5,0.5,1.1,0.6,1.7c0,0.1,0,0.1,0,0.2c0.1,0.6,0.2,1.1,0.2,1.7
					c0,0,0,0,0,0.1c0,0.6-0.1,1.2-0.3,1.8C345.7,275.6,345.5,276.6,345,277.6z"/>
				<path class="st7" d="M343.2,262c-0.1,0.7-0.5,1.3-0.5,2c-0.1,1,0,2.1,0.3,3.1c0.6,1.9,2,4,3.5,5.3c2.3,2,4.5-1.8,5.1-3.8
					c0.5-1.6,0.9-3.9,0-5.4c-0.7-1.2-1.8-2.5-3.3-2.9c-1-0.3-2.4-0.1-3.3,0.4C344.2,261,343.7,262.1,343.2,262z"/>
				<path class="st22" d="M350.6,264.8c-1.5-2-3.7-1.3-4.6-1.4c-1.7-0.2-2.8-1.6-3-3.2c-0.1-0.8-0.2-2,0.1-2.8
					c0.7,0.2,1.2,0.6,2,0.4c0.9-0.2,1.5-0.5,2.4-0.6c1.7-0.1,3.6,0.3,4.7,1.6c1.5,1.7,2.2,4,2.1,6.3c0,0.7-1.8,6.4-3,5.5
					c-0.4-0.3-0.2-2.7-0.3-3.3C351,266.7,350.9,265.1,350.6,264.8z"/>
				<path class="st22" d="M344,259.9c-1.5-0.1-2.4,1.9-2.6,3.3c-0.1,1.3,0.4,2.7,0.8,3.9c0.2,0.6,0.5,1.3,0.9,1.9
					c0.1,0.2,0.7,1.3,1,1.3c0.5-0.1-0.3-1.6-0.4-1.8c-0.3-0.8-0.6-1.7-0.7-2.6c-0.1-1.3-0.2-2.6,0.4-3.8
					C344,261.2,344.3,260.8,344,259.9z"/>
				<path class="st7" d="M350.6,265.7c0.2-0.5,0.2-0.9,0.5-1.2c0.3-0.2,0.6-0.3,0.9,0c0.6,0.7-0.2,1.6-0.5,2.1
					c-0.2,0.3-0.4,0.6-0.6,0.9c-0.1-0.4-0.1-0.7-0.2-1.1C350.8,266.2,350.7,265.7,350.6,265.7z"/>
				<path class="st23" d="M358.9,349.8c0.4,0.8-0.1,2.1,0.1,3c0.1,0.9,0.8,1.6,1.3,2.3c0.8,1.1,3,3,2.3,4.5
					c-0.8,1.8-3.1,1.1-4.3,0.2c-1.2-0.9-1.6-2.5-2.6-3.7c-0.8-0.9-0.8-1.7-0.6-2.9c0.2-1.1,0.2-2.2,0.3-3.4c0.7-0.1,1.6,0.1,2.3,0.1
					C358,349.9,359,350,358.9,349.8z"/>
				<path class="st23" d="M348.6,349.6c0.1,1.1-0.2,2.2,0,3.3c0.2,0.9,1,1.9,0.8,3c-0.2,1-1.5,1-2.4,1.3c-0.9,0.3-1.5,0.8-2,1.6
					c-1.1,1.5-3.9,1.9-5.3,0.4c-0.7-0.7-0.8-1.9-0.1-2.5c0.7-0.6,1.8-0.6,2.7-1.1c2.2-1.3,3.3-3.3,3.2-5.9c1.1,0.1,2.1,0.3,3.1,0.1
					C348.5,349.9,348.5,350,348.6,349.6z"/>
				<path class="st18" d="M356.8,298.7c0.9,0.4,1.4,2.8,1.8,3.8c0.6,1.5,1,3.1,1.2,4.6c0.6,4.4,0,8.7-0.5,13.1
					c-0.2,1.7-0.5,3.4-0.6,5.2c-0.1,1.8,0.4,4.1,1,5.7c0.7,1.8,1.1,5.1,0.9,7c-0.3,2-0.1,2.2-0.3,4.2c-0.2,1.9-0.4,3.7-0.5,5.6
					c0,0.7-0.1,1.4-0.1,2.1c0,0.8-0.2,1.5-0.2,2.2c0,0.1-0.1,0.2-0.2,0.2c-1.6,0-3.6,0-5-0.4c-0.1,0-0.1-0.1-0.1-0.1
					c-0.4-3.3-1-6.6-1.7-9.8c-1-5-2-10.1-2.9-15.1c-0.9-4.7-1.9-9.5-2.5-14.3c-0.3-2.3-0.4-4.5-0.4-6.8c0-1.1,0-2.2,0.1-3.3
					c0-0.5-0.1-1.4,0.3-1.7c0.5-0.3,2.3-0.1,2.9-0.2c1.1-0.1,2.1-0.2,3.2-0.5c1.3-0.4,2.7-0.8,4-1.2
					C356.8,299,356.5,299,356.8,298.7z"/>
				<path class="st24" d="M350.4,300.8c0,0,0.1,0,0.1,0C350.5,300.7,350.5,300.7,350.4,300.8z"/>
				<path class="st18" d="M339.1,315.1c0,4.9,1,9.8,2,14.6c1.1,4.9,1.9,9.8,2.6,14.7c0.3,1.9,0.4,3.8,0.7,5.7
					c0.1,0.3,0.1,1.1,0.3,1.4c0.3,0.5,1.1,0.3,1.8,0.3c0.6,0,1.3,0.1,1.9,0.1c0.8-0.1,0.9-0.5,1-1.3c0.4-3.1,0.5-5.4,0.6-7.8
					c0.1-1.9,0.3-3.7,0.2-5.6c0-0.1,0-0.2,0-0.4c-0.4-3.1-0.8-6.2-1.2-9.3c-0.2-1.3-0.2-2.5-0.1-3.8c0.1-1.6,0.3-3.1,0.4-4.7
					c0.4-5.8-0.2-11.7,0.9-17.4c0-0.2,0.1-0.6,0.2-0.7c-3.1,0-7.6,1.9-10.3-0.3c0.1,2.5-0.7,4.8-0.8,7.2
					C339.2,310.2,339.1,312.6,339.1,315.1z"/>
				<path class="st25" d="M339.5,300.7c0.1-2.5,0.3-5,0.3-7.4c0-2.4,0-4.8,0.2-7.1c0.1-1,0.2-2.1,0-3.1c-0.2-1.1-0.3-2.1-0.3-3.2
					c0-1-0.1-3.1,1-3.5c0.8-0.4,1.6-0.7,2.4-1.1c0.9-0.4,2-1.2,3-1.3c0,0.2,0,0.4,0,0.5c0,0,0,0,0,0c0.1,1.2,1.2,1.6,2.2,1.8
					c1.4,0.2,2.6-0.1,3.6-1.1c0.4-0.4,0.8-1,0.9-1.5c0.6,0.3,1.2,0.4,1.8,0.4c0.3,0.2,0.7,0.3,1,0.4c0.6,0.2,1.2,0.4,1.9,0.6
					c0.5,0.4,1.1,0.7,1.8,0.8c0.4,0.2,0.8,0.5,1.2,0.7c0.1,0.2,0.1,0.5,0.2,0.7c0.3,1.6,0.5,3.1-0.4,4.5c-0.4,0.6-2.5,3.9-2.5,4.2
					c-0.1,0.6,0,1.4,0,1.9v0.3c0,0.8,0,1.6,0,2.3c0,2.8,0.5,5.6,1,8.4c0.2,1,0.3,2,0.6,3c0,0.2,0.1,0.3,0.1,0.5
					c0.2,0.6,0.4,1.5,0.3,2.2c-0.3,0-0.7,0.1-1.1,0.2c-1.4,0.3-2.7,0.9-4,1.1c-2.3,0.3-4.6,0.4-6.9,0.4c-2.5,0-5.6,0.7-7.8-0.9
					c-0.5-0.3-0.3-0.9-0.3-1.5C339.6,302.8,339.5,301.8,339.5,300.7z"/>
				<path class="st7" d="M355.7,280.2c0.8,0.7,2.5,0.1,3.3-0.3c1-0.5,1.8-1.5,2.5-2.4c2.1-2.8,4.2-5.6,6.1-8.6
					c0.9-1.5,2.2-2.9,2.8-4.5c0.1-0.4-0.2-1.5-0.3-1.9c-0.1-0.6-0.8-0.3-1.3-0.2c-2.7,0.9-4.7,3.2-6.6,5.3c-0.7,0.8-1.3,1.7-2,2.5
					c-1.1,1.2-2.2,2.5-3.1,3.9c-0.7,1.1-1.3,2.4-1.6,3.6c-0.2,0.6-0.4,1.5-0.1,2.1C355.5,280.2,355.8,280.4,355.7,280.2z"/>
				<path class="st7" d="M369.7,265c0.7-0.5,0.8-1.3,1-2.1c0.6-2.4,0.8-4.9,1.1-7.4c0.2-2,0-4.1,0.4-6.2c0.4-1.9,1.3-3.8,1.5-5.7
					c0.1-1.1,0.2-2.8-0.4-4c-0.2-0.5-0.9-0.6-1.2-0.2c-0.2,0.2-0.3,0.4-0.4,0.6c-0.2,0.4-0.3,1.2-0.4,1.7c-0.3,1-0.8,2-1,3
					c-0.2-0.4-0.1-1.2,0-2c0-0.2-0.3-0.3-0.4-0.1c-0.3,0.9-0.6,2.1-0.7,2.9c-0.1,1,0.4,2.3,0.3,3.2c-0.2,1.7-0.9,3-1.4,4.7
					c-0.8,2.8-2.1,5.8-1.9,8.7c0.1,0.7-0.1,2,0.5,2.5C367,265.2,369,265.5,369.7,265z"/>
				<path class="st24" d="M338.8,287.5C338.7,287.5,338.7,287.5,338.8,287.5C338.7,287.5,338.7,287.5,338.8,287.5z"/>
				<path class="st19" d="M345.9,315.9c0.2,2.5,0.6,5.1,1.4,7.5c0.7,1.8,1,3.8,1.1,5.8c0,0.8-0.1,1.7-0.1,2.5c0,1,0.1,1.9,0.3,2.9
					c0.2,0.9,0.5,1.7,0.8,2.6c0.2,0.6,0.4,1.2,0.7,1.7c0-0.6,0-1.1,0-1.7c0-0.1,0-0.2,0-0.4c-0.4-3.1-0.8-6.2-1.2-9.3
					c-0.2-1.3-0.2-2.5-0.1-3.8c-0.2-1-0.4-2.1-0.5-3.2c-0.1-1.1-0.3-2.1-0.4-3.2c0-1,0-2.6-0.4-3.5c-0.3-0.8-1.3-1.1-1.9-1.6
					C345.6,313.3,345.8,314.7,345.9,315.9z"/>
				<path class="st25" d="M365.6,271.8c-0.3-0.4-0.8-0.8-1.2-1.2c-0.4-0.4-0.9-0.8-1.3-1.3c-0.3-0.2-0.5-0.4-0.8-0.6
					c-0.3-0.2-0.9-0.3-1.1-0.6c-0.2,0.2-0.8,0.8-1.2,1.1c-0.6,0.5-1.2,0.9-1.8,1.5c-0.6,0.7-1.4,1.3-2.1,1.8c-0.9,0.7-2,1.3-3.1,1.5
					c-0.2,0.3-0.3,0.7-0.5,1c-0.2,0.3-0.4,0.6-0.7,0.9c0,0,0,0.1,0,0.1c0,0.6-0.1,1.1-0.2,1.6c-0.1,0.6-0.3,1.1-0.1,1.7
					c0.5,1.3,1.4,2.2,2.3,3.1c1.1,1.1,1.9,2.3,2.8,3.5c0.1,0.2,0.2,0.4,0.3,0.6c0.1-0.5,0.2-0.9,0.4-1.4c0.6-1.2,1.6-2.5,2.6-3.4
					c0.1-0.1,0.2-0.1,0.3-0.2c0.4-0.6,0.8-1.3,1.2-1.9c0.7-1.1,1.1-2.3,1.7-3.4c0.4-0.7,0.9-1.4,1.3-2.1c0.3-0.5,0.6-1.1,0.9-1.6
					C365.8,272.2,365.9,272.2,365.6,271.8z"/>
			</g>
		</g>
	</g>
</g>
<g id="DESIGNED_BY_FREEPIK">
</g>
</svg>
