<?xml version="1.0" encoding="utf-8"?>
<!-- Generator: Adobe Illustrator 22.0.0, SVG Export Plug-In . SVG Version: 6.00 Build 0)  -->
<svg version="1.1" id="Layer_1" xmlns="http://www.w3.org/2000/svg" xmlns:xlink="http://www.w3.org/1999/xlink" x="0px" y="0px"
	 viewBox="0 0 244.9 94.9" style="enable-background:new 0 0 244.9 94.9;" xml:space="preserve">
<style type="text/css">
	.st0{fill:#FFFFFF;}
</style>
<g>
	<g>
		<g>
			<path class="st0" d="M40,69.5c0,3.3-0.4,6.4-1.2,9.1c-0.8,2.7-1.9,5-3.4,7c-1.5,1.9-3.3,3.4-5.4,4.5c-2.1,1-4.4,1.6-7.1,1.6H0
				v-3.6h0.8c0.7,0,1.3-0.2,1.8-0.6c0.5-0.4,0.8-1.2,1.1-2.6c0.3-1.4,0.4-3.4,0.5-6.2c0.1-2.7,0.1-6.5,0.1-11.2c0-6.2,0-12-0.1-17.6
				C4,44.2,3.9,39.3,3.8,35.1C3.7,30.8,3.6,27.5,3.5,25c-0.1-2.5-0.1-3.8-0.1-3.8c-0.2-0.5-0.6-0.8-1.1-0.9C1.7,20.1,1,20.1,0,20.1
				v-3.6h18.9c4.6,0,8.1,1.5,10.5,4.6c2.4,3,3.6,7.3,3.6,12.8c0,5.8-1.6,10.1-4.8,12.8c1.8,0.5,3.4,1.5,4.9,2.9
				c1.5,1.4,2.7,3.1,3.8,5.2c1,2,1.8,4.3,2.4,6.9C39.7,64,40,66.7,40,69.5z M14.8,20.1c-1,0-1.7,0.5-2.1,1.6
				c-0.4,1.1-0.7,2.7-0.9,4.9c-0.2,2.2-0.3,4.9-0.3,8.1c0,3.3,0,7-0.1,11.3h5.6c2.4,0,4.2-0.9,5.5-2.8c1.3-1.9,1.9-4.2,1.9-7v-5.5
				c0-3.2-0.7-5.8-2.1-7.7C21,21,19,20.1,16.5,20.1H14.8z M11.5,49.7c0.1,2,0.2,3.9,0.2,5.8c0,1.9,0,3.8,0,5.7v7.5v12.6
				c0,0.4,0,1,0.1,1.7c0.1,0.7,0.2,1.5,0.4,2.2c0.2,0.7,0.5,1.3,0.9,1.9c0.4,0.5,1,0.8,1.7,0.8h5.8c3.3,0,5.9-1.2,8-3.6
				c2-2.4,3-5.5,3-9.4v-10c0-4.6-0.9-8.3-2.8-11c-1.9-2.8-4.6-4.2-8.2-4.2H11.5z"/>
			<path class="st0" d="M59.2,76.5H43.5v-3.6h1.3c0.7,0,1.2-0.3,1.6-0.8c0.4-0.5,0.7-1.6,0.9-3.1c0.2-1.6,0.3-3.9,0.4-6.9
				c0.1-3,0.1-7,0.1-11.9c0-2.8-0.2-4.9-0.7-6.5c-0.5-1.5-1.6-2.4-3.6-2.6v-3.7h12.2c0,2.9,0,5.6-0.1,8.1c-0.1,2.5-0.1,4.6-0.2,6.5
				c-0.1,1.8-0.1,3.2-0.2,4.3c-0.1,1-0.1,1.6-0.1,1.7c0,3,0,5.5,0.1,7.4c0.1,1.9,0.3,3.5,0.6,4.6c0.3,1.1,0.7,1.9,1.2,2.4
				c0.5,0.5,1.2,0.7,2.1,0.7V76.5z M51.1,15.9c1.5,0,2.7,0.6,3.7,1.8c1,1.2,1.5,2.5,1.5,4.1c0,1.6-0.5,3-1.5,4.2
				c-1,1.2-2.2,1.8-3.7,1.8c-1.5,0-2.8-0.6-3.8-1.8c-1-1.2-1.5-2.6-1.5-4.2c0-1.5,0.5-2.9,1.5-4.1C48.3,16.5,49.6,15.9,51.1,15.9z"
				/>
			<path class="st0" d="M96,39.5c0,1.3-0.3,2.4-1,3.4c-0.6,1-1.6,1.4-2.9,1.4c-0.6,0-1.2-0.1-1.7-0.4c-0.5-0.3-1-0.6-1.4-0.9
				c-0.4-0.3-0.8-0.6-1.1-0.9c-0.3-0.3-0.5-0.4-0.6-0.4c-0.3,0-0.7,0.1-1.2,0.4c1.2,1.1,2.1,2.5,2.7,4.2c0.6,1.7,0.9,3.3,0.9,4.9
				c0,2.1-0.2,4-0.7,5.9c-0.5,1.8-1.1,3.4-2.1,4.8c-0.9,1.4-2.1,2.5-3.5,3.4c-1.4,0.9-3.1,1.5-5,1.7c2.3,2.7,4.2,6.8,5.7,12.4
				c-2.7-2.2-5.9-3.3-9.8-3.3c-4.4,0-6.5,2.4-6.5,7.2c0,2.9,0.9,5.1,2.8,6.6c1.9,1.5,4.2,2.3,7.1,2.3c2.8,0,5.3-0.8,7.4-2.5
				c2.1-1.7,3.4-3.9,4-6.6l1.7,0.9c-0.6,3.4-2.1,6.1-4.5,8c-2.4,2-5.4,2.9-8.9,2.9c-2.7,0-5.1-0.3-7.3-0.8c-2.2-0.6-4.1-1.4-5.7-2.5
				c-1.6-1.1-2.8-2.4-3.7-4c-0.9-1.6-1.3-3.4-1.3-5.3c0-7.5,3.3-11.2,10-11.2c0.9,0,1.9,0.1,3,0.3c1.1,0.2,2.1,0.5,3.1,0.8
				c1,0.3,1.8,0.7,2.6,1.1c0.8,0.4,1.3,0.9,1.7,1.3c-0.2-1.2-0.7-2.4-1.5-3.6c-0.8-1.2-2.1-2-3.8-2.5c-4.7-1.3-8-3.4-9.8-6.4
				c-1.8-2.9-2.8-6.7-2.8-11.3c0-4.4,1.2-7.9,3.7-10.5c2.5-2.6,5.9-3.9,10.2-3.9c1.5,0,3,0.2,4.4,0.7c1.4,0.5,2.7,1.3,3.7,2.5
				c0.9-3.6,3.4-5.3,7.5-5.3C94.5,34.3,96,36.1,96,39.5z M81.3,47c0-1.7-0.5-3.3-1.5-4.7c-1-1.4-2.3-2.2-4-2.2c-1.7,0-3,0.7-4,2.2
				c-1,1.4-1.5,3-1.5,4.7v9.6c0,1.9,0.5,3.6,1.6,4.9c1,1.4,2.3,2,3.9,2c1.6,0,2.9-0.7,3.9-2c1-1.4,1.6-3,1.6-4.9V47z"/>
		</g>
		<g>
			<path class="st0" d="M144.1,94.7h-19.9v-4.6h1.3c2.4,0,3.6-0.7,3.6-2c0-0.9-0.2-2.5-0.5-4.7c-0.4-2.2-0.7-4.7-1.2-7.4h-21.8
				L104,86.8c-0.1,0.2-0.1,0.4-0.1,0.7c0,0.3,0,0.5,0,0.7c0,0.9,0.4,1.4,1.2,1.6c0.8,0.2,2,0.3,3.6,0.3v4.6H94.9v-4.6h1.3
				c1.4,0,2.5-1,3.3-3.1c3-15.1,5.8-29.9,8.5-44.2c2.6-14.3,5.1-28.6,7.5-42.8h7.4c1.3,10.5,3.2,21.9,5.6,34.3
				c2.5,12.4,5.3,26.2,8.5,41.3c0.3,1.3,0.6,2.9,1,4.8c0.4,1.9,0.9,4.1,1.7,6.6c0.4,1.5,0.8,2.4,1.4,2.7c0.6,0.3,1.6,0.4,3.1,0.4
				V94.7z M126.7,71.4L117,14.7c-0.1,0.6-0.5,2.4-1,5.2c-0.5,2.8-1.2,6.2-1.9,10.1c-0.7,3.9-1.6,8.1-2.4,12.5
				c-0.9,4.5-1.7,8.7-2.4,12.7c-0.7,4-1.4,7.5-1.9,10.5c-0.5,3-0.9,4.9-1,5.8H126.7z"/>
			<path class="st0" d="M177.6,0.1c2.9,0,5.6,0.8,7.9,2.5c2.4,1.6,4.4,3.9,6,6.8c1.7,2.9,3,6.4,3.9,10.4c0.9,4,1.3,8.3,1.3,13.1
				v25.7c0,6.3-0.5,11.8-1.5,16.4c-1,4.6-2.4,8.3-4.3,11.3c-1.9,3-4.1,5.2-6.7,6.6c-2.6,1.4-5.6,2.1-8.9,2.1h-28.9v-4.6h1.1
				c0.9,0,1.7-0.2,2.2-0.7c0.6-0.5,1-1.6,1.3-3.3c0.3-1.7,0.5-4.4,0.6-7.8c0.1-3.5,0.1-8.1,0.1-14.1c0-7.8-0.1-15.2-0.2-22.2
				c-0.1-7-0.2-13.2-0.4-18.5c-0.1-5.3-0.3-9.5-0.4-12.7c-0.1-3.1-0.2-4.7-0.2-4.8c-0.3-0.6-0.8-1-1.4-1.2c-0.7-0.1-1.6-0.2-2.8-0.2
				V0.1H177.6z M165,4.7c-1.9,0-3,1.1-3.3,3.2c0,0.1,0,0.8-0.1,2.1c0,1.2-0.1,2.8-0.2,4.8c-0.1,1.9-0.1,4.1-0.2,6.5
				c-0.1,2.4-0.1,4.8-0.2,7.3c-0.1,2.5-0.1,4.9-0.2,7.2c0,2.3-0.1,4.3-0.1,6c0,7.1,0,14.2,0.1,21.2c0.1,7,0.2,13.7,0.3,20.2
				c0,0.4,0,0.9,0.1,1.8c0.1,0.8,0.2,1.6,0.4,2.4c0.2,0.8,0.6,1.5,1.1,2.1c0.5,0.6,1.2,0.9,2,0.9h7.3c4.1,0,7.4-1.8,9.9-5.4
				c2.6-3.6,3.9-9.5,3.9-17.8V32.4c0-5-0.3-9.3-0.9-12.8c-0.6-3.5-1.5-6.4-2.7-8.6c-1.2-2.2-2.6-3.8-4.3-4.8c-1.7-1-3.7-1.5-5.9-1.5
				H165z"/>
		</g>
		<g>
			<path class="st0" d="M220.8,54.3c0,1-0.3,1.9-0.9,2.7c-0.6,0.8-1.4,1.2-2.4,1.2c-1.9,0-2.8-1.1-2.8-3.4c0-1,0.1-1.7,0.4-2.2
				c0.2-0.5,0.8-1,1.6-1.3c-0.9-1-2.3-1.5-4.2-1.5c-2.3,0-4,0.8-5.2,2.5c-1.1,1.7-1.7,4-1.7,6.8v25.6c0,2.4,0.6,4.3,1.9,5.8
				c1.2,1.4,2.9,2.2,5,2.2c3.2,0,5.2-1.3,6-3.8h1.7c-1.4,4-4,6.1-7.7,6.1c-2.1,0-3.8-0.3-5.4-1c-1.5-0.7-2.8-1.6-3.8-2.9
				c-1-1.2-1.7-2.7-2.2-4.3c-0.5-1.7-0.7-3.5-0.7-5.4V63.2c0-2.2,0.2-4.3,0.7-6.2c0.5-1.9,1.2-3.6,2.1-5c1-1.4,2.2-2.5,3.7-3.3
				c1.5-0.8,3.3-1.2,5.5-1.2c1.3,0,2.5,0.2,3.5,0.5c1,0.3,1.9,0.8,2.7,1.5c0.7,0.6,1.3,1.4,1.7,2.2
				C220.6,52.4,220.8,53.3,220.8,54.3z"/>
			<path class="st0" d="M228.4,68.9c1.2,0,2.3,0.3,3.3,0.9c1,0.6,2,1.4,2.7,2.4c0.8,1,1.4,2.1,1.9,3.4c0.5,1.3,0.7,2.6,0.7,4v3.6
				c0,1.4-0.2,2.7-0.7,4c-0.5,1.3-1.1,2.4-1.9,3.4c-0.8,1-1.7,1.8-2.7,2.4c-1,0.6-2.2,0.9-3.3,0.9c-1.3,0-2.4-0.3-3.4-0.9
				c-1-0.6-1.9-1.4-2.7-2.4c-0.8-1-1.4-2.1-1.8-3.4c-0.4-1.3-0.7-2.6-0.7-4.1v-3.6c0-1.4,0.2-2.7,0.7-4.1c0.4-1.3,1-2.4,1.8-3.4
				c0.8-1,1.7-1.8,2.7-2.4C226,69.2,227.2,68.9,228.4,68.9z M228.5,71.2c-0.5,0-1,0.1-1.4,0.4c-0.4,0.2-0.8,0.6-1.1,1
				c-0.3,0.4-0.5,0.9-0.7,1.4c-0.2,0.5-0.3,1-0.3,1.5v12.1c0,1.2,0.3,2.1,1,3c0.7,0.8,1.5,1.3,2.4,1.3c0.4,0,0.9-0.1,1.3-0.4
				c0.4-0.2,0.8-0.6,1.1-0.9c0.3-0.4,0.5-0.8,0.7-1.4c0.2-0.5,0.3-1,0.3-1.6V75.4c0-0.5-0.1-1-0.2-1.5c-0.2-0.5-0.4-1-0.7-1.4
				c-0.3-0.4-0.6-0.7-1.1-1C229.4,71.3,229,71.2,228.5,71.2z"/>
			<path class="st0" d="M244.9,89.9c0,1-0.3,1.8-0.9,2.6c-0.6,0.7-1.4,1.1-2.3,1.1c-0.9,0-1.7-0.4-2.4-1.1c-0.6-0.7-0.9-1.6-0.9-2.6
				c0-0.9,0.3-1.8,0.9-2.5c0.6-0.7,1.4-1.1,2.4-1.1c0.9,0,1.7,0.4,2.3,1.1C244.6,88.1,244.9,89,244.9,89.9z"/>
		</g>
	</g>
</g>
</svg>
