<?xml version="1.0" encoding="utf-8"?>
<!-- Generator: Adobe Illustrator 23.0.0, SVG Export Plug-In . SVG Version: 6.00 Build 0)  -->
<svg version="1.1" xmlns="http://www.w3.org/2000/svg" xmlns:xlink="http://www.w3.org/1999/xlink" x="0px" y="0px"
	 viewBox="0 0 462.4 462.4" style="enable-background:new 0 0 462.4 462.4;" xml:space="preserve">
<style type="text/css">
	._x005B_Por_x0020_defecto_x005D_{fill:#FFFFFF;stroke:#000000;stroke-miterlimit:10;}
	.Sombra_x0020_paralela{fill:none;}
	.Resplandor_x0020_externo_x0020_5_x0020_pt_x002E_{fill:none;}
	.Neón_x0020_azul{fill:none;stroke:#8AACDA;stroke-width:7;stroke-linecap:round;stroke-linejoin:round;}
	.Resalte_x0020_cromado{fill:url(#SVGID_1_);stroke:#FFFFFF;stroke-width:0.3629;stroke-miterlimit:1;}
	.A_x0020_todo_x0020_ritmo_GS{fill:#FFDD00;}
	.Alyssa_GS{fill:#A6D0E4;}
	.st0{opacity:0.8;clip-path:url(#SVGID_3_);}
	.st1{fill:#BECBFC;}
	.st2{clip-path:url(#SVGID_3_);}
	.st3{fill:#4375FA;}
	.st4{fill:#819FDE;}
	.st5{opacity:0.8;fill:#BECBFC;}
	.st6{opacity:0.4;clip-path:url(#XMLID_17_);fill:#507CC7;}
	.st7{opacity:0.5;clip-path:url(#XMLID_17_);fill:#4375F1;}
	.st8{opacity:0.31;clip-path:url(#XMLID_18_);fill:#E2B187;}
	.st9{fill:#E2B187;}
	.st10{opacity:0.28;clip-path:url(#XMLID_19_);fill:#AF703F;}
	.st11{opacity:0.31;clip-path:url(#XMLID_20_);fill:#A172AE;}
	.st12{fill:#EDBA8F;}
	.st13{opacity:0.28;clip-path:url(#XMLID_21_);fill:#AF703F;}
	.st14{fill:#4375F1;}
	.st15{fill:#43464A;}
	.st16{fill:#C22373;}
	.st17{fill:#FFFFFF;}
	.st18{fill:#E79D90;}
	.st19{fill:#CBCFD6;}
	.st20{opacity:0.61;clip-path:url(#XMLID_22_);fill:#838BC0;}
	.st21{fill:#838BC0;}
	.st22{clip-path:url(#SVGID_5_);fill:#CDBDF9;}
	.st23{clip-path:url(#SVGID_5_);}
	.st24{fill:#6DAAA3;}
	.st25{opacity:0.45;clip-path:url(#XMLID_23_);fill:#E7B59D;}
	.st26{fill:#2E5271;}
	.st27{fill:#E7B59D;}
	.st28{fill:#61002F;}
	.st29{fill:#EFFDFF;}
	.st30{fill:#E19F9D;}
	.st31{fill:#9A6253;}
	.st32{opacity:0.22;clip-path:url(#XMLID_24_);fill:#606060;}
	.st33{opacity:0.22;clip-path:url(#XMLID_27_);fill:#E6B851;}
	.st34{clip-path:url(#SVGID_7_);fill:#7CBFB9;}
	.st35{clip-path:url(#SVGID_7_);}
	.st36{opacity:0.45;clip-path:url(#XMLID_28_);fill:#E7B59D;}
	.st37{fill:#F9CA45;}
	.st38{opacity:0.52;clip-path:url(#XMLID_29_);fill:#A072AE;}
	.st39{opacity:0.45;clip-path:url(#XMLID_30_);fill:#E7B59D;}
	.st40{opacity:0.45;clip-path:url(#XMLID_31_);fill:#E7B59D;}
	.st41{fill:#A072AE;}
	.st42{fill:#E2A29D;}
</style>
<linearGradient id="SVGID_1_" gradientUnits="userSpaceOnUse" x1="-16.5211" y1="-16.5211" x2="-16.5211" y2="-17.5211">
	<stop  offset="0" style="stop-color:#656565"/>
	<stop  offset="0.618" style="stop-color:#1B1B1B"/>
	<stop  offset="0.6292" style="stop-color:#545454"/>
	<stop  offset="0.9831" style="stop-color:#3E3E3E"/>
</linearGradient>
<g id="BACKGROUND">
</g>
<g id="OBJECTS">
	<g>
		<defs>
			<circle id="SVGID_2_" cx="38.3" cy="195.4" r="8"/>
		</defs>
		<clipPath id="SVGID_3_">
			<use xlink:href="#SVGID_2_"  style="overflow:visible;"/>
		</clipPath>
		<g class="st0">
			<circle class="st1" cx="38.3" cy="195.4" r="10.8"/>
		</g>
		<g class="st2">
			<g>
				<path class="st3" d="M38.3,206.1C38.3,206.1,38.2,206.1,38.3,206.1C38.2,206.1,38.2,206.1,38.3,206.1L38.3,206.1z"/>
			</g>
			<g>
				<path class="st4" d="M44.5,202.9c-0.1-2-1.3-3.4-2.2-3.3c-0.9,0.1-2.9-0.2-2.9-0.2c-0.1-0.3-0.2-0.7-0.1-1.2
					c0.9-0.6,1.6-1.9,1.8-3.5c0.2,0,0.4-0.3,0.5-0.6c0.1-0.4,0-0.8-0.2-0.9c-0.1,0-0.2,0-0.3,0.1c0-2.2-0.1-3.9-2.9-3.9
					c-2.7,0-2.9,1.7-2.9,3.8c-0.1-0.1-0.2-0.1-0.2-0.1c-0.3,0-0.4,0.4-0.4,0.8c0.1,0.4,0.3,0.8,0.6,0.7c0,0,0.1,0,0.1,0
					c0.1,1.6,0.8,2.9,1.7,3.5c0,0.4,0,0.9-0.1,1.2c0,0-2,0.3-2.9,0.2c-0.9-0.1-2.1,1.2-2.2,3.3c-0.1,1.9,5.8,3.1,6.3,3.2
					C38.8,206,44.6,204.8,44.5,202.9z"/>
			</g>
		</g>
	</g>
	<path class="st5" d="M379.1,229.2c0-77.3-62.7-140-140-140s-140,62.7-140,140c0,33.7,11.9,64.7,31.8,88.9h216.3
		C367.1,293.9,379.1,263,379.1,229.2z"/>
	<g>
		<g>
			<defs>
				<path id="XMLID_12_" d="M341.7,258.3c-8.1-19.8-17.3-23.5-17.3-23.5s0.3-0.4,0.8-1.1c3.8,1.6,7,4.6,9.1,8c0.2,0.3,0.6,0,0.4-0.2
					c-2.1-3.5-5.4-6.5-9.2-8.2c0.2-0.3,0.4-0.6,0.7-1c2.9,0.6,5.6,1.7,8.2,3c0.3,0.1,0.5-0.3,0.2-0.4c-2.6-1.3-5.4-2.4-8.2-3
					c5-8.2,15.8-31-15.8-33.6c2-2.1,4.7-3.5,7.4-4.5c0.3-0.1,0.2-0.6-0.1-0.5c-2.7,1-5.4,2.3-7.4,4.4c0.3-1.4,0.8-2.8,1.3-4.1
					c0.1-0.3-0.4-0.4-0.5-0.1c-0.6,1.4-1.1,2.9-1.4,4.5c-0.5-0.5-1.6-1.5-3.2-2.8c-0.9-1.3-1.8-2.5-2.9-3.5
					c-5.4-5.5-12.9-7.4-20.5-6.7c-0.1,0-0.2,0.1-0.2,0.2c-4.5,0-9.2,1.3-13.4,4.9c-5.3,4.4-6,11.2-4.7,17.7c0.1,1,0.3,2,0.4,2.7
					c0.8,4.9,2.9,9.5,5.5,13.6c-3.2,0.5-9,2.5-7.8,9.4c1.7,9.5,9.5,21.4,0.2,22.7c-9.2,1.2-13.7,22.4,19,42.2
					c32.7,19.8,63.9,1.1,51-14.6C333.2,283.8,349.8,278.1,341.7,258.3z M266.1,212.1c1.7,4.8,4.3,9.2,6.7,11.8c0,0-0.6,0-1.5,0.1
					C269,220.3,267.1,216.3,266.1,212.1z M303.5,192.2c0.6,0.6,1.1,1.3,1.7,1.9c-4.6-3.4-11.8-7.9-19.6-8.8
					C292.3,185.2,298.8,187.2,303.5,192.2z"/>
			</defs>
			<use xlink:href="#XMLID_12_"  style="overflow:visible;fill:#4375F1;"/>
			<clipPath id="XMLID_17_">
				<use xlink:href="#XMLID_12_"  style="overflow:visible;"/>
			</clipPath>
			<path class="st6" d="M310.3,224.9c0,0-3.6,1.8-4.4,3.5c-0.8,1.6,0.9,11.9,0.9,11.9l20.8,16.5c0,0,5.6,42.9-8.2,54.4
				c-13.9,11.5-65-40.6-65-40.6l14.5-18.5l13.5-4.3l2.3-9.9c0,0-14.5-6.9-2.8-30.5c11.7-23.6,0,0,0,0L310.3,224.9"/>
			<path class="st7" d="M284,203.5l-7.3-1.3c0,0,2.6,4,9.9,2.3C293.9,202.9,284,203.5,284,203.5"/>
		</g>
		<g>
			<defs>
				<path id="XMLID_11_" d="M283.4,253l-3-5.3c0,0-8.6,0.9-11.7,4.5c-3.1,3.7-23,40-23,40s-8.6,4.1-15.7,7.6c1.8,1.1,3.8,3.1,4.9,7
					c6.2-2.2,14.3-5.7,17.3-7.8c0,0,19.2-14.7,21.3-24.6C275.6,264.6,283.4,253,283.4,253z"/>
			</defs>
			<use xlink:href="#XMLID_11_"  style="overflow:visible;fill:#E2B187;"/>
			<clipPath id="XMLID_18_">
				<use xlink:href="#XMLID_11_"  style="overflow:visible;"/>
			</clipPath>
			<path class="st8" d="M264.6,289.7c0,0-7.9-6.3,4.3-22.4c11.1-14.7,9.2,4.6,9.2,4.6l-8.1,17.7L264.6,289.7z"/>
		</g>
		<path class="st9" d="M230,299.8c-8.8,4.4-18.9,9.3-19.5,9.6c-1,0.5-9.4-2.1-10.4-1.6c-1,0.5-6.8,3.7-8.9,4.2
			c-2.1,0.5,5.2,1.6,8.3,0s4.2,1.6,6.8,2.1c2.6,0.5,4.2,1,5.7,0c0,0,12-3.3,22.9-7.3C233.8,302.9,231.7,300.9,230,299.8z"/>
		<g>
			<defs>
				<path id="XMLID_10_" d="M288.7,234.8c0,0,1.6,5.7-5.2,12.5l-3.7,6.8l7.8,8.9l7.8,2.6l16.7-19.3l-7.3-4.7l-2.1-21.4L288.7,234.8z
					"/>
			</defs>
			<use xlink:href="#XMLID_10_"  style="overflow:visible;fill:#EDBA8F;"/>
			<clipPath id="XMLID_19_">
				<use xlink:href="#XMLID_10_"  style="overflow:visible;"/>
			</clipPath>
			<path class="st10" d="M287.7,238.5c0,0,14.5-0.7,14.8-9.6C302.8,220,286,234.9,287.7,238.5z"/>
		</g>
		<g>
			<defs>
				<path id="XMLID_9_" d="M286.2,244.2c0,0,3.1,8.9,18.8-2.6c0,0,9.8,5.2,12.4,6.8c5.9,3.6,7.2,3,8.8,8.8l-13.9,46l4.7,18.3
					l-50.1,0.1l4.4-20.3c0.5-5.1-1.5-10-5.1-13.5c-7.2-6.9,2.4-18.4,10-39.3C276.7,246.7,286.2,244.2,286.2,244.2z"/>
			</defs>
			<use xlink:href="#XMLID_9_"  style="overflow:visible;fill:#DC466F;"/>
			<clipPath id="XMLID_20_">
				<use xlink:href="#XMLID_9_"  style="overflow:visible;"/>
			</clipPath>
			<path class="st11" d="M311.7,265.6c0,0-8.9,11.5-7.9,33.7c0,0-27.5,9.5-39.1,8.9c-11.7-0.6,1.5,8,1.5,8s33,2.5,48.2-8
				S311.7,265.6,311.7,265.6"/>
		</g>
		<path class="st12" d="M267.2,309.2l-12.9-5.5l-5.4-4c-0.3-0.3-0.8-0.4-1.2-0.3l-6.2,0.6c-0.3,0-0.5,0.1-0.7,0.3
			c-1.1,0.8-4.6,3.6-3.7,3.6c1,0,3.1-0.5,4.7-1.6c0,0,4.7,0,5.2-0.5c0,0,2.1,2.1,3.1,2.6c1,0.5,0.5,0,0.5,0l-7,2.1
			c-0.4,0.1-0.7,0.3-0.9,0.6c-0.9,1.3-3.3,4.7-4.1,5.6c0,0,2.6,1,4.7-2.1c2.1-3.1,7.8-3.1,8.3-2.6c0,0-7.3,4.2-9.4,8.3
			c0,0,1,2.6,2.6,0.5c3.1-4,7.3-5.2,8.9-5.7l-3,3.4c-0.4,0.4-0.3,1.1,0.1,1.4l2.9,2.5c0,0,0.5-2.1-0.5-3.1l2.6-2.6
			c0,0,2.9,5.7,11.4,2.3V309.2z"/>
		<path class="st12" d="M290,305.1c-11.1,2.3-23.7,4.2-23.7,4.2l0.2,5.6c11.4,0.2,20.6-0.5,27.8-1.5
			C294.2,309.1,292,306.5,290,305.1z"/>
		<path class="st12" d="M324,252.4c-6.7-2.9-12.4,13.2-12.4,13.2c-7.3,15.1-5.5,35-5.5,35c-2.4,1.4-8.9,3.1-16,4.5
			c2.1,1.5,4.2,4,4.4,8.3c15-2.2,21.5-6,21.5-6C322.1,297.9,330.7,255.3,324,252.4z"/>
		<g>
			<defs>
				<path id="XMLID_8_" d="M291.6,195.3c0,0-14.5,10.9-12.6,27.6c0.9,7.7,2.6,10,5.7,12.3c3.6,2.6,15.7,1,18.9-5.1l1.7-4.9
					c0,0,3,2.7,5.9-1.3c3-3.9,2.3-10.2-2-7.3l2.7-7.9l-2.6-6.9L291.6,195.3z"/>
			</defs>
			<use xlink:href="#XMLID_8_"  style="overflow:visible;fill:#EDBA8F;"/>
			<clipPath id="XMLID_21_">
				<use xlink:href="#XMLID_8_"  style="overflow:visible;"/>
			</clipPath>
			<path class="st13" d="M281.2,204.3c0,0,5.5,2.2,10.4-7.3c0,0,1.3,15.5,11.5,15.2l-3-2.6c0,0,1.2,10.9,8,6.9
				c6.8-4-14-24.7-14-24.7l-13.9,4.9L281.2,204.3"/>
		</g>
		<path class="st14" d="M311.7,202.6l-10.6-5.3l-14.8-3.6c0,0-18.1,6.3-9.9,9.9c7.2,3.2,13.5-4,14.9-5.9c-0.1,2.2,0.1,5.8,2.1,8.8
			c1.8,2.6,4.6,4.3,8.4,5.2c-0.2,5.1,6,6,6,6l2.6-2l5.3-1.6L311.7,202.6z M293.7,206.3c-1.2-1.8-1.8-3.8-2-5.5
			c1.6,6.1,10.1,10.4,10.1,10.4c0,0.1,0,0.1,0,0.2C298.2,210.5,295.4,208.8,293.7,206.3z"/>
		<path class="st15" d="M301.8,191.8c0,0,4-1.8,7.9,6.1c0,0,4.9,11.5,0,22.1h-1C308.8,220,310.8,200.5,301.8,191.8z"/>
		<circle class="st16" cx="309.8" cy="221" r="4.6"/>
		<path class="st15" d="M293.2,217.2c-0.3,1.1-0.8,1.8-1.1,1.8s-0.4-1-0.2-2.1c0.3-1.1,0.8-1.8,1.1-1.8
			C293.4,215.2,293.5,216.2,293.2,217.2z"/>
		<path class="st15" d="M284.4,215.5c-0.1,1.1-0.5,1.9-0.8,1.9c-0.4,0-0.6-0.9-0.5-2c0.1-1.1,0.5-1.9,0.8-1.9
			C284.2,213.5,284.4,214.4,284.4,215.5z"/>
		<path class="st17" d="M283.4,228.9c0,0,6.1,1.7,10.9-3c0,0,0,5.7-7.8,6.5C286.4,232.4,285.1,232.4,283.4,228.9z"/>
		<path class="st14" d="M282.5,210.3c0.1-0.3,0.2-0.6,0.4-0.8c0.2-0.2,0.5-0.5,0.8-0.6c0.3-0.1,0.7-0.2,1-0.2c0.2,0,0.3,0.1,0.5,0.2
			c0.1,0.1,0.3,0.2,0.4,0.3l0,0.1c-0.2,0-0.3,0.1-0.5,0.1c-0.1,0-0.3,0-0.4,0c-0.1,0-0.3,0-0.4,0c-0.1,0-0.3,0-0.4,0
			c-0.3,0-0.5,0.2-0.7,0.3C282.9,209.9,282.7,210.1,282.5,210.3L282.5,210.3z"/>
		<path class="st14" d="M295.8,210.3c-0.1-0.3-0.2-0.6-0.4-0.8c-0.2-0.2-0.5-0.5-0.8-0.6c-0.3-0.1-0.7-0.2-1-0.2
			c-0.2,0-0.3,0.1-0.5,0.2c-0.1,0.1-0.3,0.2-0.4,0.3l0,0.1c0.2,0,0.3,0.1,0.5,0.1c0.1,0,0.3,0,0.4,0c0.1,0,0.3,0,0.4,0
			c0.1,0,0.3,0,0.4,0c0.3,0,0.5,0.2,0.7,0.3C295.4,209.9,295.6,210.1,295.8,210.3L295.8,210.3z"/>
		<path class="st18" d="M286.1,224.9c0,0-4.5-1.7-3.5-2.4c0.8-0.6,2.7-3.5,3.5-5.2c0.1-0.2,0.4-0.2,0.4,0.1
			C286.7,219.1,286.8,222.6,286.1,224.9z"/>
		<g>
			<circle class="st15" cx="309.8" cy="221" r="2"/>
			<g>
				<path class="st15" d="M305.5,230.6h-14.9v-0.8h14.5c0.6-1.2,3.7-7.1,4-7.8l0.6,0.3c-0.3,0.8-4,7.7-4.1,8L305.5,230.6z"/>
			</g>
			<ellipse class="st15" cx="290" cy="230.1" rx="2" ry="0.8"/>
		</g>
		<path class="st19" d="M353,322.7H125.7c-1.6,0-3-1.3-3-3l0,0c0-1.6,1.3-3,3-3H353c1.6,0,3,1.3,3,3l0,0
			C356,321.3,354.6,322.7,353,322.7z"/>
		<g>
			<defs>
				<path id="XMLID_7_" d="M140.4,244.5l1.9,56.5c0.1,3.5,3,6.3,6.5,6.3h81.3c3.7,0,6.6-3.1,6.5-6.7l-1.9-56.5
					c-0.1-3.5-3-6.3-6.5-6.3h-81.3C143.2,237.7,140.3,240.8,140.4,244.5z"/>
			</defs>
			<use xlink:href="#XMLID_7_"  style="overflow:visible;fill:#838BC0;"/>
			<clipPath id="XMLID_22_">
				<use xlink:href="#XMLID_7_"  style="overflow:visible;"/>
			</clipPath>
			<path class="st20" d="M194.6,281.4c0,0-6.3,24.4,0,31.3c6.3,6.9-34.6-2.6-34.6-2.6s5.6-20.1,21.1-28.7c15.5-8.6,0,0,0,0l7.3,4.6
				L194.6,281.4"/>
		</g>
		<path class="st21" d="M181.1,281.4h13.5c0,0-20.5,33-2.1,35.3h-28.2C164.3,316.7,158.6,303.5,181.1,281.4z"/>
		<path class="st17" d="M185.7,258.4c0-0.6,0.1-1.2,0.3-1.8c-0.1,0-0.2,0-0.3,0c-3.8,0-7,3.1-7,7c0,3.8,3.1,7,7,7
			c3.6,0,6.6-2.8,6.9-6.3c-0.3,0.1-0.7,0.1-1,0.1C188.4,264.4,185.7,261.7,185.7,258.4z"/>
	</g>
	<g>
		<defs>
			
				<ellipse id="SVGID_4_" transform="matrix(3.076477e-02 -0.9995 0.9995 3.076477e-02 -29.5324 266.9102)" cx="122.9" cy="148.7" rx="68.7" ry="68.7"/>
		</defs>
		<use xlink:href="#SVGID_4_"  style="overflow:visible;fill:#819FDE;"/>
		<clipPath id="SVGID_5_">
			<use xlink:href="#SVGID_4_"  style="overflow:visible;"/>
		</clipPath>
		
			<ellipse transform="matrix(0.7071 -0.7071 0.7071 0.7071 -69.1498 130.4231)" class="st22" cx="122.9" cy="148.7" rx="83.6" ry="83.6"/>
		<g class="st23">
			<path class="st24" d="M115.7,154.5c0,0-17.9,0-24.2,3.1c-6.3,3.1-9.4,11.2-8.1,16.6c1.3,5.4-5.8,18.8,1.8,26
				c6.8,6.4,12.2,5.6,14.6,4.8c0.3-0.1,0.5-0.2,0.7-0.3c1.8-0.9,0,23.7,0,23.7s45.2,2.7,47.9,0c2.7-2.7,3.6-59.1-2.7-65.4
				c-6.3-6.3-23.7-8.5-23.7-8.5H115.7z"/>
			<g>
				<defs>
					<path id="XMLID_3_" d="M114.1,138.6l-0.7,15.9l14.7,9.7c0.6,0.4,1.3,0,1.5-0.6l2.4-12.9l-14.3-17.5L114.1,138.6z"/>
				</defs>
				<use xlink:href="#XMLID_3_"  style="overflow:visible;fill:#E7B59D;"/>
				<clipPath id="XMLID_23_">
					<use xlink:href="#XMLID_3_"  style="overflow:visible;"/>
				</clipPath>
				<path class="st25" d="M113,148.7c0,0,2.2,1.8,4,0c0,0,10.3,17.5,19.3,14.3c9-3.1-9.4-17.5-9.4-17.5l-9.4-7.1l-5.4,4L113,148.7z"
					/>
			</g>
			<path class="st26" d="M115,132.8c7.2-0.4,8.1-12.1,8.1-13.4s11.2-4.9,13.9-3.6c2.6,1.3,3.2,9.5,3.4,10.1
				c3.9-2.4,7.4-10.9,5.6-15.9c-2.2-6.3-4.9-4-6.7-2.7c-1.8,1.3-1.8-4.9-11.2-10.3c-9.4-5.4,1.3,6.3-9.9,5.4
				c-11.2-0.9-12.1,10.3-12.1,10.3c-5.8,0-9.9,4.9-5.4,9.9c4.5,4.9,0.9,5.4,0,9.9c-0.5,2.3,4.1,3.3,8.5,3.7
				C110.5,134.4,112.3,133,115,132.8z"/>
			<path class="st27" d="M126.7,139.5c8.2,3.6,15.9-0.6,18.6-2.4c-2-3.2-3.7-6.3-3.9-9.3c-0.1-1.4-0.3-2.8-0.6-4c0,0,0.1,0,0.1-0.1
				c-0.1-0.6-1.5-6.7-4-8c-2.7-1.3-13.9,2.2-13.9,3.6c0,1.1-0.6,8.6-4.4,11.9C120.1,134.5,122.5,137.7,126.7,139.5z"/>
			<path class="st26" d="M145.3,137.1c-2.7,1.8-10.4,6-18.6,2.4c-4.2-1.8-6.6-5-8-8.2c-1,0.8-2.2,1.4-3.7,1.5
				c-2.7,0.2-4.5,1.6-5.8,3.3c4.1,0.4,8.1,0.3,8.1,0.3c2.2,25.5,29.1,23.7,33.6,17C153.8,149,149.1,143.1,145.3,137.1z"/>
			
				<rect x="100.9" y="130.6" transform="matrix(-0.9985 -5.546491e-02 5.546491e-02 -0.9985 214.7464 277.6856)" class="st28" width="20.6" height="10.6"/>
			<path class="st27" d="M99.8,148.9c0,0,0-13.9,2.2-15.7c2.2-1.8,7.6-8.5,10.3-6.7c2.7,1.8,1.3,2.7,3.1,3.6
				c1.8,0.9,0.9,2.2,2.2,3.1c1.3,0.9,3.1,4.5,2.2,4.5s-4,0-4,0s-6.3,11.6-9,11.2l-0.4,1.8h-6.7V148.9z"/>
			<path class="st27" d="M106.3,150.5c0,0,0.9,44.3-3.1,47c-4,2.7-14.8-0.4-12.5-9.4c2.2-9,10.3-41.6,10.3-41.6L106.3,150.5z"/>
			<path class="st29" d="M126.9,142.4c0,0,7.8,2.4,11.4,1.6c0.3-0.1,0.5,0.2,0.4,0.5c-0.4,1.1-1.1,3.1-1.1,3.8
				C137.6,149.1,129.6,147.8,126.9,142.4z"/>
			<path class="st30" d="M135.7,129c0,0,10.5,6.3,7.6,9c-2.8,2.7-5,2.3-5,2.3S134.6,130.6,135.7,129z"/>
			<path class="st31" d="M126.9,131.2c0-0.6,0.1-1.1,0.5-1.6c0.3-0.5,1-0.9,1.6-0.9c0.7-0.1,1.2,0.2,1.7,0.5
				c0.2,0.2,0.5,0.3,0.7,0.5c0.2,0.2,0.4,0.4,0.5,0.6c-0.3-0.1-0.5-0.2-0.8-0.3c-0.2-0.1-0.5-0.2-0.7-0.3c-0.5-0.1-0.9-0.3-1.3-0.2
				c-0.4,0-0.8,0.2-1.1,0.5C127.5,130.4,127.2,130.8,126.9,131.2z"/>
			<path class="st31" d="M141.4,126.9c-0.2-0.4-0.5-0.8-0.9-1c-0.4-0.2-1-0.3-1.5-0.1c-0.5,0.2-0.8,0.6-1.1,0.9
				c-0.1,0.2-0.2,0.4-0.3,0.6c-0.1,0.2-0.1,0.4-0.2,0.6c0.2-0.1,0.3-0.3,0.5-0.5c0.1-0.2,0.3-0.3,0.4-0.4c0.3-0.3,0.6-0.5,0.9-0.6
				c0.3-0.1,0.6-0.1,1,0C140.7,126.5,141.1,126.7,141.4,126.9z"/>
			<g>
				<path class="st26" d="M124.6,127.7c0.1-0.7,0.4-1.5,0.8-2c1.1-1.6,3-1.8,4.8-1.5c0.8,0.2,1-1.2,0.2-1.3
					c-2.2-0.4-4.4-0.1-5.9,1.7c-0.7,0.8-1.2,1.9-1.3,3C123.1,128.4,124.4,128.6,124.6,127.7L124.6,127.7z"/>
			</g>
			<g>
				<path class="st26" d="M136,122.2c0.5-0.3,1.1-0.6,1.7-0.7c1.6-0.2,2.8,0.8,3.6,2c0.4,0.6,1.3,0,0.9-0.6c-1-1.5-2.4-2.7-4.3-2.5
					c-0.9,0.1-1.8,0.4-2.5,0.9C134.8,121.7,135.5,122.6,136,122.2L136,122.2z"/>
			</g>
		</g>
	</g>
	<g>
		<g>
			<defs>
				<path id="XMLID_2_" d="M277.4,79.9h122.8c2.1,0,3.9,1.7,3.9,3.9v31c0,1.3-0.6,2.5-1.7,3.2l-19.6,13.3c-1,0.7-2.3-0.3-2-1.5
					l3.9-13H277.4c-2.1,0-3.9-1.7-3.9-3.9V83.8C273.5,81.7,275.2,79.9,277.4,79.9z"/>
			</defs>
			<use xlink:href="#XMLID_2_"  style="overflow:visible;fill:#9F71AC;"/>
			<clipPath id="XMLID_24_">
				<use xlink:href="#XMLID_2_"  style="overflow:visible;"/>
			</clipPath>
			<polygon class="st32" points="378.3,120.5 382.7,116.9 395.4,116.9 379,125.9 			"/>
		</g>
		<path class="st17" d="M288.3,89.8H391c0.9,0,1.6-0.7,1.6-1.6l0,0c0-0.9-0.7-1.6-1.6-1.6H288.3c-0.9,0-1.6,0.7-1.6,1.6l0,0
			C286.7,89.1,287.4,89.8,288.3,89.8z"/>
		<path class="st17" d="M288.3,98.2H391c0.9,0,1.6-0.7,1.6-1.6l0,0c0-0.9-0.7-1.6-1.6-1.6H288.3c-0.9,0-1.6,0.7-1.6,1.6l0,0
			C286.7,97.5,287.4,98.2,288.3,98.2z"/>
		<path class="st17" d="M340.8,106.6h50.7c0.6,0,1.2-0.5,1.2-1.2v-1c0-0.6-0.5-1.2-1.2-1.2h-50.7c-0.6,0-1.2,0.5-1.2,1.2v1
			C339.6,106,340.2,106.6,340.8,106.6z"/>
	</g>
	<g>
		<defs>
			<path id="XMLID_14_" d="M226.6,386.4h25.6c0.9,0,1.7,0.8,1.7,1.7v13.5c0,0.6-0.3,1.1-0.7,1.4l-8.5,5.8c-0.4,0.3-1-0.1-0.9-0.6
				l1.7-5.6h-18.8c-0.9,0-1.7-0.8-1.7-1.7v-12.7C224.9,387.2,225.7,386.4,226.6,386.4z"/>
		</defs>
		<use xlink:href="#XMLID_14_"  style="overflow:visible;fill:#819FDE;"/>
		<clipPath id="XMLID_25_">
			<use xlink:href="#XMLID_14_"  style="overflow:visible;"/>
		</clipPath>
	</g>
	<g>
		<defs>
			<path id="XMLID_15_" d="M408.7,136.1h15.6c0.6,0,1,0.5,1,1v8.2c0,0.3-0.2,0.7-0.5,0.9l-5.2,3.5c-0.3,0.2-0.6-0.1-0.5-0.4l1-3.4
				h-11.5c-0.6,0-1-0.5-1-1v-7.7C407.6,136.6,408.1,136.1,408.7,136.1z"/>
		</defs>
		<use xlink:href="#XMLID_15_"  style="overflow:visible;fill:#819FDE;"/>
		<clipPath id="XMLID_26_">
			<use xlink:href="#XMLID_15_"  style="overflow:visible;"/>
		</clipPath>
	</g>
	<g>
		<g>
			<defs>
				<path id="XMLID_1_" d="M362.2,123.2H228.6c-2.3,0-4.2,1.9-4.2,4.2v33.7c0,1.4,0.7,2.7,1.9,3.5l21.4,14.4
					c1.1,0.8,2.5-0.3,2.2-1.6l-4.3-14.1h116.7c2.3,0,4.2-1.9,4.2-4.2v-31.7C366.4,125.1,364.5,123.2,362.2,123.2z"/>
			</defs>
			<use xlink:href="#XMLID_1_"  style="overflow:visible;fill:#E6B851;"/>
			<clipPath id="XMLID_27_">
				<use xlink:href="#XMLID_1_"  style="overflow:visible;"/>
			</clipPath>
			<polygon class="st33" points="252.4,167.3 247.6,163.4 233.8,163.4 251.6,173.3 			"/>
		</g>
		<path class="st17" d="M350.3,134H238.6c-1,0-1.8-0.8-1.8-1.8l0,0c0-1,0.8-1.8,1.8-1.8h111.7c1,0,1.8,0.8,1.8,1.8l0,0
			C352.1,133.2,351.3,134,350.3,134z"/>
		<path class="st17" d="M350.3,143.1H238.6c-1,0-1.8-0.8-1.8-1.8l0,0c0-1,0.8-1.8,1.8-1.8h111.7c1,0,1.8,0.8,1.8,1.8l0,0
			C352.1,142.3,351.3,143.1,350.3,143.1z"/>
		<path class="st17" d="M293.2,152.2H238c-0.7,0-1.3-0.6-1.3-1.3v-1.1c0-0.7,0.6-1.3,1.3-1.3h55.1c0.7,0,1.3,0.6,1.3,1.3v1.1
			C294.4,151.6,293.9,152.2,293.2,152.2z"/>
	</g>
	<g>
		<defs>
			
				<ellipse id="SVGID_6_" transform="matrix(0.7071 -0.7071 0.7071 0.7071 -148.2016 360.6548)" cx="361.2" cy="359.2" rx="57" ry="57"/>
		</defs>
		<clipPath id="SVGID_7_">
			<use xlink:href="#SVGID_6_"  style="overflow:visible;"/>
		</clipPath>
		
			<ellipse transform="matrix(0.7071 -0.7071 0.7071 0.7071 -148.2016 360.6548)" class="st34" cx="361.2" cy="359.2" rx="70.4" ry="70.4"/>
		<g class="st35">
			<g>
				<defs>
					<path id="XMLID_5_" d="M366.1,365.3c-4.3,9.9-12,18.1-17.8,10.2c-4.4-5.9-0.9-13.9,1.1-17.6c6.1-2,12.3-2.8,12.3-2.8h5.8
						c0,0,3.4,0,7.7,0.3C372.1,357.1,368.3,360.2,366.1,365.3z"/>
				</defs>
				<use xlink:href="#XMLID_5_"  style="overflow:visible;fill:#E7B59D;"/>
				<clipPath id="XMLID_28_">
					<use xlink:href="#XMLID_5_"  style="overflow:visible;"/>
				</clipPath>
				<path class="st36" d="M354.6,355.2c0,0.5-0.3,8.4-0.3,8.4l-4.8-8.1L354.6,355.2z"/>
			</g>
			<path class="st37" d="M339.7,363c2.2-2.2,5.9-3.9,9.7-5.1c-2,3.7-5.4,11.7-1.1,17.6c5.8,7.9,13.5-0.3,17.8-10.2
				c2.2-5.2,6-8.2,9.1-9.9c5.1,0.3,11.5,1,14.6,2.6c5.8,2.9,8.7,10.4,7.5,15.3c-1.2,5,5.4,17.4-1.7,24c-6.3,6-11.3,5.2-13.5,4.4
				c-0.2-0.1-0.5-0.2-0.6-0.3c-1.7-0.8,0,22,0,22s-41.9,2.5-44.3,0S333.9,368.8,339.7,363z"/>
			<g>
				<defs>
					<path id="XMLID_13_" d="M365.1,312.9c0,0-4.1-5.8-14-1.3c-9.9,4.6-22.4,27-6.9,46.8c0,0,3.3-4.8,15.3-6.1
						C371.4,351.1,365.1,312.9,365.1,312.9z"/>
				</defs>
				<use xlink:href="#XMLID_13_"  style="overflow:visible;fill:#A072AE;"/>
				<clipPath id="XMLID_29_">
					<use xlink:href="#XMLID_13_"  style="overflow:visible;"/>
				</clipPath>
				<polygon class="st38" points="367.1,310.9 356.2,315.2 363.8,309.9 				"/>
				<path class="st38" d="M342.8,329.8c0,0-10.1,25.6,7.7,26.1C368.4,356.4,342.8,329.8,342.8,329.8"/>
			</g>
			<g>
				<defs>
					<path id="XMLID_4_" d="M368.6,340.4l0.6,14.7l-13.6,9c-0.5,0.3-1.2,0-1.4-0.6l-2.2-12l13.3-16.2L368.6,340.4z"/>
				</defs>
				<use xlink:href="#XMLID_4_"  style="overflow:visible;fill:#E7B59D;"/>
				<clipPath id="XMLID_30_">
					<use xlink:href="#XMLID_4_"  style="overflow:visible;"/>
				</clipPath>
				<path class="st39" d="M369.7,349.8c0,0-2.5-2.1-4.1-3.8c0,0-4.3,12.5-17.3,10.9c-8.7-1,8.6-10.1,8.6-10.1l8.7-6.6l5,3.7
					L369.7,349.8z"/>
			</g>
			<g>
				<defs>
					<path id="XMLID_6_" d="M340.9,339.4c0.3-4.5,2.9-12.9,2.9-12.7c0.1-0.5,1.4-6.2,3.7-7.4c2.5-1.2,12.8,2.1,12.8,3.3
						c0,1,0.5,8,4.1,11c0.9,0.8,2,1.3,3.4,1.4c2.5,0.2,4.2,1.5,5.4,3.1c-3.8,0.4-7.5,0.3-7.5,0.3c-3.2,18.3-15.2,16.3-18.7,15.8
						C343.4,353.6,340.4,346.6,340.9,339.4z"/>
				</defs>
				<use xlink:href="#XMLID_6_"  style="overflow:visible;fill:#E7B59D;"/>
				<clipPath id="XMLID_31_">
					<use xlink:href="#XMLID_6_"  style="overflow:visible;"/>
				</clipPath>
				<path class="st40" d="M352.1,318c0.8,0,0.9,16.1,15.8,18.7c14.9,2.6-5.4-15.4-5.4-15.4L352.1,318z"/>
			</g>
			<path class="st29" d="M356.6,346.1c0,0-6.3,1.9-9.2,1.3c-0.2-0.1-0.4,0.2-0.3,0.4c0.3,0.9,0.9,2.5,0.9,3.1
				C347.9,351.5,354.4,350.4,356.6,346.1z"/>
			<path class="st31" d="M356.6,337c0-0.4-0.1-0.9-0.4-1.3c-0.3-0.4-0.8-0.7-1.3-0.7c-0.5,0-1,0.2-1.4,0.4c-0.2,0.1-0.4,0.3-0.5,0.4
				c-0.2,0.2-0.3,0.3-0.4,0.5c0.2-0.1,0.4-0.1,0.6-0.2c0.2-0.1,0.4-0.1,0.6-0.2c0.4-0.1,0.7-0.2,1.1-0.2c0.3,0,0.6,0.1,0.9,0.4
				C356.1,336.3,356.3,336.7,356.6,337z"/>
			<path class="st31" d="M344.8,333.6c0.1-0.3,0.4-0.6,0.7-0.8c0.3-0.2,0.8-0.2,1.2-0.1c0.4,0.1,0.7,0.5,0.9,0.8
				c0.1,0.2,0.2,0.3,0.2,0.5c0.1,0.2,0.1,0.3,0.1,0.5c-0.1-0.1-0.3-0.2-0.4-0.4c-0.1-0.1-0.2-0.2-0.4-0.3c-0.2-0.2-0.5-0.4-0.7-0.5
				c-0.2-0.1-0.5-0.1-0.8,0C345.4,333.2,345.1,333.4,344.8,333.6z"/>
			<path class="st41" d="M352.1,319c0,0,4.3,15,16.7,16.3c12.3,1.3-10-18.3-10-18.3h-12.5l-3.8,9.4
				C342.4,326.4,349.8,324.1,352.1,319z"/>
			<path class="st41" d="M352.1,317c0.3,0,12.2-6.6,17.3-5.1c5.1,1.5,16.5,17.5,15,33.6c-1.5,16-23.1,13.7-23.1,13.7s11.2-14.5,1-31
				l-7.6-7.1L352.1,317z"/>
			
				<rect x="362.3" y="334.8" transform="matrix(0.5767 -0.817 0.817 0.5767 -120.109 447.5659)" class="st28" width="19.1" height="9.8"/>
			<path class="st27" d="M381.4,349.7c0,0,0-11.1-1.8-12.6c-1.8-1.4-6.1-6.8-8.3-5.4c-2.2,1.4-1.1,2.2-2.5,2.9
				c-1.4,0.7-0.7,1.8-1.8,2.5c-1.1,0.7-2.5,3.6-1.8,3.6c0.7,0,3.2,0,3.2,0s5,9.3,7.2,9l0.4,1.4h5.4V349.7z"/>
			<path class="st27" d="M375.2,347.5c0,0-0.2,44.9,3.6,47.4c3.7,2.5,13.7-0.4,11.6-8.7c-2.1-8.3-9.5-38.5-9.5-38.5L375.2,347.5z"/>
			<path class="st42" d="M349.3,342.9l-2.3-1.3c0,0,1.7-2.2,2.4-3.7c0.1-0.2,0.4-0.1,0.4,0.1C349.9,339.3,349.8,341.4,349.3,342.9z"
				/>
			<g>
				<path class="st41" d="M358.1,334.8c-0.5-1.7-2-3.1-3.7-3.6c-0.2-0.1-0.1-0.4,0.1-0.4c1.9,0.5,3.4,2,4,3.9
					C358.6,334.9,358.2,335,358.1,334.8L358.1,334.8z"/>
			</g>
			<g>
				<path class="st41" d="M348.6,329.1c-1.5-0.2-3.1,0.5-4.1,1.7c-0.1,0.2-0.4,0-0.3-0.2c1-1.3,2.8-2,4.4-1.8
					C348.9,328.8,348.8,329.2,348.6,329.1L348.6,329.1z"/>
			</g>
			<path class="st41" d="M351.5,317l0,0.5c0,0.2,0,0.4,0,0.6c0,0.4,0,0.8,0.1,1.2c0.1,0.8,0.2,1.5,0.4,2.3c0.3,1.5,0.9,3,1.6,4.4
				c0.7,1.4,1.6,2.6,2.6,3.8c1,1.1,2.2,2.1,3.4,3c-1.2-1-2.2-2-3.2-3.2c-0.9-1.2-1.7-2.5-2.3-3.9c-0.6-1.4-1-2.8-1.2-4.3
				c-0.1-0.7-0.2-1.5-0.2-2.2c0-0.4,0-0.7,0-1.1c0-0.2,0-0.4,0-0.5l0-0.6H351.5z"/>
		</g>
	</g>
</g>
<g id="DESIGNED_BY_FREEPIK">
</g>
</svg>
