<?xml version="1.0" encoding="utf-8"?>
<!-- Generator: Adobe Illustrator 23.0.0, SVG Export Plug-In . SVG Version: 6.00 Build 0)  -->
<svg version="1.1" xmlns="http://www.w3.org/2000/svg" xmlns:xlink="http://www.w3.org/1999/xlink" x="0px" y="0px"
	 viewBox="0 0 596 381.5" style="enable-background:new 0 0 596 381.5;" xml:space="preserve">
<style type="text/css">
	.Drop_x0020_Shadow{fill:none;}
	.Round_x0020_Corners_x0020_2_x0020_pt{fill:#FFFFFF;stroke:#231F20;stroke-miterlimit:10;}
	.Live_x0020_Reflect_x0020_X{fill:none;}
	.Bevel_x0020_Soft{fill:url(#SVGID_1_);}
	.Dusk{fill:#FFFFFF;}
	.Foliage_GS{fill:#FFDB00;}
	.Pompadour_GS{fill-rule:evenodd;clip-rule:evenodd;fill:#44ABE0;}
	.st0{fill:#A6A4E8;}
	.st1{fill:#DEDFF5;}
	.st2{fill:#8987BF;}
	.st3{fill:none;stroke:#8987BF;stroke-width:0.9921;stroke-miterlimit:10;}
	.st4{fill:none;stroke:#8987BF;stroke-width:0.9921;stroke-miterlimit:10;stroke-dasharray:2.8647,5.7294;}
	.st5{fill:#C4C5F3;}
	.st6{fill:#B8B5F2;}
	.st7{fill:#FFFFFB;}
	.st8{fill:#D2D9F5;}
	.st9{fill:#D5DEF5;}
	.st10{fill:#E4F3F7;}
	.st11{fill:#F3FFF9;}
	.st12{fill:#BAB7F2;}
	.st13{fill:#C0C0F3;}
	.st14{fill:#D9E3F6;}
	.st15{fill:#B1ABEF;}
	.st16{opacity:0.43;fill:#F3FFF9;}
</style>
<linearGradient id="SVGID_1_" gradientUnits="userSpaceOnUse" x1="48.0049" y1="-48.0245" x2="48.712" y2="-47.3174">
	<stop  offset="0" style="stop-color:#DCDDE1"/>
	<stop  offset="0.1799" style="stop-color:#D8D9DD"/>
	<stop  offset="0.3642" style="stop-color:#CCCDD1"/>
	<stop  offset="0.5507" style="stop-color:#B7BABD"/>
	<stop  offset="0.7386" style="stop-color:#9A9EA0"/>
	<stop  offset="0.926" style="stop-color:#767B7C"/>
	<stop  offset="1" style="stop-color:#656B6C"/>
</linearGradient>
<g id="BACKGROUND">
</g>
<g id="OBJECTS">
	<g>
		<g>
			<g>
				<polygon class="st0" points="264.1,92.6 262.8,81 297.9,69 				"/>
				<polygon class="st1" points="297.9,69 273,93.9 265.3,84.3 				"/>
				<polygon class="st1" points="297.9,69 262.8,81 255.5,71.8 				"/>
				<polygon class="st2" points="265.3,84.3 264.1,92.6 268.7,88.5 				"/>
			</g>
			<g>
				<g>
					<path class="st3" d="M261.2,87.7c-0.4,0.3-0.8,0.5-1.2,0.8"/>
					<path class="st4" d="M255.1,91.3c-5.6,2.9-11.9,4.8-18,4.1c-8.3-1-14.2-6.9-23.4-5.1c-8.3,1.7-15.5,8.6-17.6,16.8
						c-1.4,5.6,0.1,12.1,4.6,15.6c11.6,8.8,24.7-4.8,24.7-21.7c0-21.6-27.8-40-67.7-43.1C109.9,54.1,47,88.4,26,158.8"/>
					<path class="st3" d="M25.2,161.6c-0.1,0.5-0.3,0.9-0.4,1.4"/>
				</g>
			</g>
		</g>
		<g>
			<g>
				
					<rect x="379.6" y="298.4" transform="matrix(-1 -1.224647e-16 1.224647e-16 -1 764.0326 598.8717)" class="st5" width="4.8" height="2"/>
				
					<rect x="379" y="300" transform="matrix(-1 -1.224647e-16 1.224647e-16 -1 764.0326 600.9074)" class="st5" width="6.1" height="0.9"/>
				
					<rect x="377.5" y="300.9" transform="matrix(-1 -1.224647e-16 1.224647e-16 -1 764.0326 604.0939)" class="st5" width="9.1" height="2.3"/>
				<polygon class="st5" points="381.5,278.3 382.6,278.3 382.2,267.7 381.9,267.7 				"/>
				<path class="st5" d="M380.7,278.2v20.7h2.6v-20.7H380.7z M382.2,287.3h0.3V298h-0.3V287.3z M381.5,287.3h0.3V298h-0.3V287.3z"/>
			</g>
			<rect x="239.7" y="337.9" class="st5" width="14" height="48.6"/>
			<polygon class="st5" points="329.2,386.6 329.2,293.5 295.4,277.8 282.8,277.8 282.8,275 282.3,275 282.3,299.6 279.8,299.6 
				279.8,283.1 266,283.1 266,299.6 263.6,299.6 263.6,325.1 261,325.1 261,386.6 			"/>
			<polygon class="st5" points="114.7,386.6 114.7,332.4 95,323.2 87.7,323.2 77.8,326.3 77.8,335.9 76.5,335.9 76.5,350.8 
				75,350.8 75,386.6 			"/>
			<rect x="213.8" y="333.1" class="st5" width="9.1" height="53.4"/>
			<rect x="203.1" y="324.7" class="st5" width="16.8" height="61.8"/>
			<rect x="187.7" y="336.6" class="st5" width="12.5" height="49.2"/>
			<rect x="211.9" y="278.8" class="st5" width="21.7" height="107"/>
			
				<rect x="370.4" y="288.3" transform="matrix(-1 -1.224647e-16 1.224647e-16 -1 759.1717 669.0274)" class="st5" width="18.4" height="92.4"/>
			<rect x="378.9" y="305.7" class="st5" width="18.4" height="80.8"/>
			<path class="st5" d="M371.4,277.6v16.3h-12.5v-6.3h-6.9V285h-3.6v2.6h-17.2c-0.1,0.1-0.1,0.2-0.2,0.3v27.9h-7.2v70.7h48.8V277.6
				H371.4z"/>
			<polygon class="st5" points="114.1,386.6 114.1,333.3 116.7,336.8 123.9,336.8 123.9,322.7 124.2,322.7 124.2,336.8 125.6,336.8 
				125.6,327.4 133.5,327.4 133.5,336.8 134.9,336.8 134.9,351.4 136.4,351.4 136.4,386.6 			"/>
			<rect x="138.8" y="294.1" class="st5" width="14" height="92.4"/>
			<polygon class="st5" points="152.6,386.6 152.6,317 166,317 173.2,324.4 173.2,386.6 			"/>
			<g>
				<g>
					<polygon class="st6" points="268.4,337.9 268.4,340.8 269.4,340.8 269.4,346.5 272.8,346.5 272.8,386.6 255,386.6 255,337.9 
											"/>
				</g>
				<g>
					<g>
						<rect x="228.8" y="304.3" class="st7" width="5.8" height="0.5"/>
						<rect x="227.4" y="304.8" class="st8" width="8.8" height="8.8"/>
					</g>
					<g>
						<g>
							
								<rect x="245.1" y="288.5" transform="matrix(-1 -1.224647e-16 1.224647e-16 -1 491.3461 620.3887)" class="st9" width="1.2" height="43.5"/>
							
								<rect x="247.7" y="288.5" transform="matrix(-1 -1.224647e-16 1.224647e-16 -1 496.5605 620.3887)" class="st9" width="1.2" height="43.5"/>
						</g>
						<rect x="233.2" y="301.1" class="st10" width="18.7" height="48.5"/>
						<polygon class="st11" points="263.8,333.1 242.8,333.1 242.8,318.5 						"/>
						<rect x="219.4" y="313.9" class="st10" width="25.3" height="72.7"/>
						<rect x="241.8" y="331.9" class="st9" width="23.2" height="54.6"/>
					</g>
				</g>
			</g>
			<g>
				<g>
					<polygon class="st6" points="543.5,351 543.5,353.3 544.3,353.3 544.3,357.8 546.9,357.8 546.9,389 533,389 533,351 					"/>
				</g>
				<g>
					<g>
						<rect x="512.6" y="324.8" class="st7" width="4.6" height="0.4"/>
						<rect x="511.5" y="325.2" class="st8" width="6.8" height="6.9"/>
					</g>
					<g>
						<g>
							
								<rect x="525.3" y="312.4" transform="matrix(-1 -1.224647e-16 1.224647e-16 -1 1051.5225 658.7965)" class="st9" width="0.9" height="33.9"/>
							
								<rect x="527.3" y="312.4" transform="matrix(-1 -1.224647e-16 1.224647e-16 -1 1055.5895 658.7965)" class="st9" width="0.9" height="33.9"/>
						</g>
						<rect x="516" y="322.3" class="st10" width="14.6" height="37.8"/>
						<polygon class="st11" points="539.9,347.3 523.6,347.3 523.6,335.9 						"/>
						<rect x="505.3" y="332.3" class="st10" width="19.7" height="56.7"/>
						<rect x="522.7" y="346.3" class="st9" width="18.1" height="42.6"/>
					</g>
				</g>
			</g>
			<g>
				<g>
					<polygon class="st6" points="52.1,359.8 52.1,361.5 51.5,361.5 51.5,365 49.4,365 49.4,389 60.1,389 60.1,359.8 					"/>
				</g>
				<g>
					<g>
						
							<rect x="72.3" y="339.6" transform="matrix(-1 -1.224647e-16 1.224647e-16 -1 148.0202 679.5303)" class="st7" width="3.5" height="0.3"/>
						
							<rect x="71.4" y="339.9" transform="matrix(-1 -1.224647e-16 1.224647e-16 -1 148.0203 685.1149)" class="st8" width="5.3" height="5.3"/>
					</g>
					<g>
						<g>
							<rect x="65.3" y="330.1" class="st9" width="0.7" height="26.1"/>
							<rect x="63.8" y="330.1" class="st9" width="0.7" height="26.1"/>
						</g>
						
							<rect x="61.9" y="337.7" transform="matrix(-1 -1.224647e-16 1.224647e-16 -1 135.0638 704.5038)" class="st10" width="11.2" height="29.1"/>
						<polygon class="st11" points="54.8,356.9 67.4,356.9 67.4,348.2 						"/>
						<rect x="66.3" y="345.4" class="st10" width="15.1" height="43.6"/>
						<rect x="54.1" y="356.2" class="st9" width="13.9" height="32.8"/>
					</g>
				</g>
			</g>
			<g>
				<g>
					<rect x="296.9" y="247.7" class="st12" width="9.4" height="62.8"/>
					<rect x="289.7" y="250.1" class="st9" width="34.4" height="77.6"/>
				</g>
				<g>
					<g>
						
							<rect x="285.8" y="308" transform="matrix(-1 -1.224647e-16 1.224647e-16 -1 577.8147 617.6995)" class="st11" width="6.2" height="1.7"/>
						
							<rect x="285" y="309.3" transform="matrix(-1 -1.224647e-16 1.224647e-16 -1 577.8147 619.3614)" class="st11" width="7.8" height="0.7"/>
						
							<rect x="283" y="310" transform="matrix(-1 -1.224647e-16 1.224647e-16 -1 577.8147 632.1822)" class="st12" width="11.7" height="12.1"/>
					</g>
					<polygon class="st9" points="302.4,281.1 302.4,386.6 329.2,386.6 329.2,293.5 					"/>
					<rect x="280.5" y="303.9" class="st12" width="16" height="82.6"/>
					<g>
						<rect x="292.4" y="312.1" class="st13" width="1.3" height="52.6"/>
						<rect x="289.5" y="312.1" class="st13" width="1.3" height="52.6"/>
						<rect x="286.6" y="312.1" class="st13" width="1.3" height="52.6"/>
						<rect x="283.7" y="312.1" class="st13" width="1.3" height="52.6"/>
					</g>
					<rect x="302.7" y="302.2" class="st9" width="9.2" height="9.8"/>
				</g>
			</g>
			<g>
				<g>
					<rect x="442.7" y="280.2" class="st12" width="7.2" height="48.1"/>
					<rect x="437.2" y="282" class="st9" width="26.3" height="59.5"/>
				</g>
				<g>
					<g>
						
							<rect x="434.2" y="326.4" transform="matrix(-1 -1.224647e-16 1.224647e-16 -1 873.1466 654.0422)" class="st11" width="4.8" height="1.3"/>
						
							<rect x="433.6" y="327.4" transform="matrix(-1 -1.224647e-16 1.224647e-16 -1 873.1466 655.3156)" class="st11" width="6" height="0.6"/>
						
							<rect x="432.1" y="327.9" transform="matrix(-1 -1.224647e-16 1.224647e-16 -1 873.1466 665.1388)" class="st12" width="9" height="9.3"/>
					</g>
					<polygon class="st9" points="446.9,305.7 446.9,386.6 467.4,386.6 467.4,315.3 					"/>
					<rect x="430.1" y="323.3" class="st5" width="12.2" height="63.3"/>
					<g>
						<rect x="439.2" y="329.5" class="st13" width="1" height="40.3"/>
						<rect x="437" y="329.5" class="st13" width="1" height="40.3"/>
						<rect x="434.8" y="329.5" class="st13" width="1" height="40.3"/>
						<rect x="432.6" y="329.5" class="st13" width="1" height="40.3"/>
					</g>
					<rect x="447.1" y="322" class="st9" width="7.1" height="7.5"/>
				</g>
			</g>
			
				<rect x="193.9" y="320.8" transform="matrix(-1 -1.224647e-16 1.224647e-16 -1 392.7302 648.7703)" class="st6" width="4.9" height="7.2"/>
			
				<rect x="197" y="324.9" transform="matrix(-1 -1.224647e-16 1.224647e-16 -1 400.4733 655.2457)" class="st6" width="6.4" height="5.5"/>
			<g>
				
					<rect x="223.4" y="269.5" transform="matrix(-1 -1.224647e-16 1.224647e-16 -1 455.5419 547.8333)" class="st6" width="8.7" height="8.9"/>
				<g>
					<polygon class="st14" points="181.3,386.6 182.3,330.5 183.5,330.5 183.5,324.7 203.4,322.7 203.4,334 205.7,334 205.7,272.3 
						233.9,272.3 233.9,332.6 236.4,332.6 236.4,386.6 					"/>
					<g>
						
							<rect x="184.6" y="342.6" transform="matrix(-1 -1.224647e-16 1.224647e-16 -1 377.6962 687.5757)" class="st5" width="8.6" height="2.3"/>
						
							<rect x="184.6" y="346.9" transform="matrix(-1 -1.224647e-16 1.224647e-16 -1 377.6962 696.1543)" class="st5" width="8.6" height="2.3"/>
						
							<rect x="184.6" y="351.2" transform="matrix(-1 -1.224647e-16 1.224647e-16 -1 377.6962 704.7329)" class="st5" width="8.6" height="2.3"/>
						
							<rect x="184.6" y="355.5" transform="matrix(-1 -1.224647e-16 1.224647e-16 -1 377.6962 713.3113)" class="st5" width="8.6" height="2.3"/>
						
							<rect x="184.6" y="359.8" transform="matrix(-1 -1.224647e-16 1.224647e-16 -1 377.6962 721.8899)" class="st5" width="8.6" height="2.3"/>
						
							<rect x="184.6" y="364.1" transform="matrix(-1 -1.224647e-16 1.224647e-16 -1 377.6962 730.4685)" class="st5" width="8.6" height="2.3"/>
						
							<rect x="184.6" y="368.3" transform="matrix(-1 -1.224647e-16 1.224647e-16 -1 377.6962 739.0471)" class="st5" width="8.6" height="2.3"/>
						
							<rect x="184.6" y="372.6" transform="matrix(-1 -1.224647e-16 1.224647e-16 -1 377.6962 747.6257)" class="st5" width="8.6" height="2.3"/>
						
							<rect x="184.6" y="376.9" transform="matrix(-1 -1.224647e-16 1.224647e-16 -1 377.6962 756.2042)" class="st5" width="8.6" height="2.3"/>
					</g>
				</g>
			</g>
			<rect x="423" y="337.9" class="st5" width="14" height="48.6"/>
			<polygon class="st5" points="506.9,386.6 506.9,315.3 480.9,303.2 471.3,303.2 471.3,301.1 471,301.1 471,320 469,320 469,307.3 
				458.4,307.3 458.4,320 456.6,320 456.6,339.5 454.7,339.5 454.7,386.6 			"/>
			<rect x="395.1" y="278.8" class="st5" width="21.7" height="107"/>
			<g>
				<g>
					<polygon class="st6" points="451.6,337.9 451.6,340.8 452.6,340.8 452.6,346.5 456,346.5 456,386.6 438.2,386.6 438.2,337.9 
											"/>
				</g>
				<g>
					<g>
						<rect x="412.1" y="304.3" class="st7" width="5.8" height="0.5"/>
						<rect x="410.6" y="304.8" class="st8" width="8.8" height="8.8"/>
					</g>
					<g>
						<g>
							
								<rect x="428.3" y="288.5" transform="matrix(-1 -1.224647e-16 1.224647e-16 -1 857.7851 620.3887)" class="st9" width="1.2" height="43.5"/>
							
								<rect x="430.9" y="288.5" transform="matrix(-1 -1.224647e-16 1.224647e-16 -1 862.9995 620.3887)" class="st9" width="1.2" height="43.5"/>
						</g>
						<rect x="416.4" y="301.1" class="st10" width="18.7" height="48.5"/>
						<polygon class="st11" points="447.1,333.1 426.1,333.1 426.1,318.5 						"/>
						<rect x="402.6" y="313.9" class="st10" width="25.3" height="72.7"/>
						<rect x="425" y="331.9" class="st9" width="23.2" height="54.6"/>
					</g>
				</g>
			</g>
			<g>
				<g>
					<rect x="483.6" y="299.7" class="st12" width="4.8" height="32.2"/>
					<rect x="479.9" y="301" class="st9" width="17.6" height="39.8"/>
				</g>
				<g>
					<g>
						
							<rect x="477.9" y="330.7" transform="matrix(-1 -1.224647e-16 1.224647e-16 -1 958.9819 662.2689)" class="st11" width="3.2" height="0.9"/>
						
							<rect x="477.5" y="331.4" transform="matrix(-1 -1.224647e-16 1.224647e-16 -1 958.9818 663.1222)" class="st11" width="4" height="0.4"/>
						
							<rect x="476.5" y="331.7" transform="matrix(-1 -1.224647e-16 1.224647e-16 -1 958.9818 669.7049)" class="st12" width="6" height="6.2"/>
					</g>
					<polygon class="st9" points="486.4,316.9 486.4,371 500.2,371 500.2,323.3 					"/>
					<rect x="475.2" y="328.6" class="st9" width="8.2" height="42.4"/>
					<g>
						<rect x="481.3" y="332.8" class="st13" width="0.7" height="27"/>
						<rect x="479.8" y="332.8" class="st13" width="0.7" height="27"/>
						<rect x="478.3" y="332.8" class="st13" width="0.7" height="27"/>
						<rect x="476.8" y="332.8" class="st13" width="0.7" height="27"/>
					</g>
					<rect x="486.5" y="327.7" class="st9" width="4.7" height="5"/>
				</g>
			</g>
			<g>
				
					<rect x="406.7" y="269.5" transform="matrix(-1 -1.224647e-16 1.224647e-16 -1 821.9809 547.8333)" class="st6" width="8.7" height="8.9"/>
				<g>
					<polygon class="st14" points="364.5,386.6 365.5,330.5 366.7,330.5 366.7,324.7 386.6,322.7 386.6,334 388.9,334 388.9,272.3 
						417.1,272.3 417.1,332.6 419.7,332.6 419.7,386.6 					"/>
					<g>
						
							<rect x="367.8" y="342.6" transform="matrix(-1 -1.224647e-16 1.224647e-16 -1 744.1352 687.5757)" class="st5" width="8.6" height="2.3"/>
						
							<rect x="367.8" y="346.9" transform="matrix(-1 -1.224647e-16 1.224647e-16 -1 744.1352 696.1543)" class="st5" width="8.6" height="2.3"/>
						
							<rect x="367.8" y="351.2" transform="matrix(-1 -1.224647e-16 1.224647e-16 -1 744.1352 704.7329)" class="st5" width="8.6" height="2.3"/>
						
							<rect x="367.8" y="355.5" transform="matrix(-1 -1.224647e-16 1.224647e-16 -1 744.1352 713.3113)" class="st5" width="8.6" height="2.3"/>
						
							<rect x="367.8" y="359.8" transform="matrix(-1 -1.224647e-16 1.224647e-16 -1 744.1352 721.8899)" class="st5" width="8.6" height="2.3"/>
						
							<rect x="367.8" y="364.1" transform="matrix(-1 -1.224647e-16 1.224647e-16 -1 744.1352 730.4685)" class="st5" width="8.6" height="2.3"/>
						
							<rect x="367.8" y="368.3" transform="matrix(-1 -1.224647e-16 1.224647e-16 -1 744.1352 739.0471)" class="st5" width="8.6" height="2.3"/>
						
							<rect x="367.8" y="372.6" transform="matrix(-1 -1.224647e-16 1.224647e-16 -1 744.1352 747.6257)" class="st5" width="8.6" height="2.3"/>
						
							<rect x="367.8" y="376.9" transform="matrix(-1 -1.224647e-16 1.224647e-16 -1 744.1352 756.2042)" class="st5" width="8.6" height="2.3"/>
					</g>
				</g>
			</g>
			<g>
				<rect x="354.2" y="343.4" class="st9" width="18.7" height="43.1"/>
			</g>
			<path class="st8" d="M363.7,318.5v-50.5h-4v-2.4h-0.9v-0.4h-0.4v-0.7h-0.7v-5h-0.4l-0.2-4.4h-0.2l-0.2,4.4h-0.4v5h-0.7v0.7h-0.4
				v0.4h-0.9v2.4h-11.1l-6.4,7.8v42.7H363.7z M356.9,264.4h-0.2V260h0.2V264.4z M357.3,264.4h-0.2V260h0.2V264.4z"/>
			<g>
				<rect x="324.4" y="298" class="st12" width="23.6" height="58.2"/>
			</g>
			<g>
				<rect x="137.8" y="326.2" class="st11" width="3.6" height="1"/>
				<rect x="137.4" y="326.9" class="st11" width="4.5" height="0.4"/>
				<rect x="136.2" y="327.4" class="st12" width="6.7" height="6.9"/>
			</g>
			<rect x="127.2" y="339.3" class="st5" width="9.1" height="47.3"/>
			<g>
				
					<rect x="128.8" y="338.6" transform="matrix(-1 -1.224647e-16 1.224647e-16 -1 258.3906 707.3518)" class="st13" width="0.8" height="30.1"/>
				
					<rect x="130.5" y="338.6" transform="matrix(-1 -1.224647e-16 1.224647e-16 -1 261.7249 707.3518)" class="st13" width="0.8" height="30.1"/>
				
					<rect x="132.2" y="338.6" transform="matrix(-1 -1.224647e-16 1.224647e-16 -1 265.0592 707.3518)" class="st13" width="0.8" height="30.1"/>
				
					<rect x="133.8" y="338.6" transform="matrix(-1 -1.224647e-16 1.224647e-16 -1 268.3935 707.3518)" class="st13" width="0.8" height="30.1"/>
			</g>
			
				<rect x="128" y="305.7" transform="matrix(-1 -1.224647e-16 1.224647e-16 -1 272.4049 692.2987)" class="st6" width="16.5" height="80.8"/>
			<polygon class="st11" points="106.1,364.1 116,364.1 116,335.5 			"/>
			
				<rect x="101.8" y="303.3" transform="matrix(-1 -1.224647e-16 1.224647e-16 -1 215.8731 651.1128)" class="st6" width="12.2" height="44.6"/>
			<g>
				
					<rect x="115" y="331.7" transform="matrix(-1 -1.224647e-16 1.224647e-16 -1 235.7095 663.9728)" class="st7" width="5.7" height="0.5"/>
			</g>
			<g>
				<rect x="98" y="315.6" class="st6" width="1.1" height="70.6"/>
				<rect x="100.5" y="315.6" class="st6" width="1.1" height="70.6"/>
				<rect x="103.1" y="351.1" class="st6" width="1.1" height="35.1"/>
				<rect x="105.6" y="351.1" class="st6" width="1.1" height="35.1"/>
			</g>
			
				<rect x="125.3" y="316" transform="matrix(-1 -1.224647e-16 1.224647e-16 -1 255.9471 637.6191)" class="st9" width="5.3" height="5.6"/>
			<rect x="102" y="349.4" class="st6" width="7.7" height="37.1"/>
			<g>
				<g>
					<g>
						
							<rect x="156.9" y="287.2" transform="matrix(-1 -1.224647e-16 1.224647e-16 -1 331.9769 576.0894)" class="st8" width="18.2" height="1.6"/>
						
							<rect x="156.9" y="290.2" transform="matrix(-1 -1.224647e-16 1.224647e-16 -1 331.9769 581.9375)" class="st8" width="18.2" height="1.6"/>
						
							<rect x="156.9" y="293.1" transform="matrix(-1 -1.224647e-16 1.224647e-16 -1 331.9769 587.7856)" class="st8" width="18.2" height="1.6"/>
						
							<rect x="156.9" y="296" transform="matrix(-1 -1.224647e-16 1.224647e-16 -1 331.9769 593.6336)" class="st8" width="18.2" height="1.6"/>
						
							<rect x="156.9" y="298.9" transform="matrix(-1 -1.224647e-16 1.224647e-16 -1 331.9769 599.4816)" class="st8" width="18.2" height="1.6"/>
						
							<rect x="156.9" y="301.9" transform="matrix(-1 -1.224647e-16 1.224647e-16 -1 331.9769 605.3295)" class="st8" width="18.2" height="1.6"/>
						
							<rect x="156.9" y="304.8" transform="matrix(-1 -1.224647e-16 1.224647e-16 -1 331.9769 611.1774)" class="st8" width="18.2" height="1.6"/>
						
							<rect x="156.9" y="307.7" transform="matrix(-1 -1.224647e-16 1.224647e-16 -1 331.9769 617.0254)" class="st8" width="18.2" height="1.6"/>
						
							<rect x="156.9" y="310.6" transform="matrix(-1 -1.224647e-16 1.224647e-16 -1 331.9769 622.8735)" class="st8" width="18.2" height="1.6"/>
					</g>
					<polygon class="st8" points="140.7,386.6 173.3,386.6 173.6,285.3 140.7,281.9 					"/>
					<polygon class="st15" points="140.7,386.6 147.3,386.6 147.7,285.1 140.7,281.9 					"/>
				</g>
				<g>
					<polygon class="st9" points="173.2,324.4 166,317 152.6,317 					"/>
					<rect x="161.1" y="336.1" class="st16" width="1" height="50.5"/>
					<rect x="163.3" y="336.1" class="st16" width="1" height="50.5"/>
					<rect x="165.5" y="336.1" class="st16" width="1" height="50.5"/>
					<rect x="167.7" y="336.1" class="st16" width="1" height="50.5"/>
				</g>
			</g>
			<rect x="191.9" y="331.7" class="st10" width="15.8" height="7.2"/>
			<rect x="339.6" y="293.9" class="st10" width="33" height="92.6"/>
			<rect x="345.6" y="312.2" class="st9" width="20" height="74.1"/>
			<polygon class="st14" points="125.6,320.9 123.6,332.7 123.6,360.5 121.9,360.5 121.9,347.2 116.8,347.2 116.8,332.4 
				111.3,332.4 111.3,310.8 102.3,310.8 102.3,306.5 100.4,306.5 100.4,310.8 96.9,310.8 96.9,315.6 95,315.6 95,303.1 91.3,303.1 
				91.3,386.6 134,386.6 134,329 132.6,321.1 			"/>
			<rect x="148.9" y="337.8" class="st10" width="8" height="48.7"/>
			<rect x="172.8" y="324" class="st10" width="6.1" height="62.6"/>
		</g>
		<g>
			<path class="st9" d="M460.1,94.6v-9.1l-4.4-1.3c-0.3-0.9-0.6-1.7-1-2.5l2.2-4.1l-6.4-6.4l-4.1,2.2c-0.8-0.4-1.6-0.8-2.5-1
				l-1.3-4.4h-9.1l-1.3,4.4c-0.9,0.3-1.7,0.6-2.5,1l-4.1-2.2l-6.4,6.4l2.2,4.1c-0.4,0.8-0.8,1.6-1,2.5l-4.4,1.3v9.1l4.4,1.3
				c0.3,0.9,0.6,1.7,1,2.5l-2.2,4.1l6.4,6.4l4.1-2.2c0.8,0.4,1.6,0.8,2.5,1l1.3,4.4h9.1l1.3-4.4c0.9-0.3,1.7-0.6,2.5-1l4.1,2.2
				l6.4-6.4l-2.2-4.1c0.4-0.8,0.8-1.6,1-2.5L460.1,94.6z M447.9,90.1c0,5.5-4.5,10-10,10c-5.5,0-10-4.5-10-10c0-5.5,4.5-10,10-10
				C443.5,80.1,447.9,84.6,447.9,90.1z"/>
			<path class="st9" d="M491.3,69.8v-5.6l-2.7-0.8c-0.2-0.5-0.4-1.1-0.6-1.6l1.4-2.5l-4-4l-2.5,1.4c-0.5-0.3-1-0.5-1.6-0.6l-0.8-2.7
				h-5.6l-0.8,2.7c-0.5,0.2-1.1,0.4-1.6,0.6l-2.5-1.4l-4,4l1.4,2.5c-0.3,0.5-0.5,1-0.6,1.6l-2.7,0.8v5.6l2.7,0.8
				c0.2,0.5,0.4,1.1,0.6,1.6l-1.4,2.5l4,4l2.5-1.4c0.5,0.3,1,0.5,1.6,0.6l0.8,2.7h5.6l0.8-2.7c0.5-0.2,1.1-0.4,1.6-0.6l2.5,1.4l4-4
				l-1.4-2.5c0.3-0.5,0.5-1,0.6-1.6L491.3,69.8z M483.8,67c0,3.4-2.8,6.1-6.1,6.1c-3.4,0-6.1-2.8-6.1-6.1c0-3.4,2.8-6.1,6.1-6.1
				C481,60.8,483.8,63.6,483.8,67z"/>
		</g>
	</g>
</g>
<g id="DESIGNED_BY_FREEPIK">
</g>
</svg>
