<?xml version="1.0" encoding="utf-8"?>
<!-- Generator: Adobe Illustrator 23.0.0, SVG Export Plug-In . SVG Version: 6.00 Build 0)  -->
<svg version="1.1" id="Layer_1" xmlns="http://www.w3.org/2000/svg" xmlns:xlink="http://www.w3.org/1999/xlink" x="0px" y="0px"
	 viewBox="0 0 665.7 413.3" style="enable-background:new 0 0 665.7 413.3;" xml:space="preserve">
<style type="text/css">
	.Drop_x0020_Shadow{fill:none;}
	.Round_x0020_Corners_x0020_2_x0020_pt{fill:#FFFFFF;stroke:#000000;stroke-miterlimit:10;}
	.Live_x0020_Reflect_x0020_X{fill:none;}
	.Bevel_x0020_Soft{fill:url(#SVGID_1_);}
	.Dusk{fill:#FFFFFF;}
	.Foliage_GS{fill:#FFDD00;}
	.Pompadour_GS{fill-rule:evenodd;clip-rule:evenodd;fill:#44ADE2;}
	.st0{clip-path:url(#SVGID_3_);fill:url(#SVGID_4_);}
	.st1{opacity:0.25;clip-path:url(#SVGID_3_);}
	.st2{fill-rule:evenodd;clip-rule:evenodd;fill:#00B0A2;}
	.st3{opacity:0.5;clip-path:url(#SVGID_3_);}
	.st4{clip-path:url(#SVGID_3_);}
	.st5{fill:#00B0A2;}
	.st6{fill:none;stroke:#00B0A2;stroke-width:0.9046;stroke-miterlimit:10;}
	.st7{fill:#E6E6E5;}
</style>
<linearGradient id="SVGID_1_" gradientUnits="userSpaceOnUse" x1="42.8408" y1="-137.4189" x2="43.5479" y2="-136.7118">
	<stop  offset="0" style="stop-color:#DEDFE3"/>
	<stop  offset="0.1738" style="stop-color:#D8D9DD"/>
	<stop  offset="0.352" style="stop-color:#C9CACD"/>
	<stop  offset="0.5323" style="stop-color:#B4B5B8"/>
	<stop  offset="0.7139" style="stop-color:#989A9C"/>
	<stop  offset="0.8949" style="stop-color:#797C7E"/>
	<stop  offset="1" style="stop-color:#656B6C"/>
</linearGradient>
<g>
	<defs>
		<rect id="SVGID_2_" width="665.7" height="413.3"/>
	</defs>
	<clipPath id="SVGID_3_">
		<use xlink:href="#SVGID_2_"  style="overflow:visible;"/>
	</clipPath>
	<linearGradient id="SVGID_4_" gradientUnits="userSpaceOnUse" x1="-4.661251e-02" y1="4.21" x2="665.9197" y2="409.1907">
		<stop  offset="0" style="stop-color:#381651"/>
		<stop  offset="1" style="stop-color:#00B0A2"/>
	</linearGradient>
	<rect class="st0" width="665.7" height="413.3"/>
	<g class="st1">
		<path class="st2" d="M760.7,452.1c0.1-0.4,0.3-0.8,0.4-1.2c1.3-3.7,4.7-6.2,8.6-6.1c3.8,0.1,7.2,2.6,8.3,6.4
			c0.3,0.9,0.4,1.9,0.5,3c1.5-4.2,4.5-6.3,8.9-6.7c-1.9-0.8-3.4-2-4.5-3.7c-1.1-1.7-1.5-3.5-1.5-5.7c-2.8,5.6-6.9,7.6-11.6,5.9
			c-4.2-1.5-6.6-6-5.5-10.2c1.1-4.5,5.1-7.2,9.8-6.7c3.4,0.4,7.8,3.5,7.5,9.4c2.9-5.3,6-7.2,10.3-6.5c2.2,0.4,4,1.4,5.4,3.1
			c1.4,1.7,2.1,3.7,2.1,6.2c1.5-3.5,3.7-5.7,7.5-6.4c-1.4,5.5-2.8,10.7-4.2,16.2c-2.4-2-3.4-4.4-3.6-7.5c-1.8,4.2-4.7,6.2-9.2,6.3
			c4,1.5,6.1,4.2,6.7,8.4c1.3-2.5,2.8-4.2,5.5-5.2c-1.6,4.5-3.2,8.8-4.7,13.1c-0.1,0-0.3,0-0.4,0c-0.4-1.3-0.7-2.5-1.2-3.9
			c-1.5,3.1-4,4.9-7.6,5.6c2.8,1.5,4.5,3.6,5.1,6.4c0.1,0.3,0.2,0.7,0,1c-1.4,2.9-2.6,5.8-4.3,8.5c-0.7,1.1-2.4,1.5-3.5,2.1
			c0.4,0.3,1,0.8,1.8,1.3c-5.3,9.8-11.5,18.9-18.5,27.8c-0.2-0.7-0.3-1.2-0.5-1.8c-1.6,2.7-3.8,4.2-6.8,4.8c1,0.8,1.8,1.5,3,2.5
			c-4.4,4.7-8.7,9.2-13.1,13.8c-2.1-1.6-3.2-3.6-3.9-6.2c-1.7,2.7-3.9,4.1-6.8,4.7c2.3,1.5,3.8,3.3,4.5,5.7c0.1,0.5-0.1,1.3-0.4,1.6
			c-1.2,1.2-2.6,2.2-4,3.3c-4.5,3.4-8.9,7-13.6,10.2c-5,3.4-10.2,6.4-15.3,9.6c-1.1,0.7-1.9,0.6-2.9-0.3c-1.4-1.4-2.4-2.9-3-4.8
			c-0.1-0.3-0.2-0.6-0.3-1.2c-1.6,2.8-3.9,4.3-7.2,4.9c2.4,1.4,4,3.2,4.8,5.9c-5.7,2.5-11.3,4.9-17.1,7.4c-0.5-1.5-0.9-2.8-1.3-4.2
			c-1.7,3.3-4.3,5.1-8.1,5.5c0.7,0.4,1.3,0.8,2.1,1.3c-4.7,1.4-9.2,2.7-13.6,4c1.5-3.7,4.2-5.4,7.5-5.8c-1.2-1.2-2.8-2.3-3.8-3.8
			c-1-1.5-1.3-3.3-1.7-4.6c-1,1.1-2,2.8-3.4,3.8c-1.4,1-3.3,1.5-4.8,2.1c2.5,1.1,4.5,3,5.3,6c0.6,2.1,0.6,2.3-1.5,2.8
			c-4.8,1-9.6,2-14.4,2.9c-0.8,0.2-1.4-0.1-1.4-1c0-1.8-0.3-3.6,0.3-5.2c1.3-4,4.3-5.9,8.5-6.1c-5.4-3.6-7-7.2-5.3-11.6
			c1.4-3.7,5.3-6.2,9.1-5.8c4.7,0.5,7.5,3.6,8.2,9.5c1.5-4.3,4.6-6.4,9-6.7c-4.8-2.8-6.8-6.1-6-10.2c0.8-4.4,3.8-6.8,9.2-7.5
			c-5.2-2.9-7.1-6.6-5.7-11.1c1.2-3.9,5-6.5,8.9-6.2c4.5,0.4,7.8,3.5,8.2,8c0.3,2.6-0.5,4.9-2.3,6.8c-1.8,1.9-4,2.8-6.6,3
			c4,1.7,6,4.7,6.1,9.3c1.7-4.2,4.6-6.3,8.9-6.6c-4.8-2.5-6.9-6.4-5.8-10.6c1-4.2,4.5-6.9,8.8-7c2.4,0,4.5,0.8,6.2,2.5
			c1.8,1.7,2.6,3.8,2.8,6.6c1.6-3.8,4.2-5.7,8-6.3c-4.4-2.5-5.9-6.2-5-10.8l0,0c1.2-3.1,3.2-5.4,6.6-6.3c0.8-0.2,1.6-0.3,2.6-0.4
			c-4.2-2-6.2-4.5-6.3-9.5c-2.4,5.4-6.6,7.6-11.2,6.1c-4.2-1.3-6.8-5.7-5.9-10c0.9-4.5,4.9-7.4,9.5-7c4.6,0.4,7.6,4,7.8,9.7
			c2.1-5,5.1-7.3,9.5-6.9c5.3,0.6,7.9,3.9,8.4,9.3c1.5-3.9,4.3-6,8.2-6.5c-5-3.8-6.4-7.3-4.8-11.6c1.4-3.8,5-6.1,9.2-5.8
			c2.3,0.2,4.2,1.2,5.8,2.9c1.5,1.7,2.3,3.7,2.4,6.2c1.7-4,4.5-6,8.7-6.4c-4.6-2.3-6.4-5.9-5.7-10.7l0,0c1.1-3.4,3.2-5.8,6.8-6.7
			c0.6-0.1,1.2-0.2,2-0.4C762,460,760.3,456.7,760.7,452.1L760.7,452.1z M724,509.7c4,1.5,6.2,4.1,6.8,8.4c1.8-3.5,4.3-5.4,8.2-5.9
			c-3.7-1.9-5.5-4.8-5.6-8.9C730.8,508,728.8,509.4,724,509.7z M688.4,550.5c-1.7,3.9-4.6,6-9.2,6.1c4,1.5,6.1,4.2,6.7,7.9
			c1.1-1.2,2-2.5,3.3-3.4c1.2-0.9,2.8-1.4,4.1-2.1C689.6,556.2,689.1,555.3,688.4,550.5z M783.5,465.1c-3.5-2-5.2-4.8-5.3-8.6
			c-1.6,3.8-4.4,5.8-8.5,6.2c4.2,2.6,5.2,4,5.9,8.4C777.3,467.6,779.8,465.7,783.5,465.1z M709.3,536.1c-1.8,3.7-4.5,5.8-8.9,6
			c3.6,1.5,5.6,3.9,6.4,7.7c1.8-3.1,4.3-4.7,7.8-5.2C711.3,542.6,709.6,540,709.3,536.1z M780.2,482.8c-3.2-1.8-4.9-4.4-5.2-8.2
			c-1.8,3.5-4.4,5.5-8.2,5.9c3.1,1.5,5,3.9,5.8,7.4C774.4,484.9,776.8,483.3,780.2,482.8z M751.6,502.3c1.1-1.1,2-2.3,3.2-3.1
			c1.2-0.8,2.6-1.3,4-1.9c-2.7-1.8-4.5-4.4-4.6-8.3c-1.7,3.7-4.2,5.7-8.4,6.2C749.1,496.7,751,499,751.6,502.3z M734.9,529.7
			c-2.8-1.9-4.4-4.3-4.7-7.9c-1.7,3.4-4.1,5.2-7.8,5.8c3,1.6,4.7,3.9,5.4,7.1C729.4,531.9,731.7,530.3,734.9,529.7z M750.8,507.8
			c-1.8,3-4.2,4.7-7.8,5.1c3.2,1.6,5,3.8,5.7,7.1c1.7-2.7,3.9-4.3,7.2-4.8C753,513.4,751.3,511.1,750.8,507.8z M719.3,545.4
			c2.9,1.6,4.6,3.8,5.3,7.3c1.6-2.8,3.9-4.4,7-5.1c-2.7-1.6-4.2-3.9-4.9-7C725,543.4,722.6,544.9,719.3,545.4z M764.4,498.4
			c2.8,1.7,4.4,3.9,5,7.2c1.7-2.8,3.9-4.4,7.1-5c-2.7-1.6-4.3-3.9-4.9-7.1C769.9,496.4,767.6,497.8,764.4,498.4z"/>
		<path class="st2" d="M712.8,516c-0.1-1-0.2-2.1-0.4-3.1c-1.1-4.1-5.2-7-9.3-6.6c-4.5,0.5-7.8,3.9-8.1,8.4
			c-0.3,4.2,2.7,8.2,6.8,9.1c4.3,1,8.6-1.2,10.3-5.3C712.3,517.7,712.5,516.8,712.8,516C712.8,516,712.8,516,712.8,516z"/>
		<path class="st2" d="M757.6,469.2c0-0.4-0.1-0.8-0.1-1.1c-0.2-4.9-4-8.6-8.8-8.7c-4.7-0.1-8.5,3.6-8.9,8.4c-0.4,4.5,3,8.6,7.7,9.3
			c4.5,0.7,8.9-2.4,9.9-6.9C757.4,469.8,757.5,469.5,757.6,469.2C757.6,469.2,757.6,469.2,757.6,469.2z"/>
		<path class="st2" d="M793.5,412.3c-4.8,0-8.8,4-8.9,8.8c0,4.8,3.9,8.8,8.8,8.9c4.9,0.1,9-4,8.9-8.9
			C802.4,416.3,798.4,412.3,793.5,412.3z"/>
		<path class="st2" d="M719,483c0.1,4.9,4.1,8.8,9,8.6c4.9-0.2,8.7-4.1,8.6-8.9c-0.1-4.9-4.1-8.8-9-8.6
			C722.7,474.2,718.9,478.2,719,483z"/>
		<path class="st2" d="M653.3,544.5c0,4.9,3.9,8.7,8.8,8.7c4.9,0,8.7-3.9,8.7-8.8c0-4.9-3.9-8.7-8.8-8.7
			C657.1,535.8,653.2,539.7,653.3,544.5z"/>
		<path class="st2" d="M760.7,452.1c-0.1-1.3,0-2.6-0.3-3.8c-1-4.3-4.9-7-9.4-6.6c-4.1,0.4-7.5,4-7.7,8c-0.2,4.6,2.7,8.3,7.1,9.2
			c4.1,0.8,8.4-1.6,9.8-5.7C760.3,452.9,760.5,452.5,760.7,452.1C760.7,452.1,760.7,452.1,760.7,452.1z"/>
		<path class="st2" d="M650,559c0-4.8-3.9-8.7-8.8-8.7c-4.8,0-8.6,3.9-8.6,8.7c0,4.8,3.9,8.7,8.8,8.7C646.2,567.7,650,563.8,650,559
			z"/>
		<path class="st2" d="M796.8,394.8c-4.8,0-8.7,3.9-8.7,8.8c0,4.8,3.9,8.6,8.7,8.6c4.8,0,8.7-3.9,8.7-8.8
			C805.5,398.7,801.6,394.8,796.8,394.8z"/>
		<path class="st2" d="M636.3,584.8c1.8-0.2,4.3-0.5,6.7-0.8c0.3,0,0.5-0.2,0.7-0.4c2.9-2.3,3.9-6.6,2.4-10.2
			c-1.5-3.5-5.3-5.7-9-5.3c-4,0.5-7.1,3.4-7.8,7.1c-0.5,3.2,0.4,6,2.8,8.2C633.4,584.6,633.9,584.8,636.3,584.8z"/>
		<path class="st2" d="M677.5,512.1c0,4.8,3.8,8.7,8.6,8.7c4.8,0,8.7-3.9,8.7-8.7c0-4.8-3.9-8.6-8.7-8.6
			C681.4,503.5,677.5,507.3,677.5,512.1z"/>
		<path class="st2" d="M731,456.6c-4.8,0-8.6,3.9-8.6,8.7c0,4.8,3.9,8.6,8.7,8.6c4.8,0,8.6-3.9,8.6-8.7
			C739.7,460.4,735.8,456.6,731,456.6z"/>
		<path class="st2" d="M611.8,573.9c0,4.8,4,8.7,8.7,8.6c4.7,0,8.6-4,8.6-8.7c0-4.8-4-8.7-8.7-8.6
			C615.6,565.2,611.8,569.1,611.8,573.9z"/>
		<path class="st2" d="M767.3,418c0,4.8,3.9,8.7,8.7,8.7c4.7,0,8.6-3.9,8.6-8.6c0-4.8-3.9-8.7-8.7-8.7
			C771.2,409.4,767.3,413.3,767.3,418z"/>
		<path class="st2" d="M665.3,535.3c4.8,0,8.7-3.9,8.7-8.7c0-4.7-3.9-8.6-8.6-8.6c-4.8,0-8.7,3.9-8.7,8.7
			C656.7,531.4,660.6,535.3,665.3,535.3z"/>
		<path class="st2" d="M701.5,479.8c0,4.7,3.9,8.6,8.6,8.6c4.7,0,8.7-4,8.6-8.7c-0.1-4.7-4-8.6-8.7-8.5
			C705.4,471.2,701.5,475.1,701.5,479.8z"/>
		<path class="st2" d="M755,424.3c-4.7,0-8.6,3.9-8.6,8.6c0,4.7,3.9,8.6,8.6,8.6c4.7,0,8.6-3.9,8.6-8.6
			C763.6,428.1,759.7,424.2,755,424.3z"/>
		<path class="st2" d="M799.8,394.3c4.7,0,8.6-3.8,8.6-8.5c0-4.7-3.9-8.6-8.6-8.6c-4.7,0-8.5,3.8-8.6,8.5
			C791.3,390.3,795.1,394.2,799.8,394.3z"/>
		<path class="st2" d="M635.8,541.4c0,4.7,3.8,8.6,8.5,8.6c4.7,0,8.6-3.9,8.6-8.6c0-4.7-3.8-8.5-8.5-8.6
			C639.8,532.8,635.9,536.7,635.8,541.4z"/>
		<path class="st2" d="M689.2,485.8c-4.7,0-8.5,3.8-8.5,8.5c0,4.8,3.8,8.6,8.6,8.5c4.7-0.1,8.5-3.9,8.4-8.6
			C697.7,489.5,694,485.8,689.2,485.8z"/>
		<path class="st2" d="M615,556c0,4.7,3.8,8.5,8.5,8.5c4.7,0,8.5-3.8,8.5-8.5c0-4.7-3.8-8.5-8.5-8.5C618.7,547.5,615,551.3,615,556z
			"/>
		<path class="st2" d="M770.5,400.4c0,4.7,3.7,8.5,8.4,8.5c4.7,0,8.5-3.7,8.5-8.4c0-4.7-3.7-8.5-8.4-8.5
			C774.3,392,770.5,395.7,770.5,400.4z"/>
		<path class="st2" d="M725.6,447.3c0,4.7,3.7,8.5,8.5,8.5c4.7,0,8.5-3.7,8.5-8.5c0-4.7-3.7-8.5-8.5-8.5
			C729.4,438.9,725.6,442.6,725.6,447.3z"/>
		<path class="st2" d="M659.9,509.1c0,4.7,3.8,8.5,8.5,8.4c4.7,0,8.4-3.8,8.4-8.5c0-4.7-3.8-8.4-8.4-8.4
			C663.6,500.6,659.9,504.4,659.9,509.1z"/>
		<path class="st2" d="M704.8,462c0,4.7,3.8,8.4,8.6,8.4c4.6,0,8.3-3.8,8.3-8.5c0-4.7-3.8-8.4-8.6-8.4
			C708.4,453.5,704.8,457.3,704.8,462z"/>
		<path class="st2" d="M594.2,570.8c0,4.7,3.8,8.4,8.4,8.4c4.7,0,8.5-3.8,8.4-8.5c0-4.6-3.8-8.3-8.5-8.3
			C597.9,562.4,594.1,566.1,594.2,570.8z"/>
		<path class="st2" d="M758.1,423.4c4.7,0,8.4-3.8,8.4-8.4c0-4.7-3.8-8.5-8.5-8.4c-4.6,0-8.3,3.8-8.3,8.5
			C749.7,419.7,753.5,423.4,758.1,423.4z"/>
		<path class="st2" d="M647.4,515.2c-4.6,0-8.4,3.8-8.4,8.4c0,4.6,3.8,8.4,8.5,8.4c4.6,0,8.4-3.8,8.4-8.5
			C655.8,518.9,652.1,515.2,647.4,515.2z"/>
		<path class="st2" d="M683.9,476.7c0,4.6,3.8,8.4,8.4,8.4c4.6,0,8.4-3.8,8.4-8.4c0-4.6-3.8-8.3-8.3-8.4
			C687.7,468.3,683.9,472,683.9,476.7z"/>
		<path class="st2" d="M773.7,382.6c0,4.6,3.8,8.4,8.3,8.4c4.6,0,8.5-3.8,8.4-8.4c0-4.6-3.8-8.3-8.4-8.3
			C777.5,374.3,773.7,378,773.7,382.6z"/>
		<path class="st2" d="M737.2,437.9c4.6,0,8.4-3.9,8.4-8.5c0-4.6-3.8-8.3-8.4-8.3c-4.6,0-8.4,3.8-8.4,8.5
			C728.8,434.2,732.6,437.9,737.2,437.9z"/>
		<path class="st2" d="M634.9,538c-0.1-4.6-3.9-8.3-8.5-8.3c-4.6,0-8.4,3.9-8.3,8.6c0.1,4.6,4,8.3,8.5,8.2
			C631.3,546.4,635,542.6,634.9,538z"/>
		<path class="st2" d="M663,491.3c0,4.6,3.9,8.3,8.4,8.3c4.6,0,8.3-3.9,8.3-8.4c0-4.6-3.9-8.3-8.4-8.3
			C666.8,482.9,663,486.7,663,491.3z"/>
		<path class="st2" d="M716.3,436c-4.6,0-8.4,3.8-8.4,8.3c0,4.6,3.8,8.4,8.4,8.3c4.5,0,8.2-3.7,8.3-8.3
			C724.7,439.8,720.9,436,716.3,436z"/>
		<path class="st2" d="M605.6,561.2c4.6,0,8.4-3.7,8.4-8.3c0-4.5-3.7-8.2-8.2-8.3c-4.6,0-8.4,3.7-8.4,8.3
			C597.3,557.5,601,561.2,605.6,561.2z"/>
		<path class="st2" d="M752.8,397.1c0,4.6,3.7,8.4,8.3,8.4c4.5,0,8.2-3.7,8.3-8.2c0-4.6-3.7-8.4-8.3-8.4
			C756.6,388.9,752.9,392.5,752.8,397.1z"/>
		<path class="st2" d="M650.5,497.5c-4.6,0-8.3,3.7-8.3,8.2c0,4.6,3.7,8.3,8.2,8.3c4.6,0,8.3-3.7,8.3-8.2
			C658.8,501.2,655.1,497.5,650.5,497.5z"/>
		<path class="st2" d="M687.1,458.8c0,4.6,3.6,8.3,8.2,8.3c4.6,0,8.2-3.6,8.2-8.3c0-4.6-3.6-8.2-8.2-8.2
			C690.8,450.6,687.2,454.2,687.1,458.8z"/>
		<path class="st2" d="M584.7,575.7c4.6,0,8.2-3.6,8.2-8.2c0-4.6-3.7-8.2-8.3-8.2c-4.5,0-8.2,3.6-8.2,8.2
			C576.5,572,580.1,575.7,584.7,575.7z"/>
		<path class="st2" d="M740.5,420.2c4.6,0,8.2-3.6,8.2-8.2c0-4.6-3.7-8.2-8.3-8.2c-4.5,0-8.1,3.6-8.2,8.2
			C732.3,416.5,735.9,420.2,740.5,420.2z"/>
		<path class="st2" d="M785.5,373c4.6-0.1,8.1-3.8,8-8.4c-0.1-4.5-3.8-8-8.4-8c-4.6,0.1-8.1,3.8-8,8.4
			C777.3,369.5,781,373,785.5,373z"/>
		<path class="st2" d="M621.4,520.5c0,4.6,3.6,8.3,8.2,8.3c4.5,0,8.2-3.6,8.2-8.1c0-4.6-3.6-8.3-8.2-8.3
			C625.1,512.3,621.4,515.9,621.4,520.5z"/>
		<path class="st2" d="M674.6,465.2c-4.5,0-8.1,3.7-8.1,8.2c0,4.6,3.7,8.2,8.3,8.1c4.5,0,8.1-3.7,8-8.3
			C682.9,468.8,679.2,465.2,674.6,465.2z"/>
		<path class="st2" d="M711.4,426.4c0,4.5,3.6,8.2,8.1,8.2c4.5,0,8.2-3.6,8.2-8.1c0-4.5-3.6-8.2-8.1-8.2
			C715.1,418.3,711.4,421.9,711.4,426.4z"/>
		<path class="st2" d="M764.5,387.7c4.5,0,8.1-3.7,8.1-8.2c0-4.5-3.7-8.1-8.2-8.1c-4.4,0-8.1,3.7-8.1,8.2
			C756.3,384.1,760,387.7,764.5,387.7z"/>
		<path class="st2" d="M608.9,526.9c-4.5,0-8.2,3.7-8.1,8.2c0,4.5,3.7,8.1,8.2,8.1c4.4,0,8.1-3.7,8.1-8.1
			C617.1,530.6,613.4,526.9,608.9,526.9z"/>
		<path class="st2" d="M810,371.8c-0.5-3.3-0.9-6.4-1.5-9.5c-0.1-0.4-0.4-0.7-0.7-1c-3.6-2.7-8.8-1.9-11.6,1.7
			c-2.8,3.6-2.2,8.9,1.4,11.7c3.5,2.8,8.8,2.3,11.6-1.2C809.7,373,809.8,372.3,810,371.8z"/>
		<path class="st2" d="M645.7,488.2c0,4.4,3.7,8.1,8.1,8.1c4.5,0,8.2-3.7,8.1-8.2c0-4.4-3.7-8.1-8.2-8
			C649.3,480.1,645.7,483.8,645.7,488.2z"/>
		<path class="st2" d="M588.1,558c4.4,0,8.1-3.7,8.1-8.1c0-4.4-3.7-8.1-8.1-8.1c-4.4,0-8.1,3.7-8.1,8.1
			C579.9,554.3,583.6,558,588.1,558z"/>
		<path class="st2" d="M735.4,394.1c0,4.4,3.7,8.1,8.1,8.1c4.4,0,8.1-3.7,8.1-8.1c0-4.4-3.7-8.1-8.1-8.1
			C739.1,386,735.5,389.7,735.4,394.1z"/>
		<path class="st2" d="M690.6,441c0,4.4,3.7,8.1,8.1,8.1c4.4,0,8.1-3.7,8.1-8.1c0-4.4-3.7-8.1-8.1-8.1
			C694.3,432.9,690.6,436.5,690.6,441z"/>
		<path class="st2" d="M624.8,502.7c0,4.4,3.7,8.1,8.1,8.1c4.4,0,8.1-3.8,8-8.2c-0.1-4.4-3.7-8-8.1-8
			C628.5,494.6,624.8,498.3,624.8,502.7z"/>
		<path class="st2" d="M780.3,347.1c-0.1,4.4,3.6,8.1,8.1,8.2c4.4,0,8.1-3.7,8.1-8.1c0-4.4-3.6-8-8-8.1
			C784.1,339,780.4,342.7,780.3,347.1z"/>
		<path class="st2" d="M669.7,455.7c0,4.4,3.6,8.1,8.1,8.1c4.4,0,8-3.6,8.1-8c0-4.4-3.6-8.1-8.1-8.1
			C673.4,447.7,669.8,451.3,669.7,455.7z"/>
		<path class="st2" d="M567.1,572.4c4.4,0,8-3.5,8.1-8c0-4.4-3.5-8-8-8.1c-4.4,0-8,3.5-8.1,8C559.1,568.8,562.6,572.4,567.1,572.4z"
			/>
		<path class="st2" d="M714.6,408.6c0,4.4,3.6,8,8,8c4.4,0,8-3.6,8-8c0-4.4-3.6-8-8-8C718.2,400.6,714.6,404.2,714.6,408.6z"/>
		<path class="st2" d="M611.8,509.5c-4.5,0.1-7.9,3.7-7.8,8.2c0.1,4.5,3.7,7.9,8.2,7.8c4.4-0.1,7.8-3.7,7.7-8.1
			C619.9,512.9,616.3,509.4,611.8,509.5z"/>
		<path class="st2" d="M767.5,353.8c-4.5,0-8,3.5-8,8c0,4.5,3.6,8,8,8c4.4,0,7.9-3.5,7.9-7.9C775.5,357.3,772,353.8,767.5,353.8z"/>
		<path class="st2" d="M648.9,470.4c0,4.5,3.6,7.9,8.1,7.9c4.4,0,7.9-3.6,7.8-8c0-4.5-3.6-7.9-8.1-7.9
			C652.4,462.4,648.9,466,648.9,470.4z"/>
		<path class="st2" d="M693.8,423.4c0,4.5,3.5,8,8,8c4.4,0,7.9-3.5,7.9-7.9c0-4.5-3.5-8-8-8C697.3,415.5,693.8,419,693.8,423.4z"/>
		<path class="st2" d="M591,524.1c-4.4,0-7.9,3.6-7.9,8c0,4.4,3.6,7.9,8,7.9c4.4,0,7.9-3.6,7.9-8C599,527.6,595.5,524.1,591,524.1z"
			/>
		<path class="st2" d="M738.7,376.3c0,4.4,3.5,7.9,7.9,7.9c4.4,0,7.9-3.5,7.9-7.9c0-4.4-3.5-7.9-7.9-7.9
			C742.2,368.3,738.7,371.9,738.7,376.3z"/>
		<path class="st2" d="M783.6,329.4c0,4.4,3.5,7.9,7.9,7.9c4.4,0,7.9-3.6,7.9-8c0-4.3-3.5-7.8-7.9-7.8
			C787.1,321.4,783.6,325,783.6,329.4z"/>
		<path class="st2" d="M636,493c4.4,0,7.9-3.6,7.9-8c0-4.4-3.6-7.9-8-7.8c-4.3,0-7.8,3.6-7.8,7.9C628.1,489.5,631.6,493,636,493z"/>
		<path class="st2" d="M680.8,445.8c4.4,0,7.9-3.6,7.9-8c0-4.3-3.6-7.8-7.9-7.8c-4.4,0-7.9,3.6-7.9,8
			C673,442.3,676.5,445.8,680.8,445.8z"/>
		<path class="st2" d="M562.3,546.6c0,4.3,3.6,7.9,7.9,7.9c4.4,0,7.9-3.6,7.9-8c0-4.3-3.6-7.8-7.9-7.8
			C565.8,538.7,562.3,542.3,562.3,546.6z"/>
		<path class="st2" d="M717.8,391.1c0,4.3,3.6,7.8,7.9,7.8c4.4,0,7.9-3.6,7.9-8c-0.1-4.3-3.7-7.8-8-7.8
			C721.3,383.2,717.8,386.8,717.8,391.1z"/>
		<path class="st2" d="M659.9,460.6c4.3,0,7.9-3.5,7.9-7.8c0-4.3-3.6-7.9-7.9-7.9c-4.3,0-7.8,3.5-7.8,7.8
			C652,456.9,655.6,460.6,659.9,460.6z"/>
		<path class="st2" d="M607.2,499.6c0,4.3,3.5,7.9,7.8,7.9c4.3,0,7.9-3.5,7.9-7.8c0-4.3-3.5-7.9-7.8-7.9
			C610.8,491.7,607.2,495.3,607.2,499.6z"/>
		<path class="st2" d="M770.5,351.7c4.3,0,7.9-3.5,7.9-7.8c0-4.3-3.5-7.9-7.8-7.9c-4.3,0-7.9,3.5-7.9,7.8
			C762.7,348.1,766.3,351.7,770.5,351.7z"/>
		<path class="st2" d="M697,405.5c0,4.3,3.6,7.9,7.9,7.9c4.3,0,7.8-3.5,7.8-7.8c0-4.3-3.6-7.9-7.9-7.9
			C700.5,397.8,697,401.3,697,405.5z"/>
		<path class="st2" d="M541.5,561.3c0,4.3,3.6,7.9,7.9,7.9c4.3,0,7.8-3.5,7.8-7.8c0-4.3-3.6-7.9-7.9-7.9
			C545,553.5,541.5,557,541.5,561.3z"/>
		<path class="st2" d="M586.4,514.2c0,4.3,3.5,7.8,7.8,7.8c4.3,0,7.9-3.6,7.8-7.9c-0.1-4.3-3.6-7.8-7.8-7.7
			C589.8,506.4,586.4,509.9,586.4,514.2z"/>
		<path class="st2" d="M741.9,358.7c0,4.3,3.5,7.8,7.8,7.8c4.3,0,7.9-3.5,7.8-7.9c0-4.3-3.6-7.8-7.8-7.7
			C745.4,350.9,741.9,354.4,741.9,358.7z"/>
		<path class="st2" d="M631.3,467.2c0,4.3,3.4,7.8,7.7,7.8c4.3,0,7.8-3.4,7.8-7.7c0-4.3-3.4-7.8-7.7-7.8
			C634.8,459.5,631.3,462.9,631.3,467.2z"/>
		<path class="st2" d="M683.9,412.6c-4.3,0-7.8,3.4-7.7,7.8c0,4.3,3.4,7.7,7.7,7.7c4.3,0,7.8-3.4,7.7-7.8
			C691.6,416,688.2,412.6,683.9,412.6z"/>
		<path class="st2" d="M721.1,373.3c0,4.3,3.4,7.6,7.7,7.6c4.3,0,7.7-3.5,7.7-7.8c-0.1-4.3-3.5-7.6-7.8-7.6
			C724.4,365.5,721,369,721.1,373.3z"/>
		<path class="st2" d="M573.2,521.3c-4.3,0-7.6,3.4-7.6,7.7c0,4.3,3.5,7.7,7.8,7.7c4.3-0.1,7.6-3.5,7.6-7.8
			C580.9,524.6,577.5,521.2,573.2,521.3z"/>
		<path class="st2" d="M618.1,474.1c-4.3,0-7.6,3.4-7.6,7.7c0,4.3,3.4,7.6,7.7,7.6c4.3,0,7.6-3.4,7.6-7.7
			C625.8,477.5,622.4,474.1,618.1,474.1z"/>
		<path class="st2" d="M773.6,334c4.3,0,7.7-3.4,7.7-7.6c0-4.3-3.4-7.7-7.6-7.7c-4.3,0-7.7,3.4-7.7,7.6
			C766,330.5,769.3,334,773.6,334z"/>
		<path class="st2" d="M655.3,434.9c0,4.3,3.4,7.6,7.7,7.6c4.3,0,7.6-3.4,7.6-7.7c0-4.3-3.4-7.6-7.7-7.6
			C658.7,427.2,655.3,430.7,655.3,434.9z"/>
		<path class="st2" d="M552.3,535.8c-4.2,0-7.6,3.5-7.6,7.7c0,4.2,3.5,7.6,7.7,7.6c4.2,0,7.6-3.4,7.6-7.7
			C560,539.2,556.6,535.8,552.3,535.8z"/>
		<path class="st2" d="M707.8,380.3c-4.2,0-7.6,3.5-7.6,7.8c0,4.2,3.5,7.6,7.8,7.5c4.2-0.1,7.5-3.5,7.5-7.7
			C715.5,383.7,712,380.3,707.8,380.3z"/>
		<path class="st2" d="M589.6,496.6c0,4.2,3.4,7.6,7.6,7.6c4.2,0,7.7-3.5,7.7-7.7c0-4.2-3.5-7.6-7.7-7.6
			C593,489,589.6,492.4,589.6,496.6z"/>
		<path class="st2" d="M752.9,348.5c4.2,0,7.7-3.4,7.7-7.6c0-4.3-3.4-7.7-7.7-7.7c-4.2,0-7.6,3.4-7.6,7.6
			C745.3,345,748.7,348.4,752.9,348.5z"/>
		<path class="st2" d="M642.4,441.8c-4.2,0-7.6,3.4-7.7,7.6c0,4.2,3.4,7.6,7.6,7.6c4.2,0,7.6-3.4,7.7-7.6
			C650,445.3,646.5,441.8,642.4,441.8z"/>
		<path class="st2" d="M687.3,394.9c-4.1,0-7.6,3.4-7.6,7.6c0,4.2,3.5,7.6,7.6,7.6c4.1,0,7.5-3.4,7.6-7.5
			C694.9,398.4,691.4,394.9,687.3,394.9z"/>
		<path class="st2" d="M724.5,355.7c0,4.2,3.6,7.6,7.7,7.6c4.1-0.1,7.5-3.5,7.5-7.6c0-4.2-3.6-7.6-7.7-7.6
			C727.8,348.1,724.5,351.5,724.5,355.7z"/>
		<path class="st2" d="M576.5,503.5c-4.2,0.1-7.6,3.6-7.5,7.7c0.1,4.1,3.6,7.5,7.7,7.5c4.2-0.1,7.6-3.6,7.5-7.7
			C584.1,506.8,580.6,503.5,576.5,503.5z"/>
		<path class="st2" d="M776.9,300.9c-4.1,0-7.5,3.4-7.5,7.6c0,4.2,3.5,7.6,7.7,7.6c4.1-0.1,7.5-3.5,7.5-7.6
			C784.5,304.3,781,300.9,776.9,300.9z"/>
		<path class="st2" d="M621.5,471.8c4.1,0,7.5-3.5,7.5-7.6c0-4.2-3.5-7.6-7.7-7.6c-4.2,0.1-7.5,3.5-7.5,7.6
			C613.9,468.4,617.4,471.8,621.5,471.8z"/>
		<path class="st2" d="M658.8,417c0,4.1,3.4,7.5,7.5,7.5c4.1,0,7.5-3.4,7.5-7.5c0-4.1-3.4-7.5-7.5-7.5
			C662.2,409.5,658.8,412.9,658.8,417z"/>
		<path class="st2" d="M555.7,518.2c-4.2,0-7.5,3.3-7.5,7.5c0,4.1,3.3,7.4,7.4,7.5c4.2,0,7.5-3.3,7.5-7.5
			C563.2,521.5,559.9,518.2,555.7,518.2z"/>
		<path class="st2" d="M711.3,377.6c4.2-0.1,7.5-3.5,7.3-7.7c-0.1-4.1-3.5-7.4-7.6-7.3c-4.2,0.1-7.5,3.5-7.3,7.7
			C703.8,374.5,707.2,377.7,711.3,377.6z"/>
		<path class="st2" d="M756.1,315.8c-4.2,0-7.5,3.2-7.5,7.4c0,4.2,3.3,7.5,7.5,7.5c4.2,0,7.4-3.3,7.4-7.4
			C763.5,319.1,760.2,315.8,756.1,315.8z"/>
		<path class="st2" d="M593.1,478.7c0,4.2,3.3,7.4,7.4,7.5c4.2,0,7.5-3.3,7.5-7.5c0-4.1-3.3-7.4-7.5-7.4
			C596.4,471.3,593.1,474.6,593.1,478.7z"/>
		<path class="st2" d="M523.9,558.1c0.1,2.1,0.6,3.8,2.9,4.6c1.6,0.6,3,1.6,4.5,2.3c0.7,0.3,1.6,0.4,2.3,0.2c3.8-1,6.1-4.8,5.3-8.8
			c-0.7-3.7-4.3-6.4-7.9-6.1C526.9,550.8,523.8,554.1,523.9,558.1z"/>
		<path class="st2" d="M527.3,540.4c0,4.1,3.3,7.4,7.4,7.4c4.1,0,7.4-3.3,7.4-7.4c0-4.1-3.3-7.4-7.4-7.4
			C530.6,533,527.3,536.3,527.3,540.4z"/>
		<path class="st2" d="M638,431.9c0,4.1,3.3,7.4,7.5,7.4c4.1,0,7.4-3.3,7.4-7.5c0-4.1-3.3-7.4-7.5-7.4
			C641.2,424.4,638,427.7,638,431.9z"/>
		<path class="st2" d="M682.9,384.7c0,4.1,3.3,7.4,7.5,7.4c4.1,0,7.4-3.4,7.3-7.5c0-4.1-3.3-7.3-7.4-7.3
			C686.2,377.3,682.9,380.6,682.9,384.7z"/>
		<path class="st2" d="M742.5,337.7c0-4.1-3.4-7.4-7.5-7.3c-4.1,0.1-7.3,3.4-7.3,7.5c0,4.1,3.4,7.4,7.5,7.3
			C739.3,345.1,742.6,341.8,742.5,337.7z"/>
		<path class="st2" d="M587,493.2c0-4.1-3.4-7.4-7.5-7.3c-4.1,0-7.3,3.4-7.3,7.5c0,4.1,3.4,7.4,7.5,7.3
			C583.8,500.6,587.1,497.3,587,493.2z"/>
		<path class="st2" d="M617.1,446.5c0,4,3.4,7.3,7.5,7.3c4.1,0,7.4-3.4,7.3-7.6c-0.1-4-3.5-7.3-7.5-7.2
			C620.3,439,617.1,442.4,617.1,446.5z"/>
		<path class="st2" d="M662,399.4c0,4,3.3,7.4,7.3,7.4c4,0,7.4-3.3,7.4-7.3c0-4-3.3-7.4-7.3-7.4C665.4,392.1,662,395.4,662,399.4z"
			/>
		<path class="st2" d="M714.2,359.7c4,0,7.4-3.4,7.3-7.4c0-4-3.4-7.4-7.4-7.3c-4,0-7.3,3.4-7.3,7.3
			C706.9,356.3,710.2,359.7,714.2,359.7z"/>
		<path class="st2" d="M566.1,508c0-4-3.4-7.4-7.4-7.4c-4,0-7.4,3.4-7.3,7.4c0,4,3.3,7.3,7.3,7.3C562.7,515.4,566.1,512.1,566.1,508
			z"/>
		<path class="st2" d="M751.8,305.4c0,4,3.4,7.3,7.3,7.3c4,0,7.4-3.4,7.3-7.4c-0.1-4-3.4-7.3-7.4-7.2
			C755,298.1,751.7,301.5,751.8,305.4z"/>
		<path class="st2" d="M596.3,460.9c0,4,3.3,7.3,7.3,7.3c4,0,7.4-3.4,7.4-7.4c0-4-3.4-7.3-7.3-7.3
			C599.6,453.6,596.3,456.9,596.3,460.9z"/>
		<path class="st2" d="M693.5,374.4c4.1-0.1,7.3-3.5,7.1-7.5c-0.2-4.1-3.6-7.2-7.5-7.1c-4,0.2-7.1,3.5-7,7.4
			C686.2,371.3,689.5,374.5,693.5,374.4z"/>
		<path class="st2" d="M545.1,522.6c0-4-3.3-7.3-7.3-7.3c-4,0-7.3,3.3-7.3,7.3c0,4,3.2,7.2,7.2,7.2
			C541.8,529.9,545.1,526.6,545.1,522.6z"/>
		<path class="st2" d="M641.2,414.2c0.2,4.1,3.5,7.3,7.5,7.1c4.1-0.2,7.3-3.5,7.1-7.5c-0.2-4.1-3.5-7.3-7.5-7.1
			C644.2,406.9,641,410.2,641.2,414.2z"/>
		<path class="st2" d="M575.5,475.6c0,4,3.1,7.2,7.1,7.3c4,0.1,7.3-3.1,7.3-7.2c0-4-3.2-7.3-7.3-7.3
			C578.7,468.5,575.5,471.6,575.5,475.6z"/>
		<path class="st2" d="M731,319.9c0,4.1,3.2,7.3,7.3,7.3c4,0,7.2-3.2,7.2-7.2c0-4-3.2-7.3-7.3-7.3C734.2,312.7,731,315.9,731,319.9z
			"/>
		<path class="st2" d="M627.5,435.7c4,0,7.2-3.1,7.3-7.1c0-4.1-3.1-7.3-7.2-7.3c-4,0-7.2,3.2-7.2,7.2
			C620.3,432.5,623.5,435.7,627.5,435.7z"/>
		<path class="st2" d="M665.3,381.6c0,4,3.2,7.2,7.2,7.1c4,0,7.1-3.2,7.1-7.3c0-3.9-3.2-7.1-7.2-7.1
			C668.4,374.4,665.2,377.6,665.3,381.6z"/>
		<path class="st2" d="M517,530.2c-4,0-7.2,3.2-7.2,7.2c0,4,3.2,7.2,7.2,7.2c4,0,7.1-3.2,7.1-7.1C524.1,533.4,521,530.2,517,530.2z"
			/>
		<path class="st2" d="M717.3,341.9c4,0,7.1-3.2,7.1-7.3c0-3.9-3.2-7.1-7.2-7c-4,0-7.1,3.2-7.1,7.3
			C710.2,338.7,713.4,341.9,717.3,341.9z"/>
		<path class="st2" d="M554.6,490.2c0,4,3.2,7.2,7.2,7.1c3.9,0,7.1-3.2,7.1-7.2c0-4-3.2-7.2-7.2-7.1
			C557.8,483.1,554.6,486.3,554.6,490.2z"/>
		<path class="st2" d="M651.5,389c-3.9,0-7.1,3.2-7.1,7.1c0,4,3.2,7.2,7.2,7.1c3.9,0,7.1-3.3,7.1-7.2
			C658.6,392.2,655.4,389,651.5,389z"/>
		<path class="st2" d="M755,287.6c0,3.9,3.2,7.1,7.2,7.1c4,0,7.2-3.3,7.1-7.3c0-3.9-3.3-7.1-7.2-7C758.2,280.4,755,283.7,755,287.6z
			"/>
		<path class="st2" d="M599.5,443.3c0,3.9,3.2,7.1,7.1,7.2c4,0,7.2-3.2,7.2-7.2c0-3.9-3.2-7.1-7.1-7.1
			C602.7,436.2,599.5,439.3,599.5,443.3z"/>
		<path class="st2" d="M689.3,349.2c0,3.9,3.2,7.1,7.1,7.1c3.9,0,7.1-3.2,7.1-7.1c0-3.9-3.2-7.1-7.1-7.1
			C692.5,342.1,689.3,345.3,689.3,349.2z"/>
		<path class="st2" d="M533.8,505c0,3.9,3.2,7.1,7.1,7.2c3.9,0,7.1-3.2,7.2-7.1c0-3.9-3.2-7.1-7.1-7.2
			C537,497.9,533.8,501,533.8,505z"/>
		<path class="st2" d="M734.2,302.3c0,3.9,3.2,7.2,7.1,7.1c3.9,0,7.1-3.2,7.1-7.1c0-3.9-3.2-7.2-7.1-7.1
			C737.4,295.2,734.2,298.4,734.2,302.3z"/>
		<path class="st2" d="M585.7,464.9c3.9,0,7.2-3.3,7.1-7.1c0-3.9-3.2-7-7.1-7.1c-3.9,0-7.2,3.3-7.1,7.1
			C578.7,461.7,581.9,464.9,585.7,464.9z"/>
		<path class="st2" d="M623.5,410.9c0,3.8,3.1,7.1,7,7.1c3.9,0.1,7.2-3.2,7.1-7.1c0-3.8-3.2-7-7.1-7.1
			C626.8,403.8,623.6,407,623.5,410.9z"/>
		<path class="st2" d="M668.5,363.8c0,3.9,3.3,7.1,7.1,7c3.9-0.1,7-3.3,7-7.1c-0.1-3.8-3.2-6.9-7-6.9
			C671.6,356.7,668.4,359.9,668.5,363.8z"/>
		<path class="st2" d="M527,519.4c-0.1-3.9-3.3-7-7.2-6.9c-3.9,0.1-7,3.4-6.9,7.2c0.1,3.9,3.3,6.9,7.1,6.9
			C523.9,526.5,527.1,523.3,527,519.4z"/>
		<path class="st2" d="M713.6,316.9c0,3.9,3.2,7,7.1,7c3.9-0.1,6.9-3.2,6.9-7c0-3.9-3.2-7-7.1-7C716.7,309.9,713.6,313,713.6,316.9z
			"/>
		<path class="st2" d="M603,425.4c0,3.9,3,7,6.9,7c3.9,0,7.1-3.1,7-7c0-3.9-3.1-6.9-7-6.9C606.1,418.5,603,421.6,603,425.4z"/>
		<path class="st2" d="M661.8,378.5c0-3.9-3.1-6.9-7-6.9c-3.9,0-6.9,3.1-6.9,7c0,3.9,3.1,6.9,7,6.9
			C658.8,385.5,661.8,382.4,661.8,378.5z"/>
		<path class="st2" d="M557.9,472.6c0,3.9,3.1,7,7,7c3.9,0,6.9-3.1,6.9-7c0-3.9-3.1-7-7-7C561,465.7,557.9,468.7,557.9,472.6z"/>
		<path class="st2" d="M499.1,527.1c-3.9,0-6.9,3.1-6.9,6.9c0,3.9,3.1,6.9,7,6.9c3.8,0,6.8-3.1,6.9-6.9
			C506,530.2,503,527.1,499.1,527.1z"/>
		<path class="st2" d="M537.3,487.1c0,3.9,3.1,6.9,6.9,6.9c3.9,0,6.9-3.1,6.9-7c0-3.8-3.1-6.8-6.9-6.9
			C540.4,480.2,537.3,483.3,537.3,487.1z"/>
		<path class="st2" d="M692.8,331.4c0,3.9,3.1,6.9,7,6.9c3.9,0,6.9-3.1,6.9-7c0-3.8-3.1-6.8-6.9-6.8
			C695.8,324.5,692.8,327.5,692.8,331.4z"/>
		<path class="st2" d="M744.6,277.6c-3.8,0-6.9,3.1-6.9,6.9c0,3.9,3.1,6.9,7,6.9c3.8,0,6.8-3.1,6.8-6.9
			C751.5,280.6,748.4,277.6,744.6,277.6z"/>
		<path class="st2" d="M582.2,440.2c0,3.8,3,6.9,6.9,6.9c3.9,0,6.9-3.1,6.9-7c0-3.8-3.1-6.8-6.9-6.8
			C585.2,433.4,582.2,436.4,582.2,440.2z"/>
		<path class="st2" d="M633.9,386.2c-3.8,0-6.8,3.1-6.8,6.9c0,3.8,3.1,6.8,6.9,6.8c3.8,0,6.9-3.1,6.8-6.9
			C640.8,389.2,637.7,386.2,633.9,386.2z"/>
		<path class="st2" d="M523.3,494.8c-3.8,0-6.9,3.1-6.9,6.9c0,3.8,3.2,6.9,6.9,6.8c3.7,0,6.8-3.1,6.8-6.8
			C530.2,497.9,527.1,494.8,523.3,494.8z"/>
		<path class="st2" d="M671.9,346.2c0,3.8,3.2,6.9,7,6.8c3.8-0.1,6.8-3.2,6.8-7c-0.1-3.7-3.2-6.8-6.9-6.7
			C675,339.3,671.9,342.5,671.9,346.2z"/>
		<path class="st2" d="M568.1,447.9c-3.8,0-6.9,3.2-6.8,6.9c0,3.7,3.1,6.8,6.9,6.8c3.8,0,6.9-3.2,6.8-6.9
			C575,451,571.9,447.9,568.1,447.9z"/>
		<path class="st2" d="M723.7,305.9c3.7,0,6.8-3.1,6.8-6.8c0-3.8-3.2-6.9-6.9-6.9c-3.7,0-6.8,3.2-6.8,6.9
			C716.8,302.8,720,305.9,723.7,305.9z"/>
		<path class="st2" d="M613.1,414.5c3.7,0,6.8-3.1,6.8-6.9c0-3.8-3.2-6.9-6.9-6.8c-3.7,0.1-6.8,3.2-6.7,6.9
			C606.2,411.4,609.4,414.5,613.1,414.5z"/>
		<path class="st2" d="M495.6,516.5c0,3.7,3.1,6.8,6.8,6.8c3.7,0,6.8-3.1,6.8-6.8c0-3.7-3.1-6.8-6.8-6.8
			C498.7,509.7,495.6,512.7,495.6,516.5z"/>
		<path class="st2" d="M657.9,353.9c-3.7,0-6.8,3.1-6.8,6.8c0,3.7,3.1,6.8,6.8,6.8c3.7,0,6.8-3.1,6.8-6.8
			C664.7,357,661.6,353.9,657.9,353.9z"/>
		<path class="st2" d="M547.2,476.1c3.7,0,6.8-3,6.8-6.8c0-3.7-3-6.7-6.7-6.8c-3.7,0-6.8,3-6.8,6.8C540.5,473,543.5,476,547.2,476.1
			z"/>
		<path class="st2" d="M696,314c0.1,3.8,3.3,6.8,7,6.6c3.7-0.2,6.7-3.2,6.5-6.9c-0.1-3.8-3.3-6.8-7-6.6
			C698.8,307.2,695.9,310.3,696,314z"/>
		<path class="st2" d="M592.2,415.7c-3.8,0-6.7,2.9-6.8,6.7c0,3.8,2.9,6.7,6.7,6.8c3.8,0,6.7-2.9,6.8-6.7
			C598.9,418.7,595.9,415.7,592.2,415.7z"/>
		<path class="st2" d="M740.9,266.7c0,3.7,3,6.7,6.8,6.7c3.7,0,6.7-3,6.7-6.8c0-3.7-3-6.7-6.8-6.7
			C743.8,260,740.9,262.9,740.9,266.7z"/>
		<path class="st2" d="M643.7,375.2c0-3.7-3-6.7-6.8-6.6c-3.7,0-6.6,3-6.6,6.8c0.1,3.7,3,6.6,6.7,6.5
			C640.8,381.9,643.7,378.9,643.7,375.2z"/>
		<path class="st2" d="M720.1,281.4c0,3.7,3,6.7,6.7,6.7c3.7,0,6.6-3,6.6-6.7c0-3.7-3-6.7-6.7-6.6
			C723,274.8,720.1,277.7,720.1,281.4z"/>
		<path class="st2" d="M571.3,443.6c3.7,0,6.7-3,6.6-6.7c0-3.7-3-6.6-6.7-6.6c-3.7,0-6.7,3-6.6,6.7
			C564.6,440.7,567.6,443.6,571.3,443.6z"/>
		<path class="st2" d="M681.9,321.7c-3.7,0-6.7,3-6.7,6.7c0,3.7,3,6.6,6.6,6.6c3.7,0,6.7-3,6.7-6.7
			C688.5,324.6,685.6,321.7,681.9,321.7z"/>
		<path class="st2" d="M519.7,484.1c0,3.7,3,6.7,6.7,6.6c3.7,0,6.6-3,6.6-6.7c0-3.7-3-6.7-6.7-6.6
			C522.6,477.5,519.7,480.4,519.7,484.1z"/>
		<path class="st2" d="M505.5,505.2c3.6,0,6.6-3,6.6-6.7c0-3.6-3.1-6.6-6.7-6.6c-3.6,0-6.5,3-6.5,6.6
			C498.8,502.3,501.8,505.2,505.5,505.2z"/>
		<path class="st2" d="M661,336.2c-3.6,0-6.7,3-6.7,6.6c0,3.6,3,6.6,6.6,6.6c3.6,0,6.6-3,6.6-6.5C667.6,339.3,664.6,336.3,661,336.2
			z"/>
		<path class="st2" d="M609.5,390.1c0,3.7,3,6.6,6.7,6.6c3.7,0,6.6-3,6.6-6.7c0-3.7-3-6.6-6.7-6.6
			C612.4,383.4,609.4,386.4,609.5,390.1z"/>
		<path class="st2" d="M543.7,451.7c0,3.6,3,6.6,6.6,6.6c3.6,0,6.7-3.1,6.6-6.7c-0.1-3.6-3.1-6.5-6.7-6.5
			C546.7,445.2,543.7,448.2,543.7,451.7z"/>
		<path class="st2" d="M699.2,295.9c0,3.6,2.9,6.6,6.5,6.6c3.6,0,6.7-3,6.7-6.6c0-3.6-3-6.6-6.6-6.6
			C702.2,289.4,699.2,292.3,699.2,295.9z"/>
		<path class="st2" d="M595.2,398c-3.6,0-6.6,3-6.6,6.6c0,3.6,3,6.6,6.6,6.6c3.6,0,6.6-3,6.6-6.6C601.7,401,598.7,398,595.2,398z"/>
		<path class="st2" d="M484.6,506.6c-3.6,0-6.6,3-6.6,6.6c0,3.6,2.9,6.5,6.5,6.5c3.6,0,6.6-3,6.6-6.6
			C491.1,509.6,488.1,506.7,484.6,506.6z"/>
		<path class="st2" d="M529.4,459.7c-3.6,0-6.6,3.1-6.5,6.6c0.1,3.6,3,6.5,6.6,6.4c3.6,0,6.6-3.1,6.5-6.6
			C535.9,462.6,532.9,459.7,529.4,459.7z"/>
		<path class="st2" d="M640.1,351.1c-3.6,0-6.6,3-6.6,6.5c0,3.6,2.9,6.5,6.5,6.5c3.6,0,6.6-3,6.6-6.5
			C646.6,354.1,643.7,351.2,640.1,351.1z"/>
		<path class="st2" d="M729.8,270.1c3.6,0,6.5-2.9,6.5-6.5c0-3.6-2.9-6.5-6.5-6.5c-3.6,0-6.5,2.9-6.5,6.5
			C723.3,267.2,726.2,270.1,729.8,270.1z"/>
		<path class="st2" d="M685,304c-3.6,0-6.5,2.8-6.5,6.4c0,3.6,2.8,6.5,6.4,6.5c3.6,0,6.5-2.8,6.5-6.4
			C691.4,306.9,688.6,304.1,685,304z"/>
		<path class="st2" d="M567.8,419.3c0,3.6,2.9,6.5,6.5,6.5c3.6,0,6.5-2.9,6.5-6.5c0-3.6-2.9-6.5-6.5-6.5
			C570.7,412.9,567.8,415.7,567.8,419.3z"/>
		<path class="st2" d="M619.1,378.6c3.6,0,6.5-2.8,6.5-6.4c0-3.6-2.8-6.4-6.5-6.4c-3.6,0-6.4,2.8-6.4,6.4
			C612.7,375.7,615.5,378.6,619.1,378.6z"/>
		<path class="st2" d="M657.6,325.2c0,3.6,2.8,6.4,6.3,6.5c3.6,0,6.5-2.8,6.5-6.4c0-3.6-2.8-6.4-6.4-6.4
			C660.5,318.9,657.6,321.7,657.6,325.2z"/>
		<path class="st2" d="M508.5,487.2c3.6,0,6.4-2.8,6.4-6.4c0-3.6-2.8-6.5-6.5-6.4c-3.6,0-6.3,2.9-6.3,6.4
			C502.1,484.4,504.9,487.2,508.5,487.2z"/>
		<path class="st2" d="M702.5,278.2c0,3.5,2.9,6.3,6.5,6.3c3.5,0,6.3-2.9,6.3-6.5c0-3.5-2.9-6.3-6.5-6.3
			C705.3,271.8,702.5,274.6,702.5,278.2z"/>
		<path class="st2" d="M547,433.9c0,3.5,2.8,6.4,6.4,6.4c3.5,0,6.4-2.8,6.4-6.4c0-3.5-2.8-6.4-6.4-6.4
			C549.8,427.5,547,430.3,547,433.9z"/>
		<path class="st2" d="M591.9,387c0,3.5,2.9,6.4,6.5,6.3c3.5,0,6.3-2.9,6.3-6.4c0-3.5-2.9-6.4-6.5-6.3
			C594.7,380.7,591.9,383.5,591.9,387z"/>
		<path class="st2" d="M681.9,292.9c0,3.4,2.9,6.3,6.3,6.3c3.5,0,6.4-2.9,6.4-6.4c0-3.5-2.9-6.3-6.4-6.3
			C684.7,286.6,681.9,289.5,681.9,292.9z"/>
		<path class="st2" d="M526.1,448.3c0,3.4,2.8,6.3,6.3,6.4c3.5,0.1,6.4-2.9,6.4-6.4c0-3.4-2.9-6.3-6.3-6.3
			C529,442,526.2,444.9,526.1,448.3z"/>
		<path class="st2" d="M636.8,339.8c0,3.4,2.9,6.3,6.3,6.3c3.5,0,6.4-2.9,6.4-6.4c0-3.5-2.9-6.3-6.4-6.3
			C639.6,333.5,636.8,336.4,636.8,339.8z"/>
		<path class="st2" d="M481.3,495.6c0,3.5,2.9,6.3,6.3,6.4c3.5,0,6.4-2.9,6.4-6.4c0-3.5-2.9-6.3-6.4-6.3
			C484.1,489.2,481.3,492.1,481.3,495.6z"/>
		<path class="st2" d="M733.1,239.4c-3.5,0-6.3,2.9-6.3,6.4c0,3.5,3,6.3,6.4,6.3c3.4-0.1,6.2-2.9,6.2-6.3
			C739.4,242.3,736.5,239.4,733.1,239.4z"/>
		<path class="st2" d="M571.3,401.5c0,3.4,2.9,6.3,6.3,6.4c3.4,0,6.3-2.9,6.3-6.3c0-3.4-2.8-6.2-6.2-6.3
			C574.2,395.1,571.3,398,571.3,401.5z"/>
		<path class="st2" d="M616.2,354.6c0,3.4,2.9,6.2,6.3,6.2c3.5,0,6.3-2.9,6.3-6.4c-0.1-3.4-2.9-6.2-6.3-6.2
			C619,348.4,616.2,351.2,616.2,354.6z"/>
		<path class="st2" d="M661.1,307.4c0,3.5,2.7,6.2,6.2,6.3c3.5,0,6.2-2.7,6.3-6.2c0-3.5-2.7-6.2-6.2-6.3
			C663.9,301.2,661.1,303.9,661.1,307.4z"/>
		<path class="st2" d="M511.8,457c-3.5,0-6.2,2.8-6.2,6.3c0,3.5,2.8,6.2,6.3,6.2c3.5,0,6.2-2.8,6.2-6.3
			C518,459.7,515.2,456.9,511.8,457z"/>
		<path class="st2" d="M706,260.6c0,3.5,2.8,6.2,6.3,6.1c3.4,0,6.1-2.8,6.1-6.2c0-3.5-2.8-6.2-6.3-6.1
			C708.7,254.4,706,257.1,706,260.6z"/>
		<path class="st2" d="M556.6,422.2c3.5,0,6.2-2.7,6.2-6.2c0-3.4-2.7-6.1-6.1-6.2c-3.5,0-6.2,2.7-6.2,6.2
			C550.5,419.5,553.2,422.2,556.6,422.2z"/>
		<path class="st2" d="M646.5,328.4c3.4,0,6.1-2.7,6.1-6.2c0-3.5-2.8-6.2-6.3-6.1c-3.4,0-6.1,2.8-6,6.2
			C640.3,325.7,643,328.4,646.5,328.4z"/>
		<path class="st2" d="M601.6,363c-3.4,0-6.2,2.7-6.2,6.1c0,3.5,2.7,6.2,6.2,6.2c3.4,0,6.1-2.7,6.1-6.1
			C607.7,365.7,605,363,601.6,363z"/>
		<path class="st2" d="M491,483.9c3.4,0,6.1-2.7,6.1-6.2c0-3.5-2.8-6.2-6.3-6.1c-3.4,0-6.1,2.8-6,6.2
			C484.8,481.2,487.5,483.9,491,483.9z"/>
		<path class="st2" d="M691.3,281.2c3.4,0,6.1-2.8,6.1-6.2c0-3.4-2.8-6.1-6.2-6.1c-3.3,0-6,2.8-6,6.1
			C685.2,278.5,687.9,281.2,691.3,281.2z"/>
		<path class="st2" d="M535.8,424.7c-3.4,0-6.1,2.8-6.1,6.2c0,3.4,2.8,6.1,6.2,6.1c3.3,0,6-2.8,6-6.1
			C541.9,427.4,539.2,424.7,535.8,424.7z"/>
		<path class="st2" d="M574.5,383.6c0,3.4,2.8,6.2,6.1,6.1c3.3,0,6.1-2.8,6.1-6.1c0-3.4-2.8-6.2-6.1-6.1
			C577.3,377.6,574.6,380.3,574.5,383.6z"/>
		<path class="st2" d="M470,498.3c3.3,0,6.1-2.8,6.1-6.1c0-3.3-2.8-6.1-6.1-6.1c-3.3,0-6.1,2.8-6.1,6.1
			C464,495.6,466.7,498.3,470,498.3z"/>
		<path class="st2" d="M619.4,336.7c0,3.3,2.8,6.1,6.1,6.1c3.3,0,6.1-2.8,6.1-6.1c0-3.3-2.8-6.1-6.1-6.1
			C622.2,330.7,619.4,333.4,619.4,336.7z"/>
		<path class="st2" d="M514.9,439.3c-3.3,0-6.1,2.8-6.1,6.1c0,3.3,2.7,6,6,6c3.3,0,6.1-2.8,6.1-6.1
			C520.9,442,518.2,439.3,514.9,439.3z"/>
		<path class="st2" d="M664.3,289.8c0,3.3,2.8,6.1,6.1,6.1c3.3,0,6-2.8,6-6c0-3.3-2.8-6.1-6.1-6.1
			C667.1,283.8,664.3,286.6,664.3,289.8z"/>
		<path class="st2" d="M559.8,404.5c3.3,0,6-2.7,6-6c0-3.3-2.8-6.1-6.1-6c-3.3,0.1-6,2.8-5.9,6.1
			C553.8,401.8,556.5,404.5,559.8,404.5z"/>
		<path class="st2" d="M715.3,236.7c-3.3,0-6,2.6-6,5.9c0,3.3,2.7,6.1,6,6.1c3.3,0,6-2.7,6-6C721.3,239.4,718.6,236.7,715.3,236.7z"
			/>
		<path class="st2" d="M604.7,357.3c3.3,0,6-2.8,5.9-6.1c0-3.3-2.8-6-6.1-5.9c-3.3,0-6,2.8-5.9,6.1
			C598.7,354.6,601.4,357.3,604.7,357.3z"/>
		<path class="st2" d="M488,459.8c0,3.3,2.6,6,5.9,6c3.3,0,6-2.6,6-5.9c0-3.3-2.6-5.9-5.9-5.9C490.7,453.9,488.1,456.5,488,459.8z"
			/>
		<path class="st2" d="M643.5,304.4c0,3.3,2.7,6,6,5.9c3.3,0,5.9-2.7,5.9-6c0-3.3-2.7-5.9-5.9-5.9
			C646.2,298.4,643.5,301.1,643.5,304.4z"/>
		<path class="st2" d="M804.5,342.2c-4.6,0.9-7.5,5.3-6.5,9.8c1,4.5,5.5,7.4,10.1,6.2C806.8,352.8,805.7,347.5,804.5,342.2z"/>
		<path class="st2" d="M532.9,413c0,3.3,2.6,5.9,5.9,5.8c3.3,0,5.9-2.7,5.9-6c0-3.3-2.7-5.8-6-5.8
			C535.5,407.1,532.9,409.7,532.9,413z"/>
		<path class="st2" d="M688.4,257.5c0,3.3,2.6,5.9,5.9,5.9c3.3,0,5.9-2.7,5.9-6c0-3.3-2.7-5.8-6-5.8
			C691,251.6,688.4,254.2,688.4,257.5z"/>
		<path class="st2" d="M577.8,366.1c0,3.3,2.7,5.8,6,5.8c3.3,0,5.8-2.7,5.8-6c-0.1-3.2-2.7-5.8-5.9-5.7
			C580.4,360.2,577.8,362.8,577.8,366.1z"/>
		<path class="st2" d="M467.2,474.7c0,3.3,2.7,5.9,5.9,5.9c3.2,0,5.8-2.7,5.8-5.9c0-3.3-2.7-5.9-5.9-5.9
			C469.8,468.8,467.2,471.5,467.2,474.7z"/>
		<path class="st2" d="M622.7,318.9c0,3.3,2.7,5.9,6,5.8c3.2,0,5.8-2.7,5.8-5.9c0-3.3-2.7-5.9-6-5.8
			C625.3,313.1,622.7,315.7,622.7,318.9z"/>
		<path class="st2" d="M785.1,295.8c-2.6-4.1-5.1-8.1-7.6-12.1c-3,1.1-4.8,3.7-4.8,6.7c-0.1,2.9,1.6,5.7,4.4,6.9
			C779.8,298.5,782.7,298,785.1,295.8z"/>
		<path class="st2" d="M517.9,433.3c3.2,0,5.9-2.6,5.9-5.8c0-3.2-2.6-5.9-5.8-5.9c-3.2,0-5.9,2.6-5.9,5.8
			C512.1,430.7,514.7,433.3,517.9,433.3z"/>
		<path class="st2" d="M562.8,386.4c3.2,0,5.9-2.6,5.9-5.8c0-3.2-2.6-5.9-5.8-5.9c-3.2,0-5.9,2.6-5.9,5.8
			C556.9,383.7,559.6,386.4,562.8,386.4z"/>
		<path class="st2" d="M673.6,277.8c3.2-0.1,5.8-2.8,5.7-6c-0.1-3.2-2.8-5.8-6-5.7c-3.2,0.1-5.8,2.8-5.7,6
			C667.7,275.3,670.4,277.9,673.6,277.8z"/>
		<path class="st2" d="M607.7,327.9c-3.2,0-5.9,2.6-5.9,5.8c0,3.1,2.6,5.8,5.8,5.8c3.2,0,5.9-2.6,5.9-5.8
			C613.5,330.5,610.9,327.9,607.7,327.9z"/>
		<path class="st2" d="M646.8,286.7c0.1,3.2,2.8,5.7,5.9,5.6c3.2-0.1,5.7-2.8,5.6-5.9c-0.1-3.2-2.8-5.7-5.9-5.6
			C649.2,280.9,646.7,283.6,646.8,286.7z"/>
		<path class="st2" d="M491.3,442.2c0,3.1,2.6,5.8,5.7,5.8c3.1,0,5.8-2.6,5.8-5.7c0-3.1-2.6-5.8-5.7-5.8
			C494,436.5,491.3,439.1,491.3,442.2z"/>
		<path class="st2" d="M691.7,239.6c0,3.2,2.6,5.7,5.8,5.7c3.2,0,5.7-2.6,5.7-5.8c-0.1-3.1-2.6-5.6-5.7-5.6
			C694.2,233.9,691.7,236.5,691.7,239.6z"/>
		<path class="st2" d="M541.9,389.4c-3.2,0-5.7,2.6-5.7,5.8c0,3.2,2.6,5.7,5.8,5.6c3.1-0.1,5.6-2.6,5.6-5.7
			C547.6,391.9,545.1,389.4,541.9,389.4z"/>
		<path class="st2" d="M581.1,348.2c0,3.2,2.5,5.7,5.6,5.7c3.2,0,5.7-2.5,5.7-5.7c0-3.2-2.5-5.6-5.7-5.6
			C583.6,342.6,581.1,345,581.1,348.2z"/>
		<path class="st2" d="M470.5,456.8c0,3.2,2.5,5.6,5.6,5.6c3.2,0,5.6-2.5,5.6-5.6c0-3.2-2.5-5.6-5.6-5.6
			C473,451.2,470.5,453.7,470.5,456.8z"/>
		<path class="st2" d="M631.7,306.9c3.1,0,5.6-2.5,5.6-5.7c0-3.1-2.5-5.6-5.7-5.6c-3.1,0-5.6,2.5-5.6,5.7
			C626,304.5,628.6,307,631.7,306.9z"/>
		<path class="st2" d="M521,404.3c-3.2,0-5.7,2.5-5.7,5.6c0,3.2,2.5,5.6,5.7,5.6c3.1,0,5.6-2.5,5.6-5.6
			C526.7,406.8,524.2,404.3,521,404.3z"/>
		<path class="st2" d="M670.9,254.1c0,3.1,2.5,5.7,5.6,5.7c3.1,0,5.6-2.5,5.6-5.6c0-3.1-2.5-5.7-5.6-5.7
			C673.4,248.5,670.9,251,670.9,254.1z"/>
		<path class="st2" d="M565.8,368.4c3.1,0,5.7-2.5,5.7-5.6c0-3.1-2.5-5.6-5.6-5.6c-3.1,0-5.7,2.5-5.7,5.6
			C560.3,365.8,562.7,368.3,565.8,368.4z"/>
		<path class="st2" d="M455.3,477.2c3.1,0,5.6-2.6,5.5-5.6c0-3.1-2.6-5.6-5.6-5.6c-3.1,0-5.6,2.6-5.5,5.6
			C449.7,474.7,452.2,477.2,455.3,477.2z"/>
		<path class="st2" d="M605.1,315.8c0,3.1,2.5,5.6,5.6,5.6c3.1,0,5.6-2.5,5.6-5.6c0-3.1-2.5-5.6-5.6-5.6
			C607.7,310.3,605.1,312.8,605.1,315.8z"/>
		<path class="st2" d="M494.5,424.4c0,3,2.5,5.6,5.6,5.6c3,0,5.5-2.5,5.5-5.5c0-3-2.5-5.6-5.6-5.6
			C497.1,418.9,494.6,421.4,494.5,424.4z"/>
		<path class="st2" d="M650.3,268.9c0,3,2.6,5.6,5.6,5.6c3,0,5.5-2.6,5.5-5.6c0-3-2.6-5.6-5.6-5.6
			C652.8,263.4,650.3,265.9,650.3,268.9z"/>
		<path class="st2" d="M545,383.1c3,0,5.5-2.6,5.5-5.6c0-3-2.6-5.5-5.6-5.5c-3,0-5.5,2.6-5.5,5.6C539.5,380.6,542,383.1,545,383.1z"
			/>
		<path class="st2" d="M584.6,330.4c0,3.1,2.5,5.5,5.5,5.5c3.1,0,5.5-2.5,5.4-5.5c0-3-2.4-5.4-5.4-5.4
			C587.1,324.9,584.6,327.3,584.6,330.4z"/>
		<path class="st2" d="M474,439.4c0.1,3.1,2.6,5.4,5.7,5.3c3-0.1,5.3-2.6,5.2-5.6c-0.1-3.1-2.6-5.4-5.7-5.3
			C476.2,433.9,473.9,436.4,474,439.4z"/>
		<path class="st2" d="M629.5,283.6c0.1,3.1,2.6,5.4,5.7,5.3c3-0.1,5.3-2.6,5.2-5.6c-0.1-3.1-2.6-5.4-5.7-5.3
			C631.7,278.1,629.4,280.6,629.5,283.6z"/>
		<path class="st2" d="M674.4,236.6c0,3,2.4,5.4,5.4,5.4c3,0,5.4-2.4,5.4-5.4c0-3-2.4-5.4-5.4-5.4
			C676.8,231.2,674.4,233.5,674.4,236.6z"/>
		<path class="st2" d="M524.3,397.5c3,0,5.4-2.4,5.4-5.4c0-3-2.4-5.4-5.4-5.4c-3,0-5.4,2.4-5.4,5.4
			C518.9,395.1,521.3,397.5,524.3,397.5z"/>
		<path class="st2" d="M770.7,274.4c-2.9-3.5-5.8-6.9-8.7-10.4c-2.4,1.2-3.7,3.7-3.5,6.5c0.2,2.7,2.1,5.2,4.7,6
			C766,277.4,768.8,276.7,770.7,274.4z"/>
		<path class="st2" d="M458.6,459.1c2.9,0,5.3-2.5,5.3-5.4c0-3-2.5-5.4-5.5-5.3c-2.9,0.1-5.3,2.5-5.2,5.5
			C453.3,456.8,455.7,459.2,458.6,459.1z"/>
		<path class="st2" d="M614.1,303.3c2.9,0,5.3-2.5,5.3-5.4c0-3-2.5-5.4-5.5-5.3c-2.9,0.1-5.3,2.5-5.2,5.5
			C608.7,301,611.2,303.4,614.1,303.3z"/>
		<path class="st2" d="M569.2,350.5c3,0,5.4-2.4,5.4-5.4c0-3-2.4-5.4-5.4-5.4c-3,0-5.3,2.4-5.3,5.3
			C563.8,348.1,566.2,350.5,569.2,350.5z"/>
		<path class="st2" d="M498.1,406.9c0,2.9,2.5,5.3,5.4,5.3c2.9,0,5.3-2.5,5.3-5.4c0-2.9-2.4-5.2-5.3-5.3
			C500.5,401.5,498.1,403.9,498.1,406.9z"/>
		<path class="st2" d="M653.6,251.1c0,2.9,2.4,5.4,5.3,5.4c2.9,0,5.4-2.4,5.3-5.4c0-2.9-2.4-5.3-5.3-5.3
			C656.1,245.7,653.6,248.1,653.6,251.1z"/>
		<path class="st2" d="M548.3,354.4c-2.9,0-5.3,2.4-5.3,5.3c0,2.9,2.5,5.4,5.4,5.3c2.9-0.1,5.3-2.5,5.2-5.4
			C553.5,356.8,551.1,354.4,548.3,354.4z"/>
		<path class="st2" d="M587.9,312.8c0,2.9,2.5,5.3,5.3,5.2c2.9-0.1,5.3-2.5,5.2-5.4c-0.1-2.9-2.4-5.2-5.3-5.2
			C590.3,307.5,587.9,310,587.9,312.8z"/>
		<path class="st2" d="M638.2,270.9c2.9-0.1,5.2-2.6,5.1-5.4c-0.2-2.9-2.6-5.2-5.5-5c-2.9,0.2-5.1,2.6-5,5.4
			C632.9,268.7,635.3,271,638.2,270.9z"/>
		<path class="st2" d="M477.3,421.6c0.1,2.9,2.6,5.2,5.5,5.1c2.9-0.2,5.2-2.6,5-5.5c-0.2-2.9-2.6-5.1-5.4-5
			C479.4,416.2,477.1,418.7,477.3,421.6z"/>
		<path class="st2" d="M507.7,551.1c3.9,2.4,7.7,4.8,11.4,7.2c0.8,0.5,1,0.4,1.4-0.4c1.6-3.4,0.2-7.6-3.1-9.4
			C514,546.7,509.9,547.7,507.7,551.1z"/>
		<path class="st2" d="M677.7,218.8c0,2.9,2.3,5.1,5.2,5.1c2.9,0,5.2-2.4,5.2-5.3c-0.1-2.9-2.4-5.1-5.3-5.1
			C679.9,213.6,677.7,215.9,677.7,218.8z"/>
		<path class="st2" d="M522.2,374.5c0,2.9,2.3,5.2,5.2,5.2c2.9,0,5.2-2.3,5.2-5.3c0-2.9-2.3-5.1-5.2-5.1
			C524.4,369.3,522.2,371.6,522.2,374.5z"/>
		<path class="st2" d="M572.3,322.2c-2.9,0-5.2,2.2-5.2,5.1s2.3,5.2,5.2,5.1c2.8,0,5.1-2.2,5.1-5.1
			C577.4,324.5,575.2,322.2,572.3,322.2z"/>
		<path class="st2" d="M612,280.4c0,2.8,2.3,5.1,5.1,5.1c2.9,0,5.2-2.3,5.1-5.2c0-2.8-2.3-5.1-5.2-5
			C614.2,275.3,612,277.6,612,280.4z"/>
		<path class="st2" d="M456.5,435.9c0,2.8,2.2,5.1,5,5.2c2.9,0,5.2-2.2,5.2-5.1c0-2.8-2.3-5.1-5.1-5.1
			C458.8,430.8,456.5,433,456.5,435.9z"/>
		<path class="st2" d="M662,228.1c-2.8,0-5.1,2.3-5.1,5.1c0,2.8,2.3,5.1,5.1,5.1c2.8,0,5.1-2.3,5.1-5.1
			C667.1,230.4,664.8,228.1,662,228.1z"/>
		<path class="st2" d="M501.4,389c0,2.8,2.3,5.1,5.1,5.1c2.8,0,5.1-2.3,5.1-5.1c0-2.8-2.3-5.1-5.1-5.1
			C503.6,383.9,501.4,386.2,501.4,389z"/>
		<path class="st2" d="M695.2,221.6c0,3.1,2.4,5.6,5.5,5.7c3,0.1,5.6-2.4,5.6-5.4c0-0.5-0.4-1.1-0.8-1.3c-2.3-1.2-4.6-2.3-7-3.4
			c-0.3-0.1-0.8-0.1-1.1,0.1C695.9,218.4,695.3,219.9,695.2,221.6z"/>
		<path class="st2" d="M556.4,342.1c0-2.8-2.3-5.1-5.1-5.1c-2.7,0-5,2.3-5,5c0,2.8,2.3,5.1,5.1,5.1
			C554.1,347.2,556.4,344.9,556.4,342.1z"/>
		<path class="st2" d="M461.9,506.1c2.5,3.2,5,6.4,7.5,9.6c2.4-1.1,3.8-3.4,3.7-5.9c-0.1-2.6-1.8-4.9-4.3-5.7
			C466.2,503.3,463.7,504,461.9,506.1z"/>
		<path class="st2" d="M435.6,450.7c0,2.7,2.3,5,5,5.1c2.8,0,5.1-2.4,5.1-5.1c0-2.7-2.4-5-5.1-5C437.9,445.7,435.6,448,435.6,450.7z
			"/>
		<path class="st2" d="M596.2,289.9c-2.7,0-5,2.3-5,5.1c0,2.8,2.4,5.1,5.2,5.1c2.7-0.1,5-2.4,5-5.1
			C601.2,292.1,598.9,289.8,596.2,289.9z"/>
		<path class="st2" d="M636.1,248.1c0,2.7,2.3,5,5.1,5c2.8,0,5-2.4,5-5.1c-0.1-2.7-2.3-4.9-5-4.9C638.3,243,636,245.3,636.1,248.1z"
			/>
		<path class="st2" d="M480.5,403.5c0,2.7,2.3,5,5,5c2.7,0,5-2.3,5-5.1c0-2.7-2.3-4.9-5-5C482.9,398.5,480.6,400.8,480.5,403.5z"/>
		<path class="st2" d="M525.5,356.7c0,2.7,2.2,4.9,5,4.9c2.8,0,5-2.3,4.9-5.1c-0.1-2.7-2.3-4.9-5-4.8
			C527.6,351.7,525.5,353.9,525.5,356.7z"/>
		<path class="st2" d="M575.3,304.8c-2.8,0-4.9,2.2-4.9,4.9c0,2.8,2.2,4.9,5,4.8c2.7,0,4.8-2.2,4.8-4.9
			C580.2,307,578.1,304.8,575.3,304.8z"/>
		<path class="st2" d="M620.2,257.7c-2.8,0-4.9,2.1-4.9,4.9c0,2.7,2.1,4.8,4.8,4.9c2.8,0,4.9-2.1,4.9-4.9
			C625,259.9,622.9,257.7,620.2,257.7z"/>
		<path class="st2" d="M459.8,418.3c0,2.8,2.1,4.9,4.9,4.9c2.7,0,4.8-2.1,4.9-4.8c0-2.8-2.1-4.9-4.9-4.9
			C461.9,413.5,459.8,415.6,459.8,418.3z"/>
		<path class="st2" d="M807.1,432.2c0.9-5.5,1.8-10.9,2.7-16.4c-3.2,0.1-6.4,3.2-7.2,6.8C801.7,426.3,803.6,430.5,807.1,432.2z"/>
		<path class="st2" d="M796.5,318.8c-2.1-4.6-4.2-9.1-6.3-13.6c-3.1,1.9-4.3,6.1-2.7,9.5C789.1,318.1,793,320,796.5,318.8z"/>
		<path class="st2" d="M509.6,376c2.7,0,4.8-2.2,4.8-4.9c0-2.7-2.2-4.8-4.9-4.8c-2.7,0-4.8,2.2-4.8,4.9
			C504.7,373.9,506.9,376,509.6,376z"/>
		<path class="st2" d="M438.9,432.8c0,2.6,2.1,4.8,4.7,4.9c2.6,0.1,4.9-2.2,4.9-4.8c0-2.6-2.2-4.8-4.8-4.8
			C441.2,428,439,430.2,438.9,432.8z"/>
		<path class="st2" d="M599.3,272.3c-2.6,0-4.8,2.2-4.8,4.8c0,2.7,2.2,4.9,4.9,4.8c2.6,0,4.8-2.2,4.7-4.8
			C604.1,274.4,601.9,272.3,599.3,272.3z"/>
		<path class="st2" d="M665,210.8c-2.7,0-4.8,2.2-4.8,4.9c0,2.7,2.2,4.8,4.9,4.8c2.7,0,4.8-2.2,4.8-4.9
			C669.9,212.9,667.7,210.8,665,210.8z"/>
		<path class="st2" d="M554.4,329.1c2.6,0,4.9-2.2,4.9-4.8c0-2.6-2.2-4.8-4.8-4.8c-2.6,0-4.9,2.2-4.9,4.8
			C549.6,326.9,551.8,329,554.4,329.1z"/>
		<path class="st2" d="M483.9,385.9c0,2.6,2.2,4.8,4.8,4.8c2.6,0,4.8-2.2,4.8-4.8c0-2.6-2.1-4.7-4.7-4.7
			C486.1,381.1,483.9,383.3,483.9,385.9z"/>
		<path class="st2" d="M644.1,225.4c-2.6,0-4.8,2.2-4.8,4.8c0,2.6,2.3,4.8,4.8,4.7c2.6-0.1,4.7-2.2,4.7-4.8
			C648.9,227.6,646.7,225.4,644.1,225.4z"/>
		<path class="st2" d="M533.5,334.1c-2.6,0-4.7,2.1-4.7,4.7c0,2.6,2.1,4.8,4.8,4.7c2.6,0,4.7-2.1,4.6-4.7
			C538.2,336.1,536.1,334.1,533.5,334.1z"/>
		<path class="st2" d="M583,291.8c0-2.6-2.1-4.6-4.8-4.6c-2.6,0-4.6,2.1-4.5,4.8c0.1,2.6,2.1,4.5,4.7,4.5
			C581,296.5,583,294.4,583,291.8z"/>
		<path class="st2" d="M467.7,395.9c-2.6,0-4.6,2.1-4.6,4.6c0,2.6,2.1,4.6,4.7,4.6c2.5,0,4.5-2.1,4.5-4.7
			C472.3,397.8,470.2,395.8,467.7,395.9z"/>
		<path class="st2" d="M623.5,249.3c2.6,0,4.6-2.1,4.6-4.6c0-2.6-2.1-4.6-4.7-4.6c-2.5,0-4.5,2.1-4.5,4.7
			C618.9,247.4,621,249.4,623.5,249.3z"/>
		<path class="st2" d="M557.7,311c2.5,0,4.6-2.1,4.6-4.6c0-2.5-2.1-4.6-4.7-4.5c-2.5,0-4.5,2.1-4.5,4.6
			C553.1,308.9,555.2,311,557.7,311z"/>
		<path class="st2" d="M512.6,358.2c2.5,0,4.6-2.1,4.5-4.7c0-2.5-2.2-4.6-4.7-4.5c-2.5,0.1-4.5,2.1-4.5,4.6
			C508,356.1,510.1,358.2,512.6,358.2z"/>
		<path class="st2" d="M448.4,484.7c0.9,1.7,1.8,3.4,2.7,5c0.9,1.6,2,3.2,2.9,4.7c2-0.5,3.5-2.3,3.9-4.6c0.3-2.2-0.8-4.5-2.7-5.7
			C453.1,482.9,450.7,483.1,448.4,484.7z"/>
		<path class="st2" d="M602.6,264.1c2.5,0,4.5-2.1,4.5-4.6c0-2.5-2.1-4.5-4.6-4.5c-2.5,0-4.5,2.1-4.5,4.6
			C598.1,262,600.2,264.1,602.6,264.1z"/>
		<path class="st2" d="M442.5,415c0,2.5,2.1,4.5,4.6,4.5c2.5,0,4.5-2.1,4.5-4.6c0-2.5-2.1-4.5-4.6-4.5
			C444.6,410.5,442.5,412.6,442.5,415z"/>
		<path class="st2" d="M642.9,212.3c0,2.5,2.1,4.5,4.5,4.5c2.5,0,4.5-2.1,4.5-4.6c0-2.4-2-4.4-4.5-4.5
			C645,207.8,642.9,209.9,642.9,212.3z"/>
		<path class="st2" d="M487.4,368.1c0,2.5,2.1,4.5,4.6,4.5c2.5-0.1,4.5-2.2,4.5-4.6c-0.1-2.4-2.1-4.4-4.5-4.4
			C489.5,363.6,487.4,365.7,487.4,368.1z"/>
		<path class="st2" d="M536.9,325.6c2.5,0,4.4-2,4.4-4.5c0-2.5-2-4.4-4.5-4.4c-2.5,0-4.4,2-4.4,4.5
			C532.4,323.7,534.4,325.7,536.9,325.6z"/>
		<path class="st2" d="M581.6,278.4c2.5,0,4.4-1.9,4.4-4.4c0-2.4-1.9-4.4-4.3-4.4c-2.5,0-4.4,1.9-4.4,4.4
			C577.3,276.5,579.2,278.4,581.6,278.4z"/>
		<path class="st2" d="M626.5,222.8c-2.4,0-4.3,2-4.3,4.4c0,2.4,2,4.3,4.4,4.3c2.4,0,4.3-2,4.3-4.4
			C630.9,224.6,628.9,222.8,626.5,222.8z"/>
		<path class="st2" d="M466.7,382.7c0,2.4,2,4.3,4.4,4.3c2.4,0,4.3-2,4.3-4.4c0-2.4-2-4.3-4.4-4.3
			C468.6,378.3,466.7,380.3,466.7,382.7z"/>
		<path class="st2" d="M511.6,335.8c0,2.4,2,4.3,4.4,4.3c2.4,0,4.3-2,4.3-4.5c0-2.4-2-4.2-4.4-4.2
			C513.5,331.4,511.5,333.3,511.6,335.8z"/>
		<path class="st2" d="M560.8,284.5c-2.3,0-4.3,1.9-4.3,4.3c0,2.4,2,4.4,4.4,4.4c2.3,0,4.3-2,4.3-4.3
			C565.1,286.4,563.1,284.5,560.8,284.5z"/>
		<path class="st2" d="M589.7,583.7c-0.6-3.3-3.2-5.9-6.3-6.5c-3.4-0.7-6.8,0.7-8.7,3.7C579.8,581.8,584.7,582.7,589.7,583.7z"/>
		<path class="st2" d="M450.3,401.7c2.4-0.1,4.2-2.2,4.1-4.5c-0.2-2.4-2.2-4.2-4.5-4.1c-2.3,0.2-4.1,2.2-4,4.4
			C446,399.9,448,401.8,450.3,401.7z"/>
		<path class="st2" d="M605.7,245.9c2.3,0,4.3-2,4.2-4.4c-0.1-2.3-2.1-4.3-4.4-4.2c-2.3,0.1-4.2,2-4.2,4.3
			C601.4,244,603.4,246,605.7,245.9z"/>
		<path class="st2" d="M495,346c-2.3,0-4.2,1.9-4.2,4.2c0,2.3,1.9,4.3,4.3,4.3c2.3,0,4.2-1.9,4.2-4.2C499.2,347.9,497.3,346,495,346
			z"/>
		<path class="st2" d="M809.9,414c0.4-5.1,0.7-10.2,1.1-15.3c-2.6,0.5-4.9,3.5-5.3,6.8C805.2,408.9,807,412.5,809.9,414z"/>
		<path class="st2" d="M535.7,303.4c0,2.4,1.9,4.1,4.3,4.1c2.3-0.1,4.1-1.9,4-4.2c0-2.4-1.9-4.1-4.3-4.1
			C537.4,299.3,535.7,301.1,535.7,303.4z"/>
		<path class="st2" d="M607.4,585.4c-1.3-3.4-4.3-5.5-7.8-5.6c-3.1-0.1-6.2,1.7-7.3,4.2C597.4,584.5,602.3,584.9,607.4,585.4z"/>
		<path class="st2" d="M580.6,256.5c0,2.3,1.8,4.1,4.1,4.1c2.3,0,4.1-1.8,4.1-4.1c0-2.3-1.8-4.1-4.1-4.1
			C582.4,252.4,580.6,254.2,580.6,256.5z"/>
		<path class="st2" d="M629.5,205.2c-2.3,0-4,1.9-4,4.2c0.1,2.3,1.9,4,4.3,4c2.2-0.1,4-1.9,3.9-4.2
			C633.7,206.9,631.8,205.1,629.5,205.2z"/>
		<path class="st2" d="M470,365.1c0,2.3,1.9,4.1,4.2,4c2.3,0,4.1-1.9,4-4.2c0-2.2-1.9-4-4.1-4C471.8,361,470,362.8,470,365.1z"/>
		<path class="st2" d="M514.9,317.9c0,2.2,1.8,4.1,4,4.1c2.3,0,4.1-1.8,4.1-4.1c0-2.2-1.9-4-4.1-4
			C516.7,313.8,514.9,315.6,514.9,317.9z"/>
		<path class="st2" d="M563.9,266.9c-2.2,0-4.1,1.9-4.1,4c0,2.2,1.9,4,4.1,4c2.1,0,4-1.8,4-4C567.9,268.9,566,267,563.9,266.9z"/>
		<path class="st2" d="M487.2,534.4c1.6-2.9,1.2-6.1-1-8.2c-2.1-2.1-5.2-2.5-8.1-0.9C480.7,528.7,484,531.4,487.2,534.4z"/>
		<path class="st2" d="M425.8,410.3c0.2,1.6,0.3,2.9,0.7,4.2c0.1,0.5,0.6,1,1,1.3c1.8,1,4.1,0.3,5.3-1.5c1.1-1.7,0.8-4-0.7-5.3
			c-1.5-1.4-3.9-1.5-5.5-0.2C426.2,409.2,426,409.9,425.8,410.3z"/>
		<path class="st2" d="M453.2,375.6c-2.2,0-4,1.8-4,3.9c0,2.2,1.8,4,3.9,4c2.2,0,4-1.8,4-3.9C457.2,377.5,455.4,375.6,453.2,375.6z"
			/>
		<path class="st2" d="M604.7,224.1c0,2.2,1.8,4,4,4c2.2,0,4-1.8,4-4c0-2.2-1.8-4-4-4C606.5,220.1,604.7,221.9,604.7,224.1z"/>
		<path class="st2" d="M498.1,336.6c2.2,0,3.9-1.7,3.9-4c0-2.2-1.7-3.8-3.9-3.8c-2.2,0-3.9,1.7-3.9,4
			C494.2,334.9,495.9,336.6,498.1,336.6z"/>
		<path class="st2" d="M543,281.7c-2.2,0-3.9,1.7-3.9,3.8c0,2.2,1.7,3.9,3.9,3.9c2.1,0,3.8-1.7,3.8-3.8
			C546.8,283.4,545.1,281.7,543,281.7z"/>
		<path class="st2" d="M428.4,394.1c0,2.2,1.7,3.9,3.9,3.9c2.2,0,3.9-1.7,3.8-3.9c0-2.1-1.7-3.8-3.8-3.8
			C430.2,390.2,428.5,391.9,428.4,394.1z"/>
		<path class="st2" d="M587.8,234.8c-2.1,0-3.8,1.7-3.8,3.8c0,2.1,1.7,3.9,3.9,3.9c2.1,0,3.8-1.8,3.8-3.8
			C591.6,236.5,589.9,234.8,587.8,234.8z"/>
		<path class="st2" d="M477.2,351c2.1,0,3.8-1.7,3.8-3.8c0-2.1-1.7-3.8-3.8-3.8c-2.1,0-3.8,1.7-3.8,3.8
			C473.3,349.3,475.1,351,477.2,351z"/>
		<path class="st2" d="M522,296.5c-2.1,0-3.8,1.9-3.7,3.9c0.1,2,1.8,3.7,3.8,3.6c2.1,0,3.8-1.9,3.7-3.9
			C525.7,298.1,524,296.5,522,296.5z"/>
		<path class="st2" d="M563.2,253.2c0,2.1,1.7,3.7,3.8,3.7c2.1,0,3.7-1.8,3.6-3.8c-0.1-2-1.7-3.6-3.7-3.6
			C564.8,249.4,563.2,251.1,563.2,253.2z"/>
		<path class="st2" d="M452.6,361.8c0,2,1.6,3.6,3.6,3.6c2.1,0,3.7-1.6,3.6-3.7c0-2-1.7-3.6-3.7-3.5
			C454.1,358.1,452.6,359.7,452.6,361.8z"/>
		<path class="st2" d="M608.1,206.2c0,2,1.6,3.6,3.6,3.6c2.1,0,3.7-1.6,3.6-3.7c0-2-1.6-3.6-3.7-3.5
			C609.7,202.6,608.1,204.2,608.1,206.2z"/>
		<path class="st2" d="M497.5,314.8c0,2,1.6,3.6,3.7,3.6c2,0,3.5-1.6,3.5-3.6c0-2-1.6-3.6-3.7-3.6
			C499.1,311.3,497.5,312.9,497.5,314.8z"/>
		<path class="st2" d="M558.4,576.3c4.6,1.3,8.9,2.5,13.5,3.8c-1-3-2.7-4.7-5.3-5.6C563.7,573.6,561.1,574.2,558.4,576.3z"/>
		<path class="st2" d="M542.4,268c0,1.9,1.7,3.5,3.6,3.5c1.9-0.1,3.5-1.7,3.5-3.7c-0.1-1.9-1.7-3.4-3.6-3.4
			C544,264.4,542.4,266,542.4,268z"/>
		<path class="st2" d="M431.8,376.5c0,1.9,1.7,3.6,3.6,3.5c1.9,0,3.5-1.7,3.5-3.6c0-1.9-1.6-3.5-3.5-3.5
			C433.4,373,431.8,374.6,431.8,376.5z"/>
		<path class="st2" d="M587.3,220.8c0,1.9,1.7,3.5,3.6,3.5c1.9,0,3.5-1.7,3.5-3.7c-0.1-1.9-1.7-3.4-3.6-3.4
			C588.9,217.2,587.3,218.9,587.3,220.8z"/>
		<path class="st2" d="M476.7,329.5c0.1,1.9,1.7,3.5,3.6,3.4c1.9-0.1,3.5-1.7,3.4-3.6c-0.1-1.9-1.7-3.5-3.6-3.4
			C478.2,325.9,476.7,327.6,476.7,329.5z"/>
		<path class="st2" d="M525.4,285.9c1.9,0,3.4-1.5,3.3-3.4c0-1.9-1.6-3.4-3.5-3.4c-1.9,0.1-3.3,1.6-3.3,3.5
			C522,284.4,523.5,285.9,525.4,285.9z"/>
		<path class="st2" d="M753.4,255c-3-2.8-5.9-5.5-8.8-8.2c-1.1,2-0.3,5.3,1.5,7C748,255.6,750.7,256.2,753.4,255z"/>
		<path class="st2" d="M570.2,238.9c1.9,0,3.4-1.5,3.3-3.4c0-1.9-1.5-3.3-3.3-3.3c-1.9,0-3.4,1.5-3.3,3.4
			C566.9,237.5,568.3,238.9,570.2,238.9z"/>
		<path class="st2" d="M459.5,347.4c1.8,0,3.3-1.4,3.4-3.3c0-1.8-1.4-3.3-3.3-3.4c-1.8,0-3.3,1.4-3.4,3.3
			C456.2,345.9,457.7,347.4,459.5,347.4z"/>
		<path class="st2" d="M549.3,246.8c-1.7,0-3.2,1.5-3.3,3.2c0,1.7,1.5,3.3,3.2,3.3c1.7,0,3.2-1.5,3.3-3.2
			C552.6,248.3,551,246.8,549.3,246.8z"/>
		<path class="st2" d="M504.4,293.7c-1.7,0-3.2,1.6-3.2,3.3c0,1.8,1.6,3.2,3.3,3.2c1.8,0,3.2-1.6,3.2-3.3
			C507.7,295.2,506.1,293.7,504.4,293.7z"/>
		<path class="st2" d="M435.5,358.7c0,1.8,1.4,3.1,3.1,3.2c1.8,0,3.2-1.4,3.2-3.2c0-1.8-1.4-3.1-3.2-3.1
			C436.9,355.5,435.5,356.9,435.5,358.7z"/>
		<path class="st2" d="M483.4,308.7c-1.8,0-3.1,1.5-3,3.3c0.1,1.7,1.5,3,3.2,2.9c1.8,0,3.1-1.5,3-3.3
			C486.5,309.9,485.2,308.6,483.4,308.7z"/>
		<path class="st2" d="M528.4,267.7c1.7,0,3-1.5,3-3.1c0-1.7-1.5-3-3.2-3c-1.6,0.1-2.9,1.4-2.9,3.1
			C525.4,266.3,526.8,267.7,528.4,267.7z"/>
		<path class="st2" d="M721.7,229.8c-3.1-1.9-6.1-3.6-9.1-5.5c-0.4,2.4,0.7,4.6,2.7,5.8C717.3,231.4,719.8,231.3,721.7,229.8z"/>
		<path class="st2" d="M590.9,203.2c0,1.3,0.9,2.6,2.1,3c1.2,0.4,2.6,0.1,3.5-0.9c0.9-1,1.1-2.4,0.5-3.6c-0.3-0.6-0.6-1-1.5-0.7
			c-0.9,0.3-2,0.3-3,0.4C591.3,201.5,590.9,201.9,590.9,203.2z"/>
		<path class="st2" d="M570.3,217.7c0,1.6,1.4,3,3,3c1.6,0,3-1.4,3-3c0-1.6-1.4-3-3-3C571.6,214.7,570.2,216.1,570.3,217.7z"/>
		<path class="st2" d="M459.7,326.3c0,1.6,1.3,2.9,2.9,2.8c1.6,0,2.9-1.3,2.8-2.9c0-1.6-1.3-2.9-3-2.8
			C460.9,323.4,459.7,324.7,459.7,326.3z"/>
		<path class="st2" d="M504.6,279.3c0,1.6,1.2,2.9,2.9,2.9c1.6,0,2.9-1.3,2.9-2.9c0-1.6-1.2-2.8-2.8-2.9
			C505.9,276.5,504.6,277.7,504.6,279.3z"/>
		<path class="st2" d="M549.5,232.2c0,1.6,1.3,2.8,2.8,2.8c1.6,0,2.8-1.3,2.8-2.8c0-1.6-1.3-2.8-2.8-2.8
			C550.8,229.4,549.5,230.7,549.5,232.2z"/>
		<path class="st2" d="M623.3,585.5c-3.2-3.6-9.3-3.6-12.4,0C615.1,585.5,619.1,585.5,623.3,585.5z"/>
		<path class="st2" d="M438.9,341.1c0,1.5,1.3,2.8,2.8,2.8c1.5,0,2.9-1.3,2.8-2.8c0-1.5-1.3-2.7-2.8-2.7
			C440.2,338.3,438.9,339.6,438.9,341.1z"/>
		<path class="st2" d="M483.9,293.9c0,1.4,1.2,2.7,2.6,2.8c1.5,0.1,2.8-1.2,2.8-2.7c0-1.5-1.2-2.7-2.7-2.7
			C485.2,291.2,483.9,292.4,483.9,293.9z"/>
		<path class="st2" d="M528.9,247c0,1.5,1.1,2.6,2.5,2.6c1.5,0,2.7-1.1,2.6-2.6c0-1.5-1.1-2.6-2.6-2.6
			C530,244.4,528.9,245.5,528.9,247z"/>
		<path class="st2" d="M463.2,308.8c0,1.4,1.2,2.5,2.6,2.5c1.4,0,2.6-1.3,2.5-2.7c-0.1-1.4-1.3-2.5-2.6-2.4
			C464.2,306.2,463.1,307.4,463.2,308.8z"/>
		<path class="st2" d="M510.5,264c1.3,0,2.5-1.1,2.5-2.4c0.1-1.4-1.1-2.5-2.5-2.5c-1.3,0-2.4,1.1-2.4,2.4
			C508.1,262.8,509.2,264,510.5,264z"/>
		<path class="st2" d="M438.3,463.1c1.2,2.8,2.3,5.5,3.5,8.1c1.2-1,1.5-2.8,1-4.6C442.1,464.7,440.5,463.3,438.3,463.1z"/>
		<path class="st2" d="M555.4,212.3c-1.3,0-2.3,1-2.3,2.3c0,1.4,1,2.4,2.4,2.4c1.3,0,2.3-1.1,2.3-2.4
			C557.7,213.3,556.7,212.3,555.4,212.3z"/>
		<path class="st2" d="M442.5,323.2c0,1.2,1,2.3,2.2,2.3c1.3,0,2.4-1,2.4-2.3c0-1.2-1.1-2.3-2.3-2.3
			C443.5,320.9,442.5,322,442.5,323.2z"/>
		<path class="st2" d="M487.4,276.3c0,1.2,1,2.2,2.2,2.2c1.2,0,2.3-1.1,2.2-2.3c0-1.2-1.1-2.2-2.3-2.1
			C488.4,274.1,487.4,275.2,487.4,276.3z"/>
		<path class="st2" d="M534.5,231.2c1.2,0,2.1-0.9,2.1-2c0-1.2-0.9-2.1-2-2.1c-1.2,0-2.1,0.9-2.1,2
			C532.4,230.3,533.3,231.2,534.5,231.2z"/>
		<path class="st2" d="M810.8,393.7c0-3.4,0-6.6,0-9.8C808.5,385.9,808.5,391.4,810.8,393.7z"/>
		<path class="st2" d="M468.8,292.9c1.1,0,2-1,2-2c0-1.1-1-2-2-2c-1.1,0-2,1-2,2C466.7,292,467.7,292.9,468.8,292.9z"/>
		<path class="st2" d="M511.7,244c0,1.1,0.9,1.9,2,1.8c1-0.1,1.8-0.9,1.8-1.9c0-1.1-0.9-1.9-2-1.8C512.5,242.1,511.7,243,511.7,244z
			"/>
		<path class="st2" d="M427.9,425.7c0.5,2.4,0.9,4.7,1.4,7.1C431.5,431.3,431,426.9,427.9,425.7z"/>
		<path class="st2" d="M447.9,307.2c1,0,1.8-0.8,1.8-1.8c0-1-0.8-1.8-1.9-1.8c-0.9,0-1.7,0.9-1.7,1.8
			C446,306.4,446.9,307.2,447.9,307.2z"/>
		<path class="st2" d="M492.9,260.1c1-0.1,1.6-0.6,1.7-1.6c0.1-1-0.7-1.8-1.6-1.7c-1,0-1.6,0.6-1.6,1.6
			C491.3,259.5,491.9,260,492.9,260.1z"/>
		<path class="st2" d="M545.2,571.4c2.3,0.9,4.6,1.8,7.1,2.7C551,572,548.1,570.8,545.2,571.4z"/>
		<path class="st2" d="M471.7,271.4c-0.3,0.6-0.9,1.1-1,1.7c-0.1,0.8,0.6,1.3,1.4,1.3c0.9,0,1.5-0.6,1.3-1.5c-0.1-0.6-0.7-1-1.1-1.5
			C472.1,271.4,471.9,271.4,471.7,271.4z"/>
		<path class="st2" d="M801.1,332.6c0.4,1.4,0.8,2.7,1.2,4.1c0.1,0,0.3-0.1,0.4-0.1c-0.4-1.4-0.9-2.7-1.3-4.1
			C801.3,332.5,801.2,332.6,801.1,332.6z"/>
	</g>
	<g class="st3">
		<path class="st2" d="M400.4,325.5c-63.8-23.6-180.2,18.5-233.5,11.7C42.4,321.4,66,206.2,0.4,156.3
			c-39.1-48.1-81.2-48.8-87.8-48.8l-17.1,58.1c-37.3,55.2-81.5,120-81.6,195.8c0.2,95.5,63.8,157.8,118.3,193
			c77.4,49.2,168.3,65.4,257.4,57.2c45.1-4.1,90.1-15.7,133.1-35.2c32.5-15,63.6-34.7,91.5-62.5c20.2-19.8,94.1-19.1,102.3-52.8
			C521.8,439.2,475.3,353.2,400.4,325.5z"/>
	</g>
	<g class="st3">
		<path class="st2" d="M465.3,293.7c-77.9-5.4-192.5,78.4-253.3,88.1C69.8,404.4,58.7,270-29.5,236.1
			c-58.5-40.3-105.1-27.6-112.4-25.5l-0.2,69.5C-165.4,353-193.2,438.5-169,522c31,105.1,121.1,153.3,192.4,174.5
			c101.1,29.2,206.4,17.9,301.8-19.9c48.3-19,94.2-46.3,135.2-81.6c31-27,58.9-58.7,80.7-98.2c15.9-28.3,97.5-51.3,95.6-91
			C635.6,379.8,556.8,300.1,465.3,293.7z"/>
	</g>
	<g class="st3">
		<path class="st2" d="M230.4-21.3c39,15,78,27,117,37.5c51,13.5,102,24,150,45c43.5,18,81,46.5,103.5,90c21,37.5,27,84,54,118.5
			c10.5,15,24,25.5,42,28.5c22.5,4.5,45-4.5,63-16.5c51-34.5,81-99,78-159c-3-76.5-57-136.5-120-174c-64.5-39-138-60-211.5-69
			c-51-4.5-102-3-150,15c-46.5,18-91.5,43.5-135,67.5L230.4-21.3z"/>
	</g>
	<g class="st3">
		<path class="st2" d="M184.7,61.8c29.5,16.4,102.9,3.8,142.9-1.9c52.2-7.7,103.2-18.2,155.6-17.9c47.1-0.6,92.8,10.7,130.6,41.8
			c34.1,26.2,58,66.5,96.4,87.6c15.6,9.6,32.1,14,49.8,9.6c22.4-4.7,39.6-21.9,51.4-40C844.6,89.1,846.7,18,820.3-36
			C787.3-105,714-138.9,641.3-148.4c-74.7-10.4-150.5-0.6-221.6,20.1c-48.6,16-94.9,37.5-131.9,73c-35.6,34.9-98.9,21.8-129.4,61
			C158.5,5.6,142.7,38.5,184.7,61.8z"/>
	</g>
	<g class="st4">
		<g>
			<path class="st5" d="M212,64.6c8.7,4.7,18.8,6.4,28.5,7.3c9.6,0.9,19.3,0.9,29,0.5c24.6-0.9,49.1-4.4,73.5-8
				c32.3-4.8,64.5-10.5,96.9-14.7c37.2-4.8,75.7-8.1,113-2c29.7,4.8,58.2,16.1,82.3,34.3c23,17.3,41.2,39.2,61.4,59.6
				c10.1,10.2,20.8,19.9,32.9,27.8c12.4,8,25.8,15.1,40.8,16c26.4,1.5,48.9-13.9,64.2-34.3c34.3-45.7,40.4-110.7,22.3-164
				c-8.7-25.6-23.3-49.1-42.5-68.1c-18.8-18.6-41.5-32.9-65.7-43.3c-52.3-22.6-111.4-27.7-167.8-24.7c-34.2,1.8-68.1,7.1-101.3,15
				c-31,7.4-61.2,17.5-89.9,31.3c-27.5,13.2-52.9,29.9-75,50.9c-17.9,16.9-42.4,22.4-65.6,28.1c-22.6,5.6-46.7,12.1-62.1,30.9
				c-2.3,2.8-3,6.7-3.6,10.2c-1.2,7.7,0,15.6,3.3,22.6C191.8,50.9,201.6,58.7,212,64.6c0.3,0.1,0.7-0.2,1,0
				c-17.2-9.7-31.7-25.9-28.7-46.9c0.4-3.2,1.1-6.8,2.8-9.6c2.9-4.7,8.1-8.8,12.5-12c4.5-3.3,9.3-6,14.3-8.3
				c21.4-9.9,45.3-12.5,67.4-20.1c10.8-3.7,21.4-8.7,30.3-16c5.3-4.4,10.1-9.4,15.3-13.8c5.8-4.9,11.8-9.5,17.9-13.9
				c50.9-36.1,112.6-55.2,173.6-65.7c38-6.5,76.6-9.3,115.1-7.1c28.7,1.6,57.5,5.8,85.2,14.1c49.3,14.9,95.6,43.8,122.1,89.1
				c28.2,48.1,32.6,109.1,12.4,160.9c-9.7,24.9-25.9,50.7-50.5,63.2c-14.4,7.3-31.1,9.2-46.6,4.2c-13.8-4.4-26.8-13.1-38.1-22.1
				c-21.8-17.5-39-39.8-59.1-59.1c-21-20.2-45.4-36.4-73.1-45.7c-27.1-9.1-55.3-11.2-83.7-10.8c-31.5,0.5-62.7,4.6-93.7,9.4
				c-28.4,4.4-56.8,9.1-85.2,13c-27.6,3.8-56.3,7.5-84.1,4.4c-9-1-18.1-2.8-26.1-7.1C212.7,64.4,212.2,64.7,212,64.6z"/>
		</g>
	</g>
	<g class="st4">
		<g>
			<circle class="st6" cx="224.8" cy="284.6" r="5.2"/>
		</g>
		<g>
			<path class="st6" d="M455.1,81.3c0,2.9-2.3,5.2-5.2,5.2s-5.2-2.3-5.2-5.2c0-2.9,2.3-5.2,5.2-5.2S455.1,78.4,455.1,81.3z"/>
		</g>
		<g>
			<path class="st6" d="M643.5,159.4c0,2.9-2.3,5.2-5.2,5.2c-2.9,0-5.2-2.3-5.2-5.2c0-2.9,2.3-5.2,5.2-5.2
				C641.1,154.2,643.5,156.5,643.5,159.4z"/>
		</g>
		<g>
			<path class="st6" d="M593,338.6c0,2.9-2.3,5.2-5.2,5.2c-2.9,0-5.2-2.3-5.2-5.2c0-2.9,2.3-5.2,5.2-5.2
				C590.6,333.4,593,335.7,593,338.6z"/>
		</g>
		<g>
			<circle class="st6" cx="397.9" cy="373.7" r="5.2"/>
		</g>
		<g>
			<path class="st6" d="M286.7,393.7c0,2.9-2.3,5.2-5.2,5.2c-2.9,0-5.2-2.3-5.2-5.2c0-2.9,2.3-5.2,5.2-5.2
				C284.3,388.5,286.7,390.8,286.7,393.7z"/>
		</g>
		<g>
			<path class="st6" d="M54.4,327.7c0,2.9-2.3,5.2-5.2,5.2c-2.9,0-5.2-2.3-5.2-5.2c0-2.9,2.3-5.2,5.2-5.2
				C52,322.5,54.4,324.8,54.4,327.7z"/>
		</g>
		<g>
			<path class="st6" d="M65.1,50.8c0,2.9-2.3,5.2-5.2,5.2c-2.9,0-5.2-2.3-5.2-5.2c0-2.9,2.3-5.2,5.2-5.2
				C62.8,45.6,65.1,48,65.1,50.8z"/>
		</g>
		<g>
			<circle class="st6" cx="552.4" cy="214.5" r="5.2"/>
		</g>
		<g>
			<path class="st7" d="M406.3,196.1c0,0.5-0.4,0.9-0.9,0.9c-0.5,0-0.9-0.4-0.9-0.9s0.4-0.9,0.9-0.9
				C405.9,195.2,406.3,195.6,406.3,196.1z"/>
		</g>
		<g>
			<path class="st7" d="M227.4,37c0,0.5-0.4,0.9-0.9,0.9c-0.5,0-0.9-0.4-0.9-0.9c0-0.5,0.4-0.9,0.9-0.9
				C227,36.1,227.4,36.5,227.4,37z"/>
		</g>
		<g>
			<path class="st7" d="M138.4,243.3c0,0.5-0.4,0.9-0.9,0.9c-0.5,0-0.9-0.4-0.9-0.9s0.4-0.9,0.9-0.9
				C138,242.4,138.4,242.8,138.4,243.3z"/>
		</g>
		<g>
			<path class="st7" d="M415.9,398.7c0,0.5-0.4,0.9-0.9,0.9c-0.5,0-0.9-0.4-0.9-0.9c0-0.5,0.4-0.9,0.9-0.9
				C415.6,397.9,415.9,398.2,415.9,398.7z"/>
		</g>
		<g>
			<path class="st7" d="M330,398.4c0,0.5-0.4,0.9-0.9,0.9c-0.5,0-0.9-0.4-0.9-0.9s0.4-0.9,0.9-0.9C329.6,397.5,330,397.9,330,398.4z
				"/>
		</g>
		<g>
			<path class="st7" d="M525.6,312.5c0,0.5-0.4,0.9-0.9,0.9c-0.5,0-0.9-0.4-0.9-0.9c0-0.5,0.4-0.9,0.9-0.9
				C525.2,311.6,525.6,312,525.6,312.5z"/>
		</g>
		<g>
			<path class="st7" d="M593.2,395.5c0,0.5-0.4,0.9-0.9,0.9c-0.5,0-0.9-0.4-0.9-0.9s0.4-0.9,0.9-0.9
				C592.8,394.6,593.2,395,593.2,395.5z"/>
		</g>
		<g>
			<path class="st7" d="M521.1,364.7c0,0.5-0.4,0.9-0.9,0.9c-0.5,0-0.9-0.4-0.9-0.9s0.4-0.9,0.9-0.9
				C520.7,363.9,521.1,364.2,521.1,364.7z"/>
		</g>
		<g>
			<path class="st7" d="M83.8,390.7c0,0.5-0.4,0.9-0.9,0.9s-0.9-0.4-0.9-0.9s0.4-0.9,0.9-0.9S83.8,390.2,83.8,390.7z"/>
		</g>
		<g>
			<path class="st7" d="M31.4,360.2c0,0.5-0.4,0.9-0.9,0.9c-0.5,0-0.9-0.4-0.9-0.9c0-0.5,0.4-0.9,0.9-0.9
				C31,359.4,31.4,359.8,31.4,360.2z"/>
		</g>
		<g>
			<path class="st7" d="M-6.7,274.1c0,0.5-0.4,0.9-0.9,0.9c-0.5,0-0.9-0.4-0.9-0.9c0-0.5,0.4-0.9,0.9-0.9
				C-7.1,273.2-6.7,273.6-6.7,274.1z"/>
		</g>
		<g>
			<path class="st7" d="M273.3,56.9c0,0.5-0.4,0.9-0.9,0.9c-0.5,0-0.9-0.4-0.9-0.9s0.4-0.9,0.9-0.9C272.9,56,273.3,56.4,273.3,56.9z
				"/>
		</g>
		<g>
			<path class="st7" d="M409,76.7c0,0.5-0.4,0.9-0.9,0.9s-0.9-0.4-0.9-0.9c0-0.5,0.4-0.9,0.9-0.9S409,76.2,409,76.7z"/>
		</g>
		<g>
			<path class="st7" d="M568.6,70.5c0,0.5-0.4,0.9-0.9,0.9c-0.5,0-0.9-0.4-0.9-0.9s0.4-0.9,0.9-0.9C568.2,69.6,568.6,70,568.6,70.5z
				"/>
		</g>
		<g>
			<path class="st7" d="M628.3,78.1c0,0.5-0.4,0.9-0.9,0.9c-0.5,0-0.9-0.4-0.9-0.9c0-0.5,0.4-0.9,0.9-0.9
				C627.9,77.2,628.3,77.6,628.3,78.1z"/>
		</g>
		<g>
			<path class="st7" d="M671.3,108.7c0,0.5-0.4,0.9-0.9,0.9c-0.5,0-0.9-0.4-0.9-0.9c0-0.5,0.4-0.9,0.9-0.9
				C670.9,107.9,671.3,108.2,671.3,108.7z"/>
		</g>
	</g>
	<g class="st4">
		<g>
			<path class="st5" d="M493.9,289.4c-33.2-2.2-66.1,9.3-96.3,21.7c-36.7,15-71.7,33.8-108.1,49.7c-14.4,6.3-29.2,12.4-44.6,15.7
				c-20.9,4.5-43.5,5.5-64.6,2.1c-29.2-4.8-53.6-20-74-40.9c-20.8-21.3-37.9-45.8-58.6-67.2c-27-27.8-60.5-48.1-96.2-62.7
				c-15.8-6.5-37.3-14.6-54.5-8c-3.7,1.4-6.4,3.8-9.8,5.8c-1.5,0.9-1.6,0.7-1.6,2.6c0,4.5,0,9,0,13.6c0,13.5-0.1,27-0.1,40.5
				c0,4.2,0.2,8.4,0,12.5c-0.1,2-0.8,3.8-1.5,5.7c-1.8,5.7-3.7,11.5-5.5,17.2c-15.7,50-29.8,101.5-29.3,154.3
				c0.5,47.6,14.3,94.4,41.8,133.5c21.8,31,51.1,56,83.9,74.7c32.6,18.7,68.5,31.6,105.2,39.3c46,9.8,93.5,11.6,140.2,6.4
				c51.9-5.7,103-19.8,150.8-40.9c46.2-20.3,89.5-48.1,126.7-82.3c17.6-16.2,33.8-33.9,48-53.1c7.5-10.1,14.4-20.7,20.7-31.6
				c3.6-6.3,7-11.6,12.4-16.5c23.2-20.9,55.1-31,75.9-54.8c7.2-8.3,13-19.7,9.4-30.8c-3.5-10.8-11.5-20.5-19-28.8
				c-24.9-27.8-57.5-49.9-92.1-63.7C534.2,295.8,514.2,290.8,493.9,289.4c-0.3,0-0.7,0-1,0c41.4,3,80.8,20.4,114.1,44.6
				c13.6,9.9,26.4,21,37.6,33.5c7.3,8.2,15.1,17.7,18.7,28.3c3.6,10.8-1.6,21.9-8.5,30.1c-10,11.8-23.6,20.4-36.6,28.6
				c-12.9,8.1-26.5,15.6-38.2,25.5c-4.5,3.8-8.6,8-11.5,13.2c-6.2,10.8-12.6,21.4-19.9,31.6c-28,39.5-64.4,72.6-104.4,99.6
				c-41.4,28-87.2,48.9-135.1,63.3c-54.2,16.3-111.2,24-167.8,20.2c-43.8-2.9-87.3-12.3-127.9-29.3c-32.7-13.7-63.6-32.2-89.5-56.5
				c-29.5-27.7-51.4-62.5-63.3-101.2c-15.6-50.6-11.4-104.6,0.2-155.5c5.6-24.6,12.9-48.8,20.5-72.9c0.8-2.7,1.7-5.3,2.5-7.9
				c0.9-2.7,2.3-5.7,2.7-8.5c0.1-0.7,0-1.4,0-2.1c0-4.5,0-9.1,0-13.6c0-13.3,0.1-26.5,0.1-39.8c0-4.2-0.3-8.5,0-12.6
				c0.1-1.7,0.3-1.4,1.7-2.2c3.3-2,6-4.3,9.6-5.7c8.1-3.1,17.1-2.3,25.4-0.6c15.9,3.2,31.2,9.9,45.7,17.1c18.5,9.1,36.8,19.2,53,32
				c24.1,18.9,43,42.8,62.5,66.2c17.5,21,36.5,41.8,61.5,53.9c27.9,13.5,59.8,14.2,90,9.9c14.9-2.1,29.1-6.9,43.1-12.6
				c16.9-6.9,33.3-14.8,49.8-22.6c35.6-17,71.3-35,109.4-45.9c17.6-5.1,36.1-8.7,54.5-7.5C493.2,289.4,493.6,289.3,493.9,289.4z"/>
		</g>
	</g>
</g>
</svg>
