<?xml version="1.0" encoding="utf-8"?>
<!-- Generator: Adobe Illustrator 23.0.0, SVG Export Plug-In . SVG Version: 6.00 Build 0)  -->
<svg version="1.1" xmlns="http://www.w3.org/2000/svg" xmlns:xlink="http://www.w3.org/1999/xlink" x="0px" y="0px"
	 viewBox="0 0 545.7 363.8" style="enable-background:new 0 0 545.7 363.8;" xml:space="preserve">
<style type="text/css">
	._x005B_Por_x0020_defecto_x005D_{fill:#FFFFFF;stroke:#1D1D1B;stroke-miterlimit:10;}
	.Sombra_x0020_paralela{fill:none;}
	.Esquinas_x0020_redondeadas_x0020_2_x0020_pt_x002E_{fill:#FFFFFF;stroke:#1D1D1B;stroke-miterlimit:10;}
	.Reflejo_x0020_vivo_x0020_X{fill:none;}
	.Bisel_x0020_suave{fill:url(#SVGID_1_);}
	.Atardecer{fill:#FFFFFF;}
	.Follaje_GS{fill:#FFD800;}
	.Pompadour_GS{fill-rule:evenodd;clip-rule:evenodd;fill:#51A9DD;}
	.st0{fill:url(#SVGID_2_);}
	.st1{fill:url(#SVGID_3_);}
	.st2{fill:url(#SVGID_4_);}
	.st3{fill:none;stroke:url(#SVGID_5_);stroke-miterlimit:10;}
	.st4{fill:none;stroke:url(#SVGID_6_);stroke-miterlimit:10;}
	.st5{fill:none;stroke:url(#SVGID_7_);stroke-miterlimit:10;}
	.st6{fill:none;stroke:#FFFFFF;stroke-width:1.4668;stroke-miterlimit:10;}
</style>
<linearGradient id="SVGID_1_" gradientUnits="userSpaceOnUse" x1="22.8937" y1="-61.5138" x2="23.6008" y2="-60.8067">
	<stop  offset="0" style="stop-color:#E1E1E6"/>
	<stop  offset="0.1791" style="stop-color:#DDDDE2"/>
	<stop  offset="0.3627" style="stop-color:#D1D1D6"/>
	<stop  offset="0.5483" style="stop-color:#BDBEC1"/>
	<stop  offset="0.7355" style="stop-color:#A0A2A4"/>
	<stop  offset="0.922" style="stop-color:#7C7F80"/>
	<stop  offset="1" style="stop-color:#6B6E6E"/>
</linearGradient>
<g id="BACKGROUND">
</g>
<g id="OBJECTS">
	<g>
		<g>
			<linearGradient id="SVGID_2_" gradientUnits="userSpaceOnUse" x1="0" y1="42.2794" x2="318.2097" y2="42.2794">
				<stop  offset="0" style="stop-color:#007FC8"/>
				<stop  offset="1" style="stop-color:#00B1C8"/>
			</linearGradient>
			<path class="st0" d="M213.2,69.5c70.7-8.6,95.8-53.4,105-68.5H3.9C1.8,1,0,2.6,0,4.5v79.1c13-9.3,32.1-18.9,60.6-22.8
				C107.8,54.3,142.4,78.1,213.2,69.5z"/>
			<linearGradient id="SVGID_3_" gradientUnits="userSpaceOnUse" x1="0" y1="259.6624" x2="286.1215" y2="259.6624">
				<stop  offset="0" style="stop-color:#007FC8"/>
				<stop  offset="1" style="stop-color:#00B1C8"/>
			</linearGradient>
			<path class="st1" d="M111.1,238.5c-36.9-20.4-91.4-19.6-111.1,0v53.8c0,1.9,1.6,3.5,3.5,3.5h282.6
				C224.6,288.2,192.4,283.5,111.1,238.5z"/>
			<linearGradient id="SVGID_4_" gradientUnits="userSpaceOnUse" x1="420.08" y1="266.914" x2="545.7041" y2="266.914">
				<stop  offset="0" style="stop-color:#007FC8"/>
				<stop  offset="1" style="stop-color:#00B1C8"/>
			</linearGradient>
			<path class="st2" d="M487,256.2c-31.1,22.4-51.1,35.3-66.9,39.6h122.1c1.9,0,3.5-1.6,3.5-3.5v-54
				C527.7,237.2,510.6,239.2,487,256.2z"/>
			<linearGradient id="SVGID_5_" gradientUnits="userSpaceOnUse" x1="-8.2871" y1="50.9879" x2="320.7076" y2="50.9879">
				<stop  offset="0" style="stop-color:#007FC8"/>
				<stop  offset="1" style="stop-color:#00B1C8"/>
			</linearGradient>
			<path class="st3" d="M-7.9,103.5c22-25.9,68.3-57.2,163.7-25.9C251.3,108.9,312.7,49,320.2-1.7"/>
			<linearGradient id="SVGID_6_" gradientUnits="userSpaceOnUse" x1="-21.9379" y1="255.7877" x2="345.5547" y2="255.7877">
				<stop  offset="0" style="stop-color:#007FC8"/>
				<stop  offset="1" style="stop-color:#00B1C8"/>
			</linearGradient>
			<path class="st4" d="M-21.5,238.1c21.1-38.4,90.1-31.2,154.5,6.6C235,304.6,316,296.2,345.5,299"/>
			<linearGradient id="SVGID_7_" gradientUnits="userSpaceOnUse" x1="387.4353" y1="261.5258" x2="568.6982" y2="261.5258">
				<stop  offset="0" style="stop-color:#007FC8"/>
				<stop  offset="1" style="stop-color:#00B1C8"/>
			</linearGradient>
			<path class="st5" d="M568.3,237.2c-28.9-30.9-63.7,4-100.1,28.1c-24.4,16.1-56.7,29.9-80.7,32.7"/>
		</g>
		<g>
			<g>
				<g>
					<circle class="st6" cx="311.5" cy="221.9" r="2.1"/>
					<circle class="st6" cx="318.2" cy="218.2" r="2.1"/>
					<circle class="st6" cx="318.2" cy="226.1" r="2.1"/>
					<line class="st6" x1="313.3" y1="220.5" x2="316.2" y2="218.9"/>
					<line class="st6" x1="316.1" y1="225.1" x2="313.2" y2="223.1"/>
				</g>
			</g>
		</g>
	</g>
</g>
<g id="DESIGNED_BY_FREEPIK">
</g>
</svg>
