<?xml version="1.0" encoding="utf-8"?>
<!-- Generator: Adobe Illustrator 23.0.0, SVG Export Plug-In . SVG Version: 6.00 Build 0)  -->
<!DOCTYPE svg PUBLIC "-//W3C//DTD SVG 1.1//EN" "http://www.w3.org/Graphics/SVG/1.1/DTD/svg11.dtd" [
	<!ENTITY ns_extend "http://ns.adobe.com/Extensibility/1.0/">
	<!ENTITY ns_ai "http://ns.adobe.com/AdobeIllustrator/10.0/">
	<!ENTITY ns_graphs "http://ns.adobe.com/Graphs/1.0/">
	<!ENTITY ns_vars "http://ns.adobe.com/Variables/1.0/">
	<!ENTITY ns_imrep "http://ns.adobe.com/ImageReplacement/1.0/">
	<!ENTITY ns_sfw "http://ns.adobe.com/SaveForWeb/1.0/">
	<!ENTITY ns_custom "http://ns.adobe.com/GenericCustomNamespace/1.0/">
	<!ENTITY ns_adobe_xpath "http://ns.adobe.com/XPath/1.0/">
]>
<svg version="1.1" id="Layer_1" xmlns:x="&ns_extend;" xmlns:i="&ns_ai;" xmlns:graph="&ns_graphs;"
	 xmlns="http://www.w3.org/2000/svg" xmlns:xlink="http://www.w3.org/1999/xlink" x="0px" y="0px" viewBox="0 0 255.3 373.4"
	 style="enable-background:new 0 0 255.3 373.4;" xml:space="preserve">
<style type="text/css">
	.st0{fill:#FFFFFF;}
	.st1{fill:#2354A3;}
	.st2{fill:#DAD9D8;}
</style>
<metadata>
	<sfw  xmlns="&ns_sfw;">
		<slices></slices>
		<sliceSourceBounds  bottomLeftOrigin="true" height="371" width="255.3" x="0" y="0"></sliceSourceBounds>
	</sfw>
</metadata>
<g>
	<g>
		<g>
			<rect y="16.7" class="st0" width="255.3" height="356.7"/>
			<g>
				<rect y="296.2" class="st1" width="255.3" height="77.2"/>
			</g>
			<g>
				<g>
					<path class="st1" d="M213.8,46.9c11.2-7.3,15.8-14.4,15.8-20.7c0-4.1-2.5-5.8-4.6-6.1l-7.1,6.6c-3.9-1.4-9-5.4-9-11.9
						c0-7.5,6.1-12.4,13.6-12.4c9.2,0,15.3,5.9,15.3,16.3c0,12.9-9.8,22.8-22.4,30.6L213.8,46.9z M181.9,46.9
						c11.2-7.3,15.8-14.4,15.8-20.7c0-4.1-2.5-5.8-4.6-6.1l-7.1,6.6c-3.9-1.4-9-5.4-9-11.9c0-7.5,6.1-12.4,13.6-12.4
						c9.2,0,15.3,5.9,15.3,16.3c0,12.9-9.8,22.8-22.4,30.6L181.9,46.9z"/>
				</g>
			</g>
			<g>
				<g>
					<polygon class="st1" points="38.8,59.1 40.7,64.9 46.8,64.9 41.8,68.5 43.7,74.3 38.8,70.7 33.8,74.3 35.7,68.5 30.8,64.9 
						36.9,64.9 					"/>
					<polygon class="st1" points="58.8,59.1 60.6,64.9 66.8,64.9 61.8,68.5 63.7,74.3 58.8,70.7 53.8,74.3 55.7,68.5 50.8,64.9 
						56.9,64.9 					"/>
					<polygon class="st1" points="78.7,59.1 80.6,64.9 86.7,64.9 81.8,68.5 83.7,74.3 78.7,70.7 73.8,74.3 75.7,68.5 70.7,64.9 
						76.9,64.9 					"/>
					<polygon class="st2" points="98.7,59.1 100.6,64.9 106.7,64.9 101.8,68.5 103.7,74.3 98.7,70.7 93.8,74.3 95.7,68.5 90.7,64.9 
						96.8,64.9 					"/>
					<polygon class="st2" points="118.7,59.1 120.6,64.9 126.7,64.9 121.8,68.5 123.7,74.3 118.7,70.7 113.8,74.3 115.7,68.5 
						110.7,64.9 116.8,64.9 					"/>
				</g>
			</g>
			<g>
				<rect y="16.7" class="st1" width="62.3" height="7"/>
			</g>
			<g>
				<g>
					<path class="st1" d="M241.3,235.2c1.4,0,2.5,1.1,2.5,2.5s-1.1,2.5-2.5,2.5s-2.5-1.1-2.5-2.5S239.9,235.2,241.3,235.2
						 M241.3,234.2c-1.9,0-3.5,1.6-3.5,3.5s1.6,3.5,3.5,3.5s3.5-1.6,3.5-3.5C244.8,235.7,243.2,234.2,241.3,234.2L241.3,234.2z"/>
				</g>
				<g>
					<path class="st1" d="M241.3,247.1c1.4,0,2.5,1.1,2.5,2.5s-1.1,2.5-2.5,2.5s-2.5-1.1-2.5-2.5S239.9,247.1,241.3,247.1
						 M241.3,246.1c-1.9,0-3.5,1.6-3.5,3.5s1.6,3.5,3.5,3.5s3.5-1.6,3.5-3.5C244.8,247.7,243.2,246.1,241.3,246.1L241.3,246.1z"/>
				</g>
				<g>
					<path class="st1" d="M244.8,261.5c0,1.9-1.6,3.5-3.5,3.5s-3.5-1.6-3.5-3.5s1.6-3.5,3.5-3.5S244.8,259.6,244.8,261.5z"/>
				</g>
			</g>
		</g>
	</g>
</g>
</svg>
