<?xml version="1.0" encoding="utf-8"?>
<!-- Generator: Adobe Illustrator 23.0.0, SVG Export Plug-In . SVG Version: 6.00 Build 0)  -->
<!DOCTYPE svg PUBLIC "-//W3C//DTD SVG 1.1//EN" "http://www.w3.org/Graphics/SVG/1.1/DTD/svg11.dtd" [
	<!ENTITY ns_extend "http://ns.adobe.com/Extensibility/1.0/">
	<!ENTITY ns_ai "http://ns.adobe.com/AdobeIllustrator/10.0/">
	<!ENTITY ns_graphs "http://ns.adobe.com/Graphs/1.0/">
	<!ENTITY ns_vars "http://ns.adobe.com/Variables/1.0/">
	<!ENTITY ns_imrep "http://ns.adobe.com/ImageReplacement/1.0/">
	<!ENTITY ns_sfw "http://ns.adobe.com/SaveForWeb/1.0/">
	<!ENTITY ns_custom "http://ns.adobe.com/GenericCustomNamespace/1.0/">
	<!ENTITY ns_adobe_xpath "http://ns.adobe.com/XPath/1.0/">
]>
<svg version="1.1" id="Layer_1" xmlns:x="&ns_extend;" xmlns:i="&ns_ai;" xmlns:graph="&ns_graphs;"
	 xmlns="http://www.w3.org/2000/svg" xmlns:xlink="http://www.w3.org/1999/xlink" x="0px" y="0px" viewBox="0 0 255.3 373.4"
	 style="enable-background:new 0 0 255.3 373.4;" xml:space="preserve">
<style type="text/css">
	.st0{fill:#FFFFFF;}
	.st1{fill:#2354A3;}
</style>
<metadata>
	<sfw  xmlns="&ns_sfw;">
		<slices></slices>
		<sliceSourceBounds  bottomLeftOrigin="true" height="371" width="255.3" x="0" y="0"></sliceSourceBounds>
	</sfw>
</metadata>
<g>
	<g>
		<g>
			<rect y="16.7" class="st0" width="255.3" height="356.7"/>
			<g>
				<g>
					<path class="st1" d="M213.8,46.9c11.2-7.3,15.8-14.4,15.8-20.7c0-4.1-2.5-5.8-4.6-6.1l-7.1,6.6c-3.9-1.4-9-5.4-9-11.9
						c0-7.5,6.1-12.4,13.6-12.4c9.2,0,15.3,5.9,15.3,16.3c0,12.9-9.8,22.8-22.4,30.6L213.8,46.9z M181.9,46.9
						c11.2-7.3,15.8-14.4,15.8-20.7c0-4.1-2.5-5.8-4.6-6.1l-7.1,6.6c-3.9-1.4-9-5.4-9-11.9c0-7.5,6.1-12.4,13.6-12.4
						c9.2,0,15.3,5.9,15.3,16.3c0,12.9-9.8,22.8-22.4,30.6L181.9,46.9z"/>
				</g>
			</g>
			<g>
				<rect y="16.7" class="st1" width="62.3" height="7"/>
			</g>
		</g>
	</g>
</g>
</svg>
